STARTFONT 2.1
FONT -xos4-Terminus-Medium-R-Normal--30-300-75-75-C-150-ISO10646-1
SIZE 30 75 75
FONTBOUNDINGBOX 15 30 0 -7
STARTPROPERTIES 20
FAMILY_NAME "Terminus"
FOUNDRY "xos4"
SETWIDTH_NAME "Normal"
ADD_STYLE_NAME ""
COPYRIGHT "Copyright (C) 2020 Dimitar Toshkov Zhekov"
NOTICE "Licensed under the SIL Open Font License, Version 1.1"
WEIGHT_NAME "Medium"
SLANT "R"
PIXEL_SIZE 30
POINT_SIZE 300
RESOLUTION_X 75
RESOLUTION_Y 75
SPACING "C"
AVERAGE_WIDTH 150
CHARSET_REGISTRY "ISO10646"
CHARSET_ENCODING "1"
MIN_SPACE 15
FONT_ASCENT 23
FONT_DESCENT 7
DEFAULT_CHAR 65533
ENDPROPERTIES
CHARS 1356
STARTCHAR char0
ENCODING 0
SWIDTH 666 0
DWIDTH 15 0
BBX 15 30 0 -7
BITMAP
0000
0000
0000
0000
0000
3c3c
3c3c
300c
300c
300c
0000
0000
0000
300c
300c
300c
300c
0000
0000
0000
300c
300c
300c
3c3c
3c3c
0000
0000
0000
0000
0000
ENDCHAR
STARTCHAR space
ENCODING 32
SWIDTH 666 0
DWIDTH 15 0
BBX 15 30 0 -7
BITMAP
0000
0000
0000
0000
0000
0000
0000
0000
0000
0000
0000
0000
0000
0000
0000
0000
0000
0000
0000
0000
0000
0000
0000
0000
0000
0000
0000
0000
0000
0000
ENDCHAR
STARTCHAR exclam
ENCODING 33
SWIDTH 666 0
DWIDTH 15 0
BBX 15 30 0 -7
BITMAP
0000
0000
0000
0000
0000
0180
0180
0180
0180
0180
0180
0180
0180
0180
0180
0180
0180
0180
0000
0000
0000
0180
0180
0180
0180
0000
0000
0000
0000
0000
ENDCHAR
STARTCHAR quotedbl
ENCODING 34
SWIDTH 666 0
DWIDTH 15 0
BBX 15 30 0 -7
BITMAP
0000
0000
0000
0c30
0c30
0c30
0c30
0c30
0c30
0000
0000
0000
0000
0000
0000
0000
0000
0000
0000
0000
0000
0000
0000
0000
0000
0000
0000
0000
0000
0000
ENDCHAR
STARTCHAR numbersign
ENCODING 35
SWIDTH 666 0
DWIDTH 15 0
BBX 15 30 0 -7
BITMAP
0000
0000
0000
0000
0000
0c30
0c30
0c30
0c30
0c30
3ffc
3ffc
0c30
0c30
0c30
0c30
0c30
0c30
3ffc
3ffc
0c30
0c30
0c30
0c30
0c30
0000
0000
0000
0000
0000
ENDCHAR
STARTCHAR dollar
ENCODING 36
SWIDTH 666 0
DWIDTH 15 0
BBX 15 30 0 -7
BITMAP
0000
0000
0000
0180
0180
0180
0ff0
1ff8
399c
318c
3180
3180
3180
3980
1ff0
0ff8
019c
018c
018c
018c
318c
399c
1ff8
0ff0
0180
0180
0180
0000
0000
0000
ENDCHAR
STARTCHAR percent
ENCODING 37
SWIDTH 666 0
DWIDTH 15 0
BBX 15 30 0 -7
BITMAP
0000
0000
0000
0000
0000
1e18
3f18
3330
3330
3f60
1e60
00c0
00c0
0180
0180
0300
0300
0600
0600
0cf0
0df8
1998
1998
31f8
30f0
0000
0000
0000
0000
0000
ENDCHAR
STARTCHAR ampersand
ENCODING 38
SWIDTH 666 0
DWIDTH 15 0
BBX 15 30 0 -7
BITMAP
0000
0000
0000
0000
0000
0f80
1fc0
38e0
3060
3060
3060
38e0
1dc0
0f80
0f00
1f8c
39dc
70f8
6070
6030
6030
6070
70f8
3fdc
1f8c
0000
0000
0000
0000
0000
ENDCHAR
STARTCHAR quotesingle
ENCODING 39
SWIDTH 666 0
DWIDTH 15 0
BBX 15 30 0 -7
BITMAP
0000
0000
0000
0180
0180
0180
0180
0180
0180
0000
0000
0000
0000
0000
0000
0000
0000
0000
0000
0000
0000
0000
0000
0000
0000
0000
0000
0000
0000
0000
ENDCHAR
STARTCHAR parenleft
ENCODING 40
SWIDTH 666 0
DWIDTH 15 0
BBX 15 30 0 -7
BITMAP
0000
0000
0000
0000
0000
0060
00e0
01c0
0380
0300
0700
0600
0600
0600
0600
0600
0600
0600
0600
0700
0300
0380
01c0
00e0
0060
0000
0000
0000
0000
0000
ENDCHAR
STARTCHAR parenright
ENCODING 41
SWIDTH 666 0
DWIDTH 15 0
BBX 15 30 0 -7
BITMAP
0000
0000
0000
0000
0000
0600
0700
0380
01c0
00c0
00e0
0060
0060
0060
0060
0060
0060
0060
0060
00e0
00c0
01c0
0380
0700
0600
0000
0000
0000
0000
0000
ENDCHAR
STARTCHAR asterisk
ENCODING 42
SWIDTH 666 0
DWIDTH 15 0
BBX 15 30 0 -7
BITMAP
0000
0000
0000
0000
0000
0000
0000
0000
0000
3838
1c70
0ee0
07c0
0380
7ffc
7ffc
0380
07c0
0ee0
1c70
3838
0000
0000
0000
0000
0000
0000
0000
0000
0000
ENDCHAR
STARTCHAR plus
ENCODING 43
SWIDTH 666 0
DWIDTH 15 0
BBX 15 30 0 -7
BITMAP
0000
0000
0000
0000
0000
0000
0000
0000
0000
0180
0180
0180
0180
0180
3ffc
3ffc
0180
0180
0180
0180
0180
0000
0000
0000
0000
0000
0000
0000
0000
0000
ENDCHAR
STARTCHAR comma
ENCODING 44
SWIDTH 666 0
DWIDTH 15 0
BBX 15 30 0 -7
BITMAP
0000
0000
0000
0000
0000
0000
0000
0000
0000
0000
0000
0000
0000
0000
0000
0000
0000
0000
0000
0000
0000
0180
0180
0180
0380
0300
0600
0000
0000
0000
ENDCHAR
STARTCHAR hyphen
ENCODING 45
SWIDTH 666 0
DWIDTH 15 0
BBX 15 30 0 -7
BITMAP
0000
0000
0000
0000
0000
0000
0000
0000
0000
0000
0000
0000
0000
0000
3ffc
3ffc
0000
0000
0000
0000
0000
0000
0000
0000
0000
0000
0000
0000
0000
0000
ENDCHAR
STARTCHAR period
ENCODING 46
SWIDTH 666 0
DWIDTH 15 0
BBX 15 30 0 -7
BITMAP
0000
0000
0000
0000
0000
0000
0000
0000
0000
0000
0000
0000
0000
0000
0000
0000
0000
0000
0000
0000
0000
0180
0180
0180
0180
0000
0000
0000
0000
0000
ENDCHAR
STARTCHAR slash
ENCODING 47
SWIDTH 666 0
DWIDTH 15 0
BBX 15 30 0 -7
BITMAP
0000
0000
0000
0000
0000
0018
0018
0030
0030
0060
0060
00c0
00c0
0180
0180
0300
0300
0600
0600
0c00
0c00
1800
1800
3000
3000
0000
0000
0000
0000
0000
ENDCHAR
STARTCHAR zero
ENCODING 48
SWIDTH 666 0
DWIDTH 15 0
BBX 15 30 0 -7
BITMAP
0000
0000
0000
0000
0000
0ff0
1ff8
381c
300c
300c
301c
303c
307c
30ec
31cc
338c
370c
3e0c
3c0c
380c
300c
300c
381c
1ff8
0ff0
0000
0000
0000
0000
0000
ENDCHAR
STARTCHAR one
ENCODING 49
SWIDTH 666 0
DWIDTH 15 0
BBX 15 30 0 -7
BITMAP
0000
0000
0000
0000
0000
0180
0380
0780
0f80
0d80
0180
0180
0180
0180
0180
0180
0180
0180
0180
0180
0180
0180
0180
0ff0
0ff0
0000
0000
0000
0000
0000
ENDCHAR
STARTCHAR two
ENCODING 50
SWIDTH 666 0
DWIDTH 15 0
BBX 15 30 0 -7
BITMAP
0000
0000
0000
0000
0000
0ff0
1ff8
381c
300c
300c
300c
300c
000c
001c
0038
0070
00e0
01c0
0380
0700
0e00
1c00
3800
3ffc
3ffc
0000
0000
0000
0000
0000
ENDCHAR
STARTCHAR three
ENCODING 51
SWIDTH 666 0
DWIDTH 15 0
BBX 15 30 0 -7
BITMAP
0000
0000
0000
0000
0000
0ff0
1ff8
381c
300c
300c
000c
000c
000c
001c
07f8
07f8
001c
000c
000c
000c
300c
300c
381c
1ff8
0ff0
0000
0000
0000
0000
0000
ENDCHAR
STARTCHAR four
ENCODING 52
SWIDTH 666 0
DWIDTH 15 0
BBX 15 30 0 -7
BITMAP
0000
0000
0000
0000
0000
000c
001c
003c
007c
00ec
01cc
038c
070c
0e0c
1c0c
380c
300c
300c
3ffc
3ffc
000c
000c
000c
000c
000c
0000
0000
0000
0000
0000
ENDCHAR
STARTCHAR five
ENCODING 53
SWIDTH 666 0
DWIDTH 15 0
BBX 15 30 0 -7
BITMAP
0000
0000
0000
0000
0000
3ffc
3ffc
3000
3000
3000
3000
3000
3000
3ff0
3ff8
001c
000c
000c
000c
000c
000c
300c
380c
1ff8
0ff0
0000
0000
0000
0000
0000
ENDCHAR
STARTCHAR six
ENCODING 54
SWIDTH 666 0
DWIDTH 15 0
BBX 15 30 0 -7
BITMAP
0000
0000
0000
0000
0000
0ff8
1ff8
3800
3000
3000
3000
3000
3000
3ff0
3ff8
301c
300c
300c
300c
300c
300c
300c
381c
1ff8
0ff0
0000
0000
0000
0000
0000
ENDCHAR
STARTCHAR seven
ENCODING 55
SWIDTH 666 0
DWIDTH 15 0
BBX 15 30 0 -7
BITMAP
0000
0000
0000
0000
0000
3ffc
3ffc
300c
300c
300c
3018
0018
0030
0030
0060
0060
00c0
00c0
0180
0180
0180
0180
0180
0180
0180
0000
0000
0000
0000
0000
ENDCHAR
STARTCHAR eight
ENCODING 56
SWIDTH 666 0
DWIDTH 15 0
BBX 15 30 0 -7
BITMAP
0000
0000
0000
0000
0000
0ff0
1ff8
381c
300c
300c
300c
300c
300c
381c
1ff8
1ff8
381c
300c
300c
300c
300c
300c
381c
1ff8
0ff0
0000
0000
0000
0000
0000
ENDCHAR
STARTCHAR nine
ENCODING 57
SWIDTH 666 0
DWIDTH 15 0
BBX 15 30 0 -7
BITMAP
0000
0000
0000
0000
0000
0ff0
1ff8
381c
300c
300c
300c
300c
300c
300c
380c
1ffc
0ffc
000c
000c
000c
000c
000c
001c
1ff8
1ff0
0000
0000
0000
0000
0000
ENDCHAR
STARTCHAR colon
ENCODING 58
SWIDTH 666 0
DWIDTH 15 0
BBX 15 30 0 -7
BITMAP
0000
0000
0000
0000
0000
0000
0000
0000
0000
0000
0000
0180
0180
0180
0180
0000
0000
0000
0000
0000
0000
0180
0180
0180
0180
0000
0000
0000
0000
0000
ENDCHAR
STARTCHAR semicolon
ENCODING 59
SWIDTH 666 0
DWIDTH 15 0
BBX 15 30 0 -7
BITMAP
0000
0000
0000
0000
0000
0000
0000
0000
0000
0000
0000
0180
0180
0180
0180
0000
0000
0000
0000
0000
0000
0180
0180
0180
0380
0300
0600
0000
0000
0000
ENDCHAR
STARTCHAR less
ENCODING 60
SWIDTH 666 0
DWIDTH 15 0
BBX 15 30 0 -7
BITMAP
0000
0000
0000
0000
0000
001c
0038
0070
00e0
01c0
0380
0700
0e00
1c00
3800
3800
1c00
0e00
0700
0380
01c0
00e0
0070
0038
001c
0000
0000
0000
0000
0000
ENDCHAR
STARTCHAR equal
ENCODING 61
SWIDTH 666 0
DWIDTH 15 0
BBX 15 30 0 -7
BITMAP
0000
0000
0000
0000
0000
0000
0000
0000
0000
0000
0000
3ffc
3ffc
0000
0000
0000
0000
3ffc
3ffc
0000
0000
0000
0000
0000
0000
0000
0000
0000
0000
0000
ENDCHAR
STARTCHAR greater
ENCODING 62
SWIDTH 666 0
DWIDTH 15 0
BBX 15 30 0 -7
BITMAP
0000
0000
0000
0000
0000
3800
1c00
0e00
0700
0380
01c0
00e0
0070
0038
001c
001c
0038
0070
00e0
01c0
0380
0700
0e00
1c00
3800
0000
0000
0000
0000
0000
ENDCHAR
STARTCHAR question
ENCODING 63
SWIDTH 666 0
DWIDTH 15 0
BBX 15 30 0 -7
BITMAP
0000
0000
0000
0000
0000
0ff0
1ff8
381c
300c
300c
300c
300c
001c
0038
0070
00e0
01c0
0180
0180
0000
0000
0180
0180
0180
0180
0000
0000
0000
0000
0000
ENDCHAR
STARTCHAR at
ENCODING 64
SWIDTH 666 0
DWIDTH 15 0
BBX 15 30 0 -7
BITMAP
0000
0000
0000
0000
0000
1ff0
3ff8
701c
600c
61fc
63fc
670c
660c
660c
660c
660c
660c
660c
671c
63fc
61ec
6000
7000
3ffc
1ffc
0000
0000
0000
0000
0000
ENDCHAR
STARTCHAR A
ENCODING 65
SWIDTH 666 0
DWIDTH 15 0
BBX 15 30 0 -7
BITMAP
0000
0000
0000
0000
0000
0ff0
1ff8
381c
300c
300c
300c
300c
300c
300c
300c
3ffc
3ffc
300c
300c
300c
300c
300c
300c
300c
300c
0000
0000
0000
0000
0000
ENDCHAR
STARTCHAR B
ENCODING 66
SWIDTH 666 0
DWIDTH 15 0
BBX 15 30 0 -7
BITMAP
0000
0000
0000
0000
0000
3ff0
3ff8
301c
300c
300c
300c
300c
3018
3ff0
3ff0
3038
301c
300c
300c
300c
300c
300c
301c
3ff8
3ff0
0000
0000
0000
0000
0000
ENDCHAR
STARTCHAR C
ENCODING 67
SWIDTH 666 0
DWIDTH 15 0
BBX 15 30 0 -7
BITMAP
0000
0000
0000
0000
0000
0ff0
1ff8
381c
300c
300c
3000
3000
3000
3000
3000
3000
3000
3000
3000
3000
300c
300c
381c
1ff8
0ff0
0000
0000
0000
0000
0000
ENDCHAR
STARTCHAR D
ENCODING 68
SWIDTH 666 0
DWIDTH 15 0
BBX 15 30 0 -7
BITMAP
0000
0000
0000
0000
0000
3fc0
3ff0
3038
3018
300c
300c
300c
300c
300c
300c
300c
300c
300c
300c
300c
300c
3018
3038
3ff0
3fc0
0000
0000
0000
0000
0000
ENDCHAR
STARTCHAR E
ENCODING 69
SWIDTH 666 0
DWIDTH 15 0
BBX 15 30 0 -7
BITMAP
0000
0000
0000
0000
0000
3ffc
3ffc
3000
3000
3000
3000
3000
3000
3000
3fe0
3fe0
3000
3000
3000
3000
3000
3000
3000
3ffc
3ffc
0000
0000
0000
0000
0000
ENDCHAR
STARTCHAR F
ENCODING 70
SWIDTH 666 0
DWIDTH 15 0
BBX 15 30 0 -7
BITMAP
0000
0000
0000
0000
0000
3ffc
3ffc
3000
3000
3000
3000
3000
3000
3000
3fe0
3fe0
3000
3000
3000
3000
3000
3000
3000
3000
3000
0000
0000
0000
0000
0000
ENDCHAR
STARTCHAR G
ENCODING 71
SWIDTH 666 0
DWIDTH 15 0
BBX 15 30 0 -7
BITMAP
0000
0000
0000
0000
0000
0ff0
1ff8
381c
300c
300c
3000
3000
3000
3000
30fc
30fc
300c
300c
300c
300c
300c
300c
381c
1ff8
0ff0
0000
0000
0000
0000
0000
ENDCHAR
STARTCHAR H
ENCODING 72
SWIDTH 666 0
DWIDTH 15 0
BBX 15 30 0 -7
BITMAP
0000
0000
0000
0000
0000
300c
300c
300c
300c
300c
300c
300c
300c
300c
3ffc
3ffc
300c
300c
300c
300c
300c
300c
300c
300c
300c
0000
0000
0000
0000
0000
ENDCHAR
STARTCHAR I
ENCODING 73
SWIDTH 666 0
DWIDTH 15 0
BBX 15 30 0 -7
BITMAP
0000
0000
0000
0000
0000
07e0
07e0
0180
0180
0180
0180
0180
0180
0180
0180
0180
0180
0180
0180
0180
0180
0180
0180
07e0
07e0
0000
0000
0000
0000
0000
ENDCHAR
STARTCHAR J
ENCODING 74
SWIDTH 666 0
DWIDTH 15 0
BBX 15 30 0 -7
BITMAP
0000
0000
0000
0000
0000
00fc
00fc
0030
0030
0030
0030
0030
0030
0030
0030
0030
0030
0030
0030
6030
6030
6030
7070
3fe0
1fc0
0000
0000
0000
0000
0000
ENDCHAR
STARTCHAR K
ENCODING 75
SWIDTH 666 0
DWIDTH 15 0
BBX 15 30 0 -7
BITMAP
0000
0000
0000
0000
0000
300c
301c
3038
3070
30e0
31c0
3380
3700
3e00
3c00
3c00
3e00
3700
3380
31c0
30e0
3070
3038
301c
300c
0000
0000
0000
0000
0000
ENDCHAR
STARTCHAR L
ENCODING 76
SWIDTH 666 0
DWIDTH 15 0
BBX 15 30 0 -7
BITMAP
0000
0000
0000
0000
0000
3000
3000
3000
3000
3000
3000
3000
3000
3000
3000
3000
3000
3000
3000
3000
3000
3000
3000
3ffc
3ffc
0000
0000
0000
0000
0000
ENDCHAR
STARTCHAR M
ENCODING 77
SWIDTH 666 0
DWIDTH 15 0
BBX 15 30 0 -7
BITMAP
0000
0000
0000
0000
0000
600c
600c
701c
783c
6c6c
6c6c
67cc
638c
638c
610c
600c
600c
600c
600c
600c
600c
600c
600c
600c
600c
0000
0000
0000
0000
0000
ENDCHAR
STARTCHAR N
ENCODING 78
SWIDTH 666 0
DWIDTH 15 0
BBX 15 30 0 -7
BITMAP
0000
0000
0000
0000
0000
300c
300c
300c
300c
300c
380c
3c0c
3e0c
370c
338c
31cc
30ec
307c
303c
301c
300c
300c
300c
300c
300c
0000
0000
0000
0000
0000
ENDCHAR
STARTCHAR O
ENCODING 79
SWIDTH 666 0
DWIDTH 15 0
BBX 15 30 0 -7
BITMAP
0000
0000
0000
0000
0000
0ff0
1ff8
381c
300c
300c
300c
300c
300c
300c
300c
300c
300c
300c
300c
300c
300c
300c
381c
1ff8
0ff0
0000
0000
0000
0000
0000
ENDCHAR
STARTCHAR P
ENCODING 80
SWIDTH 666 0
DWIDTH 15 0
BBX 15 30 0 -7
BITMAP
0000
0000
0000
0000
0000
3ff0
3ff8
301c
300c
300c
300c
300c
300c
300c
301c
3ff8
3ff0
3000
3000
3000
3000
3000
3000
3000
3000
0000
0000
0000
0000
0000
ENDCHAR
STARTCHAR Q
ENCODING 81
SWIDTH 666 0
DWIDTH 15 0
BBX 15 30 0 -7
BITMAP
0000
0000
0000
0000
0000
1fe0
3ff0
7038
6018
6018
6018
6018
6018
6018
6018
6018
6018
6018
6018
6018
6018
6398
71f8
3ff0
1ff0
0038
001c
0000
0000
0000
ENDCHAR
STARTCHAR R
ENCODING 82
SWIDTH 666 0
DWIDTH 15 0
BBX 15 30 0 -7
BITMAP
0000
0000
0000
0000
0000
3ff0
3ff8
301c
300c
300c
300c
300c
300c
300c
301c
3ff8
3ff0
3700
3380
31c0
30e0
3070
3038
301c
300c
0000
0000
0000
0000
0000
ENDCHAR
STARTCHAR S
ENCODING 83
SWIDTH 666 0
DWIDTH 15 0
BBX 15 30 0 -7
BITMAP
0000
0000
0000
0000
0000
0ff0
1ff8
381c
300c
300c
3000
3000
3000
3800
1ff0
0ff8
001c
000c
000c
000c
300c
300c
381c
1ff8
0ff0
0000
0000
0000
0000
0000
ENDCHAR
STARTCHAR T
ENCODING 84
SWIDTH 666 0
DWIDTH 15 0
BBX 15 30 0 -7
BITMAP
0000
0000
0000
0000
0000
3ffc
3ffc
0180
0180
0180
0180
0180
0180
0180
0180
0180
0180
0180
0180
0180
0180
0180
0180
0180
0180
0000
0000
0000
0000
0000
ENDCHAR
STARTCHAR U
ENCODING 85
SWIDTH 666 0
DWIDTH 15 0
BBX 15 30 0 -7
BITMAP
0000
0000
0000
0000
0000
300c
300c
300c
300c
300c
300c
300c
300c
300c
300c
300c
300c
300c
300c
300c
300c
300c
381c
1ff8
0ff0
0000
0000
0000
0000
0000
ENDCHAR
STARTCHAR V
ENCODING 86
SWIDTH 666 0
DWIDTH 15 0
BBX 15 30 0 -7
BITMAP
0000
0000
0000
0000
0000
300c
300c
300c
300c
300c
1818
1818
1818
1818
1818
0c30
0c30
0c30
0c30
0660
0660
0660
03c0
03c0
03c0
0000
0000
0000
0000
0000
ENDCHAR
STARTCHAR W
ENCODING 87
SWIDTH 666 0
DWIDTH 15 0
BBX 15 30 0 -7
BITMAP
0000
0000
0000
0000
0000
600c
600c
600c
600c
600c
600c
600c
600c
600c
600c
610c
638c
638c
67cc
6c6c
6c6c
783c
701c
600c
600c
0000
0000
0000
0000
0000
ENDCHAR
STARTCHAR X
ENCODING 88
SWIDTH 666 0
DWIDTH 15 0
BBX 15 30 0 -7
BITMAP
0000
0000
0000
0000
0000
300c
300c
1818
1818
0c30
0c30
0660
0660
03c0
03c0
03c0
03c0
0660
0660
0c30
0c30
1818
1818
300c
300c
0000
0000
0000
0000
0000
ENDCHAR
STARTCHAR Y
ENCODING 89
SWIDTH 666 0
DWIDTH 15 0
BBX 15 30 0 -7
BITMAP
0000
0000
0000
0000
0000
300c
300c
300c
1818
1818
0c30
0c30
0660
0660
03c0
03c0
0180
0180
0180
0180
0180
0180
0180
0180
0180
0000
0000
0000
0000
0000
ENDCHAR
STARTCHAR Z
ENCODING 90
SWIDTH 666 0
DWIDTH 15 0
BBX 15 30 0 -7
BITMAP
0000
0000
0000
0000
0000
3ffc
3ffc
000c
000c
000c
001c
0038
0070
00e0
01c0
0380
0700
0e00
1c00
3800
3000
3000
3000
3ffc
3ffc
0000
0000
0000
0000
0000
ENDCHAR
STARTCHAR bracketleft
ENCODING 91
SWIDTH 666 0
DWIDTH 15 0
BBX 15 30 0 -7
BITMAP
0000
0000
0000
0000
0000
0fe0
0fe0
0c00
0c00
0c00
0c00
0c00
0c00
0c00
0c00
0c00
0c00
0c00
0c00
0c00
0c00
0c00
0c00
0fe0
0fe0
0000
0000
0000
0000
0000
ENDCHAR
STARTCHAR backslash
ENCODING 92
SWIDTH 666 0
DWIDTH 15 0
BBX 15 30 0 -7
BITMAP
0000
0000
0000
0000
0000
3000
3000
1800
1800
0c00
0c00
0600
0600
0300
0300
0180
0180
00c0
00c0
0060
0060
0030
0030
0018
0018
0000
0000
0000
0000
0000
ENDCHAR
STARTCHAR bracketright
ENCODING 93
SWIDTH 666 0
DWIDTH 15 0
BBX 15 30 0 -7
BITMAP
0000
0000
0000
0000
0000
0fe0
0fe0
0060
0060
0060
0060
0060
0060
0060
0060
0060
0060
0060
0060
0060
0060
0060
0060
0fe0
0fe0
0000
0000
0000
0000
0000
ENDCHAR
STARTCHAR asciicircum
ENCODING 94
SWIDTH 666 0
DWIDTH 15 0
BBX 15 30 0 -7
BITMAP
0000
0000
0000
0180
03c0
07e0
0e70
1c38
381c
0000
0000
0000
0000
0000
0000
0000
0000
0000
0000
0000
0000
0000
0000
0000
0000
0000
0000
0000
0000
0000
ENDCHAR
STARTCHAR underscore
ENCODING 95
SWIDTH 666 0
DWIDTH 15 0
BBX 15 30 0 -7
BITMAP
0000
0000
0000
0000
0000
0000
0000
0000
0000
0000
0000
0000
0000
0000
0000
0000
0000
0000
0000
0000
0000
0000
0000
0000
0000
0000
3ffc
3ffc
0000
0000
ENDCHAR
STARTCHAR grave
ENCODING 96
SWIDTH 666 0
DWIDTH 15 0
BBX 15 30 0 -7
BITMAP
0000
0e00
0700
0380
01c0
0000
0000
0000
0000
0000
0000
0000
0000
0000
0000
0000
0000
0000
0000
0000
0000
0000
0000
0000
0000
0000
0000
0000
0000
0000
ENDCHAR
STARTCHAR a
ENCODING 97
SWIDTH 666 0
DWIDTH 15 0
BBX 15 30 0 -7
BITMAP
0000
0000
0000
0000
0000
0000
0000
0000
0000
0000
0000
1ff0
1ff8
001c
000c
000c
0ffc
1ffc
380c
300c
300c
300c
380c
1ffc
0ffc
0000
0000
0000
0000
0000
ENDCHAR
STARTCHAR b
ENCODING 98
SWIDTH 666 0
DWIDTH 15 0
BBX 15 30 0 -7
BITMAP
0000
0000
0000
0000
0000
3000
3000
3000
3000
3000
3000
3ff0
3ff8
301c
300c
300c
300c
300c
300c
300c
300c
300c
301c
3ff8
3ff0
0000
0000
0000
0000
0000
ENDCHAR
STARTCHAR c
ENCODING 99
SWIDTH 666 0
DWIDTH 15 0
BBX 15 30 0 -7
BITMAP
0000
0000
0000
0000
0000
0000
0000
0000
0000
0000
0000
0ff0
1ff8
381c
300c
3000
3000
3000
3000
3000
3000
300c
381c
1ff8
0ff0
0000
0000
0000
0000
0000
ENDCHAR
STARTCHAR d
ENCODING 100
SWIDTH 666 0
DWIDTH 15 0
BBX 15 30 0 -7
BITMAP
0000
0000
0000
0000
0000
000c
000c
000c
000c
000c
000c
0ffc
1ffc
380c
300c
300c
300c
300c
300c
300c
300c
300c
380c
1ffc
0ffc
0000
0000
0000
0000
0000
ENDCHAR
STARTCHAR e
ENCODING 101
SWIDTH 666 0
DWIDTH 15 0
BBX 15 30 0 -7
BITMAP
0000
0000
0000
0000
0000
0000
0000
0000
0000
0000
0000
0ff0
1ff8
381c
300c
300c
300c
3ffc
3ffc
3000
3000
3000
380c
1ffc
0ff8
0000
0000
0000
0000
0000
ENDCHAR
STARTCHAR f
ENCODING 102
SWIDTH 666 0
DWIDTH 15 0
BBX 15 30 0 -7
BITMAP
0000
0000
0000
0000
0000
00fc
01fc
0380
0300
0300
0300
3ff0
3ff0
0300
0300
0300
0300
0300
0300
0300
0300
0300
0300
0300
0300
0000
0000
0000
0000
0000
ENDCHAR
STARTCHAR g
ENCODING 103
SWIDTH 666 0
DWIDTH 15 0
BBX 15 30 0 -7
BITMAP
0000
0000
0000
0000
0000
0000
0000
0000
0000
0000
0000
0ffc
1ffc
380c
300c
300c
300c
300c
300c
300c
300c
300c
380c
1ffc
0ffc
000c
001c
1ff8
1ff0
0000
ENDCHAR
STARTCHAR h
ENCODING 104
SWIDTH 666 0
DWIDTH 15 0
BBX 15 30 0 -7
BITMAP
0000
0000
0000
0000
0000
3000
3000
3000
3000
3000
3000
3ff0
3ff8
301c
300c
300c
300c
300c
300c
300c
300c
300c
300c
300c
300c
0000
0000
0000
0000
0000
ENDCHAR
STARTCHAR i
ENCODING 105
SWIDTH 666 0
DWIDTH 15 0
BBX 15 30 0 -7
BITMAP
0000
0000
0000
0000
0000
0180
0180
0180
0180
0000
0000
0780
0780
0180
0180
0180
0180
0180
0180
0180
0180
0180
0180
07e0
07e0
0000
0000
0000
0000
0000
ENDCHAR
STARTCHAR j
ENCODING 106
SWIDTH 666 0
DWIDTH 15 0
BBX 15 30 0 -7
BITMAP
0000
0000
0000
0000
0000
0018
0018
0018
0018
0000
0000
0078
0078
0018
0018
0018
0018
0018
0018
0018
0018
0018
0018
0018
0018
1818
1c38
0ff0
07e0
0000
ENDCHAR
STARTCHAR k
ENCODING 107
SWIDTH 666 0
DWIDTH 15 0
BBX 15 30 0 -7
BITMAP
0000
0000
0000
0000
0000
1800
1800
1800
1800
1800
1800
181c
1838
1870
18e0
19c0
1b80
1f00
1f00
1b80
19c0
18e0
1870
1838
181c
0000
0000
0000
0000
0000
ENDCHAR
STARTCHAR l
ENCODING 108
SWIDTH 666 0
DWIDTH 15 0
BBX 15 30 0 -7
BITMAP
0000
0000
0000
0000
0000
0780
0780
0180
0180
0180
0180
0180
0180
0180
0180
0180
0180
0180
0180
0180
0180
0180
0180
07e0
07e0
0000
0000
0000
0000
0000
ENDCHAR
STARTCHAR m
ENCODING 109
SWIDTH 666 0
DWIDTH 15 0
BBX 15 30 0 -7
BITMAP
0000
0000
0000
0000
0000
0000
0000
0000
0000
0000
0000
3ff0
3ff8
319c
318c
318c
318c
318c
318c
318c
318c
318c
318c
318c
318c
0000
0000
0000
0000
0000
ENDCHAR
STARTCHAR n
ENCODING 110
SWIDTH 666 0
DWIDTH 15 0
BBX 15 30 0 -7
BITMAP
0000
0000
0000
0000
0000
0000
0000
0000
0000
0000
0000
3ff0
3ff8
301c
300c
300c
300c
300c
300c
300c
300c
300c
300c
300c
300c
0000
0000
0000
0000
0000
ENDCHAR
STARTCHAR o
ENCODING 111
SWIDTH 666 0
DWIDTH 15 0
BBX 15 30 0 -7
BITMAP
0000
0000
0000
0000
0000
0000
0000
0000
0000
0000
0000
0ff0
1ff8
381c
300c
300c
300c
300c
300c
300c
300c
300c
381c
1ff8
0ff0
0000
0000
0000
0000
0000
ENDCHAR
STARTCHAR p
ENCODING 112
SWIDTH 666 0
DWIDTH 15 0
BBX 15 30 0 -7
BITMAP
0000
0000
0000
0000
0000
0000
0000
0000
0000
0000
0000
3ff0
3ff8
301c
300c
300c
300c
300c
300c
300c
300c
300c
301c
3ff8
3ff0
3000
3000
3000
3000
0000
ENDCHAR
STARTCHAR q
ENCODING 113
SWIDTH 666 0
DWIDTH 15 0
BBX 15 30 0 -7
BITMAP
0000
0000
0000
0000
0000
0000
0000
0000
0000
0000
0000
0ffc
1ffc
380c
300c
300c
300c
300c
300c
300c
300c
300c
380c
1ffc
0ffc
000c
000c
000c
000c
0000
ENDCHAR
STARTCHAR r
ENCODING 114
SWIDTH 666 0
DWIDTH 15 0
BBX 15 30 0 -7
BITMAP
0000
0000
0000
0000
0000
0000
0000
0000
0000
0000
0000
33fc
37fc
3e00
3c00
3800
3000
3000
3000
3000
3000
3000
3000
3000
3000
0000
0000
0000
0000
0000
ENDCHAR
STARTCHAR s
ENCODING 115
SWIDTH 666 0
DWIDTH 15 0
BBX 15 30 0 -7
BITMAP
0000
0000
0000
0000
0000
0000
0000
0000
0000
0000
0000
0ff0
1ff8
381c
3000
3000
3800
1ff0
0ff8
001c
000c
000c
381c
1ff8
0ff0
0000
0000
0000
0000
0000
ENDCHAR
STARTCHAR t
ENCODING 116
SWIDTH 666 0
DWIDTH 15 0
BBX 15 30 0 -7
BITMAP
0000
0000
0000
0000
0000
0300
0300
0300
0300
0300
0300
3ff0
3ff0
0300
0300
0300
0300
0300
0300
0300
0300
0300
0380
01fc
00fc
0000
0000
0000
0000
0000
ENDCHAR
STARTCHAR u
ENCODING 117
SWIDTH 666 0
DWIDTH 15 0
BBX 15 30 0 -7
BITMAP
0000
0000
0000
0000
0000
0000
0000
0000
0000
0000
0000
300c
300c
300c
300c
300c
300c
300c
300c
300c
300c
300c
380c
1ffc
0ffc
0000
0000
0000
0000
0000
ENDCHAR
STARTCHAR v
ENCODING 118
SWIDTH 666 0
DWIDTH 15 0
BBX 15 30 0 -7
BITMAP
0000
0000
0000
0000
0000
0000
0000
0000
0000
0000
0000
300c
300c
300c
1818
1818
1818
0c30
0c30
0c30
0660
0660
03c0
03c0
03c0
0000
0000
0000
0000
0000
ENDCHAR
STARTCHAR w
ENCODING 119
SWIDTH 666 0
DWIDTH 15 0
BBX 15 30 0 -7
BITMAP
0000
0000
0000
0000
0000
0000
0000
0000
0000
0000
0000
300c
300c
300c
300c
318c
318c
318c
318c
318c
318c
318c
399c
1ff8
0ff0
0000
0000
0000
0000
0000
ENDCHAR
STARTCHAR x
ENCODING 120
SWIDTH 666 0
DWIDTH 15 0
BBX 15 30 0 -7
BITMAP
0000
0000
0000
0000
0000
0000
0000
0000
0000
0000
0000
300c
300c
381c
1c38
0e70
07e0
03c0
03c0
07e0
0e70
1c38
381c
300c
300c
0000
0000
0000
0000
0000
ENDCHAR
STARTCHAR y
ENCODING 121
SWIDTH 666 0
DWIDTH 15 0
BBX 15 30 0 -7
BITMAP
0000
0000
0000
0000
0000
0000
0000
0000
0000
0000
0000
300c
300c
300c
300c
300c
300c
300c
300c
300c
300c
300c
380c
1ffc
0ffc
000c
001c
1ff8
1ff0
0000
ENDCHAR
STARTCHAR z
ENCODING 122
SWIDTH 666 0
DWIDTH 15 0
BBX 15 30 0 -7
BITMAP
0000
0000
0000
0000
0000
0000
0000
0000
0000
0000
0000
3ffc
3ffc
001c
0038
0070
00e0
01c0
0380
0700
0e00
1c00
3800
3ffc
3ffc
0000
0000
0000
0000
0000
ENDCHAR
STARTCHAR braceleft
ENCODING 123
SWIDTH 666 0
DWIDTH 15 0
BBX 15 30 0 -7
BITMAP
0000
0000
0000
0000
0000
00f0
01f0
0380
0300
0300
0300
0300
0300
0300
1e00
1e00
0300
0300
0300
0300
0300
0300
0380
01f0
00f0
0000
0000
0000
0000
0000
ENDCHAR
STARTCHAR bar
ENCODING 124
SWIDTH 666 0
DWIDTH 15 0
BBX 15 30 0 -7
BITMAP
0000
0000
0000
0000
0000
0180
0180
0180
0180
0180
0180
0180
0180
0180
0180
0180
0180
0180
0180
0180
0180
0180
0180
0180
0180
0000
0000
0000
0000
0000
ENDCHAR
STARTCHAR braceright
ENCODING 125
SWIDTH 666 0
DWIDTH 15 0
BBX 15 30 0 -7
BITMAP
0000
0000
0000
0000
0000
1e00
1f00
0380
0180
0180
0180
0180
0180
0180
00f0
00f0
0180
0180
0180
0180
0180
0180
0380
1f00
1e00
0000
0000
0000
0000
0000
ENDCHAR
STARTCHAR asciitilde
ENCODING 126
SWIDTH 666 0
DWIDTH 15 0
BBX 15 30 0 -7
BITMAP
0000
0000
0000
0e0c
1f0c
3b8c
31dc
30f8
3070
0000
0000
0000
0000
0000
0000
0000
0000
0000
0000
0000
0000
0000
0000
0000
0000
0000
0000
0000
0000
0000
ENDCHAR
STARTCHAR nbspace
ENCODING 160
SWIDTH 666 0
DWIDTH 15 0
BBX 15 30 0 -7
BITMAP
0000
0000
0000
0000
0000
0000
0000
0000
0000
0000
0000
0000
0000
0000
0000
0000
0000
0000
0000
0000
0000
0000
0000
0000
0000
0000
0000
0000
0000
0000
ENDCHAR
STARTCHAR exclamdown
ENCODING 161
SWIDTH 666 0
DWIDTH 15 0
BBX 15 30 0 -7
BITMAP
0000
0000
0000
0000
0000
0180
0180
0180
0180
0000
0000
0180
0180
0180
0180
0180
0180
0180
0180
0180
0180
0180
0180
0180
0180
0000
0000
0000
0000
0000
ENDCHAR
STARTCHAR cent
ENCODING 162
SWIDTH 666 0
DWIDTH 15 0
BBX 15 30 0 -7
BITMAP
0000
0000
0000
0000
0000
0000
0000
0000
0180
0180
0180
0ff0
1ff8
399c
318c
3180
3180
3180
3180
3180
3180
318c
399c
1ff8
0ff0
0180
0180
0180
0000
0000
ENDCHAR
STARTCHAR sterling
ENCODING 163
SWIDTH 666 0
DWIDTH 15 0
BBX 15 30 0 -7
BITMAP
0000
0000
0000
0000
0000
03e0
07f0
0e38
0c18
0c00
0c00
0c00
0c00
0c00
3fe0
3fe0
0c00
0c00
0c00
0c00
0c00
0c0c
0c0c
3ffc
3ffc
0000
0000
0000
0000
0000
ENDCHAR
STARTCHAR currency
ENCODING 164
SWIDTH 666 0
DWIDTH 15 0
BBX 15 30 0 -7
BITMAP
0000
0000
0000
0000
0000
0000
0000
0000
381c
1c38
0ff0
0ff0
1c38
1818
1818
1818
1818
1c38
0ff0
0ff0
1c38
381c
0000
0000
0000
0000
0000
0000
0000
0000
ENDCHAR
STARTCHAR yen
ENCODING 165
SWIDTH 666 0
DWIDTH 15 0
BBX 15 30 0 -7
BITMAP
0000
0000
0000
0000
0000
300c
300c
1818
1818
0c30
0c30
0660
0660
03c0
03c0
0180
0180
1ff8
1ff8
0180
0180
1ff8
1ff8
0180
0180
0000
0000
0000
0000
0000
ENDCHAR
STARTCHAR brokenbar
ENCODING 166
SWIDTH 666 0
DWIDTH 15 0
BBX 15 30 0 -7
BITMAP
0000
0000
0000
0000
0000
0180
0180
0180
0180
0180
0180
0180
0180
0000
0000
0000
0000
0180
0180
0180
0180
0180
0180
0180
0180
0000
0000
0000
0000
0000
ENDCHAR
STARTCHAR section
ENCODING 167
SWIDTH 666 0
DWIDTH 15 0
BBX 15 30 0 -7
BITMAP
0000
0000
0000
07c0
0fe0
1c70
1830
1800
1c00
0f80
0fc0
18e0
1870
1830
1830
1830
1c30
0e30
07e0
03e0
0070
0030
1830
1c70
0fe0
07c0
0000
0000
0000
0000
ENDCHAR
STARTCHAR dieresis
ENCODING 168
SWIDTH 666 0
DWIDTH 15 0
BBX 15 30 0 -7
BITMAP
0000
0c30
0c30
0c30
0c30
0000
0000
0000
0000
0000
0000
0000
0000
0000
0000
0000
0000
0000
0000
0000
0000
0000
0000
0000
0000
0000
0000
0000
0000
0000
ENDCHAR
STARTCHAR copyright
ENCODING 169
SWIDTH 666 0
DWIDTH 15 0
BBX 15 30 0 -7
BITMAP
0000
0000
0000
0000
0000
0000
0000
1ff0
3ff8
701c
67cc
6fec
6c6c
6c0c
6c0c
6c0c
6c0c
6c6c
6fec
67cc
701c
3ff8
1ff0
0000
0000
0000
0000
0000
0000
0000
ENDCHAR
STARTCHAR ordfeminine
ENCODING 170
SWIDTH 666 0
DWIDTH 15 0
BBX 15 30 0 -7
BITMAP
0000
0fe0
0ff0
0038
0018
07f8
0ff8
1c18
1818
1c18
0ff8
07f8
0000
0000
1ff8
1ff8
0000
0000
0000
0000
0000
0000
0000
0000
0000
0000
0000
0000
0000
0000
ENDCHAR
STARTCHAR guillemotleft
ENCODING 171
SWIDTH 666 0
DWIDTH 15 0
BBX 15 30 0 -7
BITMAP
0000
0000
0000
0000
0000
0000
0000
0000
0000
0000
0000
01ce
039c
0738
0e70
1ce0
39c0
7380
7380
39c0
1ce0
0e70
0738
039c
01ce
0000
0000
0000
0000
0000
ENDCHAR
STARTCHAR logicalnot
ENCODING 172
SWIDTH 666 0
DWIDTH 15 0
BBX 15 30 0 -7
BITMAP
0000
0000
0000
0000
0000
0000
0000
0000
0000
0000
0000
3ffc
3ffc
000c
000c
000c
000c
000c
000c
0000
0000
0000
0000
0000
0000
0000
0000
0000
0000
0000
ENDCHAR
STARTCHAR softhyphen
ENCODING 173
SWIDTH 666 0
DWIDTH 15 0
BBX 15 30 0 -7
BITMAP
0000
0000
0000
0000
0000
0000
0000
0000
0000
0000
0000
0000
0000
0000
1ff8
1ff8
0000
0000
0000
0000
0000
0000
0000
0000
0000
0000
0000
0000
0000
0000
ENDCHAR
STARTCHAR registered
ENCODING 174
SWIDTH 666 0
DWIDTH 15 0
BBX 15 30 0 -7
BITMAP
0000
0000
0000
0000
0000
0000
0000
1ff8
3ffc
700e
6fe6
6ff6
6c36
6c36
6c36
6fe6
6fc6
6dc6
6ce6
6c76
700e
3ffc
1ff8
0000
0000
0000
0000
0000
0000
0000
ENDCHAR
STARTCHAR macron
ENCODING 175
SWIDTH 666 0
DWIDTH 15 0
BBX 15 30 0 -7
BITMAP
0000
0ff0
0ff0
0000
0000
0000
0000
0000
0000
0000
0000
0000
0000
0000
0000
0000
0000
0000
0000
0000
0000
0000
0000
0000
0000
0000
0000
0000
0000
0000
ENDCHAR
STARTCHAR degree
ENCODING 176
SWIDTH 666 0
DWIDTH 15 0
BBX 15 30 0 -7
BITMAP
0000
0000
0000
07e0
0ff0
0c30
0c30
0c30
0c30
0ff0
07e0
0000
0000
0000
0000
0000
0000
0000
0000
0000
0000
0000
0000
0000
0000
0000
0000
0000
0000
0000
ENDCHAR
STARTCHAR plusminus
ENCODING 177
SWIDTH 666 0
DWIDTH 15 0
BBX 15 30 0 -7
BITMAP
0000
0000
0000
0000
0000
0000
0000
0000
0000
0180
0180
0180
0180
0180
3ffc
3ffc
0180
0180
0180
0180
0180
0000
0000
3ffc
3ffc
0000
0000
0000
0000
0000
ENDCHAR
STARTCHAR twosuperior
ENCODING 178
SWIDTH 666 0
DWIDTH 15 0
BBX 15 30 0 -7
BITMAP
0000
0000
07e0
0ff0
0c30
0c30
0070
00e0
01c0
0380
0700
0ff0
0ff0
0000
0000
0000
0000
0000
0000
0000
0000
0000
0000
0000
0000
0000
0000
0000
0000
0000
ENDCHAR
STARTCHAR threesuperior
ENCODING 179
SWIDTH 666 0
DWIDTH 15 0
BBX 15 30 0 -7
BITMAP
0000
0000
07e0
0ff0
0c30
0030
01e0
01e0
0030
0030
0c30
0ff0
07e0
0000
0000
0000
0000
0000
0000
0000
0000
0000
0000
0000
0000
0000
0000
0000
0000
0000
ENDCHAR
STARTCHAR acute
ENCODING 180
SWIDTH 666 0
DWIDTH 15 0
BBX 15 30 0 -7
BITMAP
0000
0070
00e0
01c0
0380
0000
0000
0000
0000
0000
0000
0000
0000
0000
0000
0000
0000
0000
0000
0000
0000
0000
0000
0000
0000
0000
0000
0000
0000
0000
ENDCHAR
STARTCHAR mu
ENCODING 181
SWIDTH 666 0
DWIDTH 15 0
BBX 15 30 0 -7
BITMAP
0000
0000
0000
0000
0000
0000
0000
0000
0000
0000
0000
300c
300c
300c
300c
300c
300c
300c
300c
300c
301c
303c
307c
3fec
3fcc
3000
3000
3000
3000
0000
ENDCHAR
STARTCHAR paragraph
ENCODING 182
SWIDTH 666 0
DWIDTH 15 0
BBX 15 30 0 -7
BITMAP
0000
0000
0000
0000
0000
1ffc
3ffc
718c
618c
618c
618c
618c
618c
718c
3f8c
1f8c
018c
018c
018c
018c
018c
018c
018c
018c
018c
0000
0000
0000
0000
0000
ENDCHAR
STARTCHAR periodcentered
ENCODING 183
SWIDTH 666 0
DWIDTH 15 0
BBX 15 30 0 -7
BITMAP
0000
0000
0000
0000
0000
0000
0000
0000
0000
0000
0000
0000
0000
0180
0180
0180
0180
0000
0000
0000
0000
0000
0000
0000
0000
0000
0000
0000
0000
0000
ENDCHAR
STARTCHAR cedilla
ENCODING 184
SWIDTH 666 0
DWIDTH 15 0
BBX 15 30 0 -7
BITMAP
0000
0000
0000
0000
0000
0000
0000
0000
0000
0000
0000
0000
0000
0000
0000
0000
0000
0000
0000
0000
0000
0000
0000
0000
0000
0180
0380
0300
0600
0000
ENDCHAR
STARTCHAR onesuperior
ENCODING 185
SWIDTH 666 0
DWIDTH 15 0
BBX 15 30 0 -7
BITMAP
0000
0000
0180
0380
0780
0780
0180
0180
0180
0180
0180
07e0
07e0
0000
0000
0000
0000
0000
0000
0000
0000
0000
0000
0000
0000
0000
0000
0000
0000
0000
ENDCHAR
STARTCHAR ordmasculine
ENCODING 186
SWIDTH 666 0
DWIDTH 15 0
BBX 15 30 0 -7
BITMAP
0000
07e0
0ff0
1c38
1818
1818
1818
1818
1818
1c38
0ff0
07e0
0000
0000
1ff8
1ff8
0000
0000
0000
0000
0000
0000
0000
0000
0000
0000
0000
0000
0000
0000
ENDCHAR
STARTCHAR guillemotright
ENCODING 187
SWIDTH 666 0
DWIDTH 15 0
BBX 15 30 0 -7
BITMAP
0000
0000
0000
0000
0000
0000
0000
0000
0000
0000
0000
7380
39c0
1ce0
0e70
0738
039c
01ce
01ce
039c
0738
0e70
1ce0
39c0
7380
0000
0000
0000
0000
0000
ENDCHAR
STARTCHAR onequarter
ENCODING 188
SWIDTH 666 0
DWIDTH 15 0
BBX 15 30 0 -7
BITMAP
0000
0000
0000
0000
0000
0c00
1c00
3c00
0c00
0c06
0c0e
0c1c
0c38
0c70
00e0
01c6
038e
071e
0e36
1c66
38c6
71fe
61fe
0006
0006
0000
0000
0000
0000
0000
ENDCHAR
STARTCHAR onehalf
ENCODING 189
SWIDTH 666 0
DWIDTH 15 0
BBX 15 30 0 -7
BITMAP
0000
0000
0000
0000
0000
1800
3800
7806
180e
181c
1838
1870
18e0
19c0
0380
0700
0e7c
1cfe
38c6
70c6
600c
0018
0030
007e
00fe
0000
0000
0000
0000
0000
ENDCHAR
STARTCHAR threequarters
ENCODING 190
SWIDTH 666 0
DWIDTH 15 0
BBX 15 30 0 -7
BITMAP
0000
0000
0000
0000
0000
3f00
7f80
6180
0f00
0f00
0186
618e
7f9c
3f38
0070
00e6
01ce
039e
0736
0e66
1cc6
39fe
71fe
6006
0006
0000
0000
0000
0000
0000
ENDCHAR
STARTCHAR questiondown
ENCODING 191
SWIDTH 666 0
DWIDTH 15 0
BBX 15 30 0 -7
BITMAP
0000
0000
0000
0000
0000
0180
0180
0180
0180
0000
0000
0180
0180
0180
0300
0600
0c00
1800
300c
300c
300c
300c
381c
1ff8
0ff0
0000
0000
0000
0000
0000
ENDCHAR
STARTCHAR Agrave
ENCODING 192
SWIDTH 666 0
DWIDTH 15 0
BBX 15 30 0 -7
BITMAP
0000
0e00
0700
0380
01c0
0000
0ff0
1ff8
381c
300c
300c
300c
300c
300c
300c
300c
3ffc
3ffc
300c
300c
300c
300c
300c
300c
300c
300c
0000
0000
0000
0000
ENDCHAR
STARTCHAR Aacute
ENCODING 193
SWIDTH 666 0
DWIDTH 15 0
BBX 15 30 0 -7
BITMAP
0000
0070
00e0
01c0
0380
0000
0ff0
1ff8
381c
300c
300c
300c
300c
300c
300c
300c
3ffc
3ffc
300c
300c
300c
300c
300c
300c
300c
300c
0000
0000
0000
0000
ENDCHAR
STARTCHAR Acircumflex
ENCODING 194
SWIDTH 666 0
DWIDTH 15 0
BBX 15 30 0 -7
BITMAP
0000
0180
03c0
07e0
0e70
0000
0ff0
1ff8
381c
300c
300c
300c
300c
300c
300c
300c
3ffc
3ffc
300c
300c
300c
300c
300c
300c
300c
300c
0000
0000
0000
0000
ENDCHAR
STARTCHAR Atilde
ENCODING 195
SWIDTH 666 0
DWIDTH 15 0
BBX 15 30 0 -7
BITMAP
0000
0f18
1b98
19d8
18f0
0000
0ff0
1ff8
381c
300c
300c
300c
300c
300c
300c
300c
3ffc
3ffc
300c
300c
300c
300c
300c
300c
300c
300c
0000
0000
0000
0000
ENDCHAR
STARTCHAR Adieresis
ENCODING 196
SWIDTH 666 0
DWIDTH 15 0
BBX 15 30 0 -7
BITMAP
0000
0c30
0c30
0c30
0c30
0000
0ff0
1ff8
381c
300c
300c
300c
300c
300c
300c
300c
3ffc
3ffc
300c
300c
300c
300c
300c
300c
300c
300c
0000
0000
0000
0000
ENDCHAR
STARTCHAR Aring
ENCODING 197
SWIDTH 666 0
DWIDTH 15 0
BBX 15 30 0 -7
BITMAP
0000
03c0
0660
0660
0660
03c0
0ff0
1ff8
381c
300c
300c
300c
300c
300c
300c
300c
3ffc
3ffc
300c
300c
300c
300c
300c
300c
300c
300c
0000
0000
0000
0000
ENDCHAR
STARTCHAR AE
ENCODING 198
SWIDTH 666 0
DWIDTH 15 0
BBX 15 30 0 -7
BITMAP
0000
0000
0000
0000
0000
1ffe
3ffe
7180
6180
6180
6180
6180
6180
6180
7ffc
7ffc
6180
6180
6180
6180
6180
6180
6180
61fe
61fe
0000
0000
0000
0000
0000
ENDCHAR
STARTCHAR Ccedilla
ENCODING 199
SWIDTH 666 0
DWIDTH 15 0
BBX 15 30 0 -7
BITMAP
0000
0000
0000
0000
0000
0ff0
1ff8
381c
300c
300c
3000
3000
3000
3000
3000
3000
3000
3000
3000
3000
300c
300c
381c
1ff8
0ff0
0180
0380
0300
0600
0000
ENDCHAR
STARTCHAR Egrave
ENCODING 200
SWIDTH 666 0
DWIDTH 15 0
BBX 15 30 0 -7
BITMAP
0000
0e00
0700
0380
01c0
0000
3ffc
3ffc
3000
3000
3000
3000
3000
3000
3000
3fe0
3fe0
3000
3000
3000
3000
3000
3000
3000
3ffc
3ffc
0000
0000
0000
0000
ENDCHAR
STARTCHAR Eacute
ENCODING 201
SWIDTH 666 0
DWIDTH 15 0
BBX 15 30 0 -7
BITMAP
0000
0070
00e0
01c0
0380
0000
3ffc
3ffc
3000
3000
3000
3000
3000
3000
3000
3fe0
3fe0
3000
3000
3000
3000
3000
3000
3000
3ffc
3ffc
0000
0000
0000
0000
ENDCHAR
STARTCHAR Ecircumflex
ENCODING 202
SWIDTH 666 0
DWIDTH 15 0
BBX 15 30 0 -7
BITMAP
0000
0180
03c0
07e0
0e70
0000
3ffc
3ffc
3000
3000
3000
3000
3000
3000
3000
3fe0
3fe0
3000
3000
3000
3000
3000
3000
3000
3ffc
3ffc
0000
0000
0000
0000
ENDCHAR
STARTCHAR Edieresis
ENCODING 203
SWIDTH 666 0
DWIDTH 15 0
BBX 15 30 0 -7
BITMAP
0000
0c30
0c30
0c30
0c30
0000
3ffc
3ffc
3000
3000
3000
3000
3000
3000
3000
3fe0
3fe0
3000
3000
3000
3000
3000
3000
3000
3ffc
3ffc
0000
0000
0000
0000
ENDCHAR
STARTCHAR Igrave
ENCODING 204
SWIDTH 666 0
DWIDTH 15 0
BBX 15 30 0 -7
BITMAP
0000
0e00
0700
0380
01c0
0000
07e0
07e0
0180
0180
0180
0180
0180
0180
0180
0180
0180
0180
0180
0180
0180
0180
0180
0180
07e0
07e0
0000
0000
0000
0000
ENDCHAR
STARTCHAR Iacute
ENCODING 205
SWIDTH 666 0
DWIDTH 15 0
BBX 15 30 0 -7
BITMAP
0000
0070
00e0
01c0
0380
0000
07e0
07e0
0180
0180
0180
0180
0180
0180
0180
0180
0180
0180
0180
0180
0180
0180
0180
0180
07e0
07e0
0000
0000
0000
0000
ENDCHAR
STARTCHAR Icircumflex
ENCODING 206
SWIDTH 666 0
DWIDTH 15 0
BBX 15 30 0 -7
BITMAP
0000
0180
03c0
07e0
0e70
0000
07e0
07e0
0180
0180
0180
0180
0180
0180
0180
0180
0180
0180
0180
0180
0180
0180
0180
0180
07e0
07e0
0000
0000
0000
0000
ENDCHAR
STARTCHAR Idieresis
ENCODING 207
SWIDTH 666 0
DWIDTH 15 0
BBX 15 30 0 -7
BITMAP
0000
0c30
0c30
0c30
0c30
0000
07e0
07e0
0180
0180
0180
0180
0180
0180
0180
0180
0180
0180
0180
0180
0180
0180
0180
0180
07e0
07e0
0000
0000
0000
0000
ENDCHAR
STARTCHAR Eth
ENCODING 208
SWIDTH 666 0
DWIDTH 15 0
BBX 15 30 0 -7
BITMAP
0000
0000
0000
0000
0000
3fc0
3ff0
3038
3018
300c
300c
300c
300c
300c
7f8c
7f8c
300c
300c
300c
300c
300c
3018
3038
3ff0
3fc0
0000
0000
0000
0000
0000
ENDCHAR
STARTCHAR Ntilde
ENCODING 209
SWIDTH 666 0
DWIDTH 15 0
BBX 15 30 0 -7
BITMAP
0000
0f18
1b98
19d8
18f0
0000
300c
300c
300c
300c
300c
380c
3c0c
3e0c
370c
338c
31cc
30ec
307c
303c
301c
300c
300c
300c
300c
300c
0000
0000
0000
0000
ENDCHAR
STARTCHAR Ograve
ENCODING 210
SWIDTH 666 0
DWIDTH 15 0
BBX 15 30 0 -7
BITMAP
0000
0e00
0700
0380
01c0
0000
0ff0
1ff8
381c
300c
300c
300c
300c
300c
300c
300c
300c
300c
300c
300c
300c
300c
300c
381c
1ff8
0ff0
0000
0000
0000
0000
ENDCHAR
STARTCHAR Oacute
ENCODING 211
SWIDTH 666 0
DWIDTH 15 0
BBX 15 30 0 -7
BITMAP
0000
0070
00e0
01c0
0380
0000
0ff0
1ff8
381c
300c
300c
300c
300c
300c
300c
300c
300c
300c
300c
300c
300c
300c
300c
381c
1ff8
0ff0
0000
0000
0000
0000
ENDCHAR
STARTCHAR Ocircumflex
ENCODING 212
SWIDTH 666 0
DWIDTH 15 0
BBX 15 30 0 -7
BITMAP
0000
0180
03c0
07e0
0e70
0000
0ff0
1ff8
381c
300c
300c
300c
300c
300c
300c
300c
300c
300c
300c
300c
300c
300c
300c
381c
1ff8
0ff0
0000
0000
0000
0000
ENDCHAR
STARTCHAR Otilde
ENCODING 213
SWIDTH 666 0
DWIDTH 15 0
BBX 15 30 0 -7
BITMAP
0000
0f18
1b98
19d8
18f0
0000
0ff0
1ff8
381c
300c
300c
300c
300c
300c
300c
300c
300c
300c
300c
300c
300c
300c
300c
381c
1ff8
0ff0
0000
0000
0000
0000
ENDCHAR
STARTCHAR Odieresis
ENCODING 214
SWIDTH 666 0
DWIDTH 15 0
BBX 15 30 0 -7
BITMAP
0000
0c30
0c30
0c30
0c30
0000
0ff0
1ff8
381c
300c
300c
300c
300c
300c
300c
300c
300c
300c
300c
300c
300c
300c
300c
381c
1ff8
0ff0
0000
0000
0000
0000
ENDCHAR
STARTCHAR multiply
ENCODING 215
SWIDTH 666 0
DWIDTH 15 0
BBX 15 30 0 -7
BITMAP
0000
0000
0000
0000
0000
0000
0000
0000
0000
0000
701c
3838
1c70
0ee0
07c0
0380
07c0
0ee0
1c70
3838
701c
0000
0000
0000
0000
0000
0000
0000
0000
0000
ENDCHAR
STARTCHAR Oslash
ENCODING 216
SWIDTH 666 0
DWIDTH 15 0
BBX 15 30 0 -7
BITMAP
0000
0000
0000
0000
0000
0ff0
1ff8
381c
300e
300e
301c
303c
307c
30ec
31cc
338c
370c
3e0c
3c0c
380c
700c
700c
381c
1ff8
0ff0
0000
0000
0000
0000
0000
ENDCHAR
STARTCHAR Ugrave
ENCODING 217
SWIDTH 666 0
DWIDTH 15 0
BBX 15 30 0 -7
BITMAP
0000
0e00
0700
0380
01c0
0000
300c
300c
300c
300c
300c
300c
300c
300c
300c
300c
300c
300c
300c
300c
300c
300c
300c
381c
1ff8
0ff0
0000
0000
0000
0000
ENDCHAR
STARTCHAR Uacute
ENCODING 218
SWIDTH 666 0
DWIDTH 15 0
BBX 15 30 0 -7
BITMAP
0000
0070
00e0
01c0
0380
0000
300c
300c
300c
300c
300c
300c
300c
300c
300c
300c
300c
300c
300c
300c
300c
300c
300c
381c
1ff8
0ff0
0000
0000
0000
0000
ENDCHAR
STARTCHAR Ucircumflex
ENCODING 219
SWIDTH 666 0
DWIDTH 15 0
BBX 15 30 0 -7
BITMAP
0000
0180
03c0
07e0
0e70
0000
300c
300c
300c
300c
300c
300c
300c
300c
300c
300c
300c
300c
300c
300c
300c
300c
300c
381c
1ff8
0ff0
0000
0000
0000
0000
ENDCHAR
STARTCHAR Udieresis
ENCODING 220
SWIDTH 666 0
DWIDTH 15 0
BBX 15 30 0 -7
BITMAP
0000
0c30
0c30
0c30
0c30
0000
300c
300c
300c
300c
300c
300c
300c
300c
300c
300c
300c
300c
300c
300c
300c
300c
300c
381c
1ff8
0ff0
0000
0000
0000
0000
ENDCHAR
STARTCHAR Yacute
ENCODING 221
SWIDTH 666 0
DWIDTH 15 0
BBX 15 30 0 -7
BITMAP
0000
0070
00e0
01c0
0380
0000
300c
300c
300c
1818
1818
0c30
0c30
0660
0660
03c0
03c0
0180
0180
0180
0180
0180
0180
0180
0180
0180
0000
0000
0000
0000
ENDCHAR
STARTCHAR Thorn
ENCODING 222
SWIDTH 666 0
DWIDTH 15 0
BBX 15 30 0 -7
BITMAP
0000
0000
0000
0000
0000
3000
3000
3000
3000
3ff0
3ff8
301c
300c
300c
300c
300c
300c
300c
301c
3ff8
3ff0
3000
3000
3000
3000
0000
0000
0000
0000
0000
ENDCHAR
STARTCHAR germandbls
ENCODING 223
SWIDTH 666 0
DWIDTH 15 0
BBX 15 30 0 -7
BITMAP
0000
0000
0000
0000
0000
1fe0
3ff0
3038
3018
3018
3018
3018
3030
3ff0
3ff0
3038
301c
300c
300c
300c
300c
380c
3c1c
37f8
33f0
0000
0000
0000
0000
0000
ENDCHAR
STARTCHAR agrave
ENCODING 224
SWIDTH 666 0
DWIDTH 15 0
BBX 15 30 0 -7
BITMAP
0000
0000
0000
0000
0000
0e00
0700
0380
01c0
0000
0000
1ff0
1ff8
001c
000c
000c
0ffc
1ffc
380c
300c
300c
300c
380c
1ffc
0ffc
0000
0000
0000
0000
0000
ENDCHAR
STARTCHAR aacute
ENCODING 225
SWIDTH 666 0
DWIDTH 15 0
BBX 15 30 0 -7
BITMAP
0000
0000
0000
0000
0000
0070
00e0
01c0
0380
0000
0000
1ff0
1ff8
001c
000c
000c
0ffc
1ffc
380c
300c
300c
300c
380c
1ffc
0ffc
0000
0000
0000
0000
0000
ENDCHAR
STARTCHAR acircumflex
ENCODING 226
SWIDTH 666 0
DWIDTH 15 0
BBX 15 30 0 -7
BITMAP
0000
0000
0000
0000
0000
0180
03c0
07e0
0e70
0000
0000
1ff0
1ff8
001c
000c
000c
0ffc
1ffc
380c
300c
300c
300c
380c
1ffc
0ffc
0000
0000
0000
0000
0000
ENDCHAR
STARTCHAR atilde
ENCODING 227
SWIDTH 666 0
DWIDTH 15 0
BBX 15 30 0 -7
BITMAP
0000
0000
0000
0000
0000
0f18
1b98
19d8
18f0
0000
0000
1ff0
1ff8
001c
000c
000c
0ffc
1ffc
380c
300c
300c
300c
380c
1ffc
0ffc
0000
0000
0000
0000
0000
ENDCHAR
STARTCHAR adieresis
ENCODING 228
SWIDTH 666 0
DWIDTH 15 0
BBX 15 30 0 -7
BITMAP
0000
0000
0000
0000
0000
0c30
0c30
0c30
0c30
0000
0000
1ff0
1ff8
001c
000c
000c
0ffc
1ffc
380c
300c
300c
300c
380c
1ffc
0ffc
0000
0000
0000
0000
0000
ENDCHAR
STARTCHAR aring
ENCODING 229
SWIDTH 666 0
DWIDTH 15 0
BBX 15 30 0 -7
BITMAP
0000
0000
0000
0000
0000
03c0
0660
0660
0660
03c0
0000
1ff0
1ff8
001c
000c
000c
0ffc
1ffc
380c
300c
300c
300c
380c
1ffc
0ffc
0000
0000
0000
0000
0000
ENDCHAR
STARTCHAR ae
ENCODING 230
SWIDTH 666 0
DWIDTH 15 0
BBX 15 30 0 -7
BITMAP
0000
0000
0000
0000
0000
0000
0000
0000
0000
0000
0000
3ef8
3ffc
018e
0186
0186
1f86
3ffe
71fe
6180
6180
6180
71c6
3ffe
1f7c
0000
0000
0000
0000
0000
ENDCHAR
STARTCHAR ccedilla
ENCODING 231
SWIDTH 666 0
DWIDTH 15 0
BBX 15 30 0 -7
BITMAP
0000
0000
0000
0000
0000
0000
0000
0000
0000
0000
0000
0ff0
1ff8
381c
300c
3000
3000
3000
3000
3000
3000
300c
381c
1ff8
0ff0
0180
0380
0300
0600
0000
ENDCHAR
STARTCHAR egrave
ENCODING 232
SWIDTH 666 0
DWIDTH 15 0
BBX 15 30 0 -7
BITMAP
0000
0000
0000
0000
0000
0e00
0700
0380
01c0
0000
0000
0ff0
1ff8
381c
300c
300c
300c
3ffc
3ffc
3000
3000
3000
380c
1ffc
0ff8
0000
0000
0000
0000
0000
ENDCHAR
STARTCHAR eacute
ENCODING 233
SWIDTH 666 0
DWIDTH 15 0
BBX 15 30 0 -7
BITMAP
0000
0000
0000
0000
0000
0070
00e0
01c0
0380
0000
0000
0ff0
1ff8
381c
300c
300c
300c
3ffc
3ffc
3000
3000
3000
380c
1ffc
0ff8
0000
0000
0000
0000
0000
ENDCHAR
STARTCHAR ecircumflex
ENCODING 234
SWIDTH 666 0
DWIDTH 15 0
BBX 15 30 0 -7
BITMAP
0000
0000
0000
0000
0000
0180
03c0
07e0
0e70
0000
0000
0ff0
1ff8
381c
300c
300c
300c
3ffc
3ffc
3000
3000
3000
380c
1ffc
0ff8
0000
0000
0000
0000
0000
ENDCHAR
STARTCHAR edieresis
ENCODING 235
SWIDTH 666 0
DWIDTH 15 0
BBX 15 30 0 -7
BITMAP
0000
0000
0000
0000
0000
0c30
0c30
0c30
0c30
0000
0000
0ff0
1ff8
381c
300c
300c
300c
3ffc
3ffc
3000
3000
3000
380c
1ffc
0ff8
0000
0000
0000
0000
0000
ENDCHAR
STARTCHAR igrave
ENCODING 236
SWIDTH 666 0
DWIDTH 15 0
BBX 15 30 0 -7
BITMAP
0000
0000
0000
0000
0000
1c00
0e00
0700
0380
0000
0000
0780
0780
0180
0180
0180
0180
0180
0180
0180
0180
0180
0180
07e0
07e0
0000
0000
0000
0000
0000
ENDCHAR
STARTCHAR iacute
ENCODING 237
SWIDTH 666 0
DWIDTH 15 0
BBX 15 30 0 -7
BITMAP
0000
0000
0000
0000
0000
0070
00e0
01c0
0380
0000
0000
0780
0780
0180
0180
0180
0180
0180
0180
0180
0180
0180
0180
07e0
07e0
0000
0000
0000
0000
0000
ENDCHAR
STARTCHAR icircumflex
ENCODING 238
SWIDTH 666 0
DWIDTH 15 0
BBX 15 30 0 -7
BITMAP
0000
0000
0000
0000
0000
0180
03c0
07e0
0e70
0000
0000
0780
0780
0180
0180
0180
0180
0180
0180
0180
0180
0180
0180
07e0
07e0
0000
0000
0000
0000
0000
ENDCHAR
STARTCHAR idieresis
ENCODING 239
SWIDTH 666 0
DWIDTH 15 0
BBX 15 30 0 -7
BITMAP
0000
0000
0000
0000
0000
0c30
0c30
0c30
0c30
0000
0000
0780
0780
0180
0180
0180
0180
0180
0180
0180
0180
0180
0180
07e0
07e0
0000
0000
0000
0000
0000
ENDCHAR
STARTCHAR eth
ENCODING 240
SWIDTH 666 0
DWIDTH 15 0
BBX 15 30 0 -7
BITMAP
0000
0000
0000
0000
0000
1dc0
0f80
1f00
3b80
01c0
00e0
0ff0
1ff8
381c
300c
300c
300c
300c
300c
300c
300c
300c
381c
1ff8
0ff0
0000
0000
0000
0000
0000
ENDCHAR
STARTCHAR ntilde
ENCODING 241
SWIDTH 666 0
DWIDTH 15 0
BBX 15 30 0 -7
BITMAP
0000
0000
0000
0000
0000
0f18
1b98
19d8
18f0
0000
0000
3ff0
3ff8
301c
300c
300c
300c
300c
300c
300c
300c
300c
300c
300c
300c
0000
0000
0000
0000
0000
ENDCHAR
STARTCHAR ograve
ENCODING 242
SWIDTH 666 0
DWIDTH 15 0
BBX 15 30 0 -7
BITMAP
0000
0000
0000
0000
0000
0e00
0700
0380
01c0
0000
0000
0ff0
1ff8
381c
300c
300c
300c
300c
300c
300c
300c
300c
381c
1ff8
0ff0
0000
0000
0000
0000
0000
ENDCHAR
STARTCHAR oacute
ENCODING 243
SWIDTH 666 0
DWIDTH 15 0
BBX 15 30 0 -7
BITMAP
0000
0000
0000
0000
0000
0070
00e0
01c0
0380
0000
0000
0ff0
1ff8
381c
300c
300c
300c
300c
300c
300c
300c
300c
381c
1ff8
0ff0
0000
0000
0000
0000
0000
ENDCHAR
STARTCHAR ocircumflex
ENCODING 244
SWIDTH 666 0
DWIDTH 15 0
BBX 15 30 0 -7
BITMAP
0000
0000
0000
0000
0000
0180
03c0
07e0
0e70
0000
0000
0ff0
1ff8
381c
300c
300c
300c
300c
300c
300c
300c
300c
381c
1ff8
0ff0
0000
0000
0000
0000
0000
ENDCHAR
STARTCHAR otilde
ENCODING 245
SWIDTH 666 0
DWIDTH 15 0
BBX 15 30 0 -7
BITMAP
0000
0000
0000
0000
0000
0f18
1b98
19d8
18f0
0000
0000
0ff0
1ff8
381c
300c
300c
300c
300c
300c
300c
300c
300c
381c
1ff8
0ff0
0000
0000
0000
0000
0000
ENDCHAR
STARTCHAR odieresis
ENCODING 246
SWIDTH 666 0
DWIDTH 15 0
BBX 15 30 0 -7
BITMAP
0000
0000
0000
0000
0000
0c30
0c30
0c30
0c30
0000
0000
0ff0
1ff8
381c
300c
300c
300c
300c
300c
300c
300c
300c
381c
1ff8
0ff0
0000
0000
0000
0000
0000
ENDCHAR
STARTCHAR divide
ENCODING 247
SWIDTH 666 0
DWIDTH 15 0
BBX 15 30 0 -7
BITMAP
0000
0000
0000
0000
0000
0000
0000
0000
0180
0180
0180
0180
0000
0000
3ffc
3ffc
0000
0000
0180
0180
0180
0180
0000
0000
0000
0000
0000
0000
0000
0000
ENDCHAR
STARTCHAR oslash
ENCODING 248
SWIDTH 666 0
DWIDTH 15 0
BBX 15 30 0 -7
BITMAP
0000
0000
0000
0000
0000
0000
0000
0000
0000
0000
0000
0ff6
1ffe
381c
303c
307c
30ec
31cc
338c
370c
3e0c
3c0c
381c
7ff8
6ff0
0000
0000
0000
0000
0000
ENDCHAR
STARTCHAR ugrave
ENCODING 249
SWIDTH 666 0
DWIDTH 15 0
BBX 15 30 0 -7
BITMAP
0000
0000
0000
0000
0000
0e00
0700
0380
01c0
0000
0000
300c
300c
300c
300c
300c
300c
300c
300c
300c
300c
300c
380c
1ffc
0ffc
0000
0000
0000
0000
0000
ENDCHAR
STARTCHAR uacute
ENCODING 250
SWIDTH 666 0
DWIDTH 15 0
BBX 15 30 0 -7
BITMAP
0000
0000
0000
0000
0000
0070
00e0
01c0
0380
0000
0000
300c
300c
300c
300c
300c
300c
300c
300c
300c
300c
300c
380c
1ffc
0ffc
0000
0000
0000
0000
0000
ENDCHAR
STARTCHAR ucircumflex
ENCODING 251
SWIDTH 666 0
DWIDTH 15 0
BBX 15 30 0 -7
BITMAP
0000
0000
0000
0000
0000
0180
03c0
07e0
0e70
0000
0000
300c
300c
300c
300c
300c
300c
300c
300c
300c
300c
300c
380c
1ffc
0ffc
0000
0000
0000
0000
0000
ENDCHAR
STARTCHAR udieresis
ENCODING 252
SWIDTH 666 0
DWIDTH 15 0
BBX 15 30 0 -7
BITMAP
0000
0000
0000
0000
0000
0c30
0c30
0c30
0c30
0000
0000
300c
300c
300c
300c
300c
300c
300c
300c
300c
300c
300c
380c
1ffc
0ffc
0000
0000
0000
0000
0000
ENDCHAR
STARTCHAR yacute
ENCODING 253
SWIDTH 666 0
DWIDTH 15 0
BBX 15 30 0 -7
BITMAP
0000
0000
0000
0000
0000
0070
00e0
01c0
0380
0000
0000
300c
300c
300c
300c
300c
300c
300c
300c
300c
300c
300c
380c
1ffc
0ffc
000c
001c
1ff8
1ff0
0000
ENDCHAR
STARTCHAR thorn
ENCODING 254
SWIDTH 666 0
DWIDTH 15 0
BBX 15 30 0 -7
BITMAP
0000
0000
0000
0000
0000
3000
3000
3000
3000
3000
3000
3ff0
3ff8
301c
300c
300c
300c
300c
300c
300c
300c
300c
301c
3ff8
3ff0
3000
3000
3000
3000
0000
ENDCHAR
STARTCHAR ydieresis
ENCODING 255
SWIDTH 666 0
DWIDTH 15 0
BBX 15 30 0 -7
BITMAP
0000
0000
0000
0000
0000
0c30
0c30
0c30
0c30
0000
0000
300c
300c
300c
300c
300c
300c
300c
300c
300c
300c
300c
380c
1ffc
0ffc
000c
001c
1ff8
1ff0
0000
ENDCHAR
STARTCHAR Amacron
ENCODING 256
SWIDTH 666 0
DWIDTH 15 0
BBX 15 30 0 -7
BITMAP
0000
0ff0
0ff0
0000
0000
0ff0
1ff8
381c
300c
300c
300c
300c
300c
300c
300c
3ffc
3ffc
300c
300c
300c
300c
300c
300c
300c
300c
0000
0000
0000
0000
0000
ENDCHAR
STARTCHAR amacron
ENCODING 257
SWIDTH 666 0
DWIDTH 15 0
BBX 15 30 0 -7
BITMAP
0000
0000
0000
0000
0000
0000
0000
0ff0
0ff0
0000
0000
1ff0
1ff8
001c
000c
000c
0ffc
1ffc
380c
300c
300c
300c
380c
1ffc
0ffc
0000
0000
0000
0000
0000
ENDCHAR
STARTCHAR Abreve
ENCODING 258
SWIDTH 666 0
DWIDTH 15 0
BBX 15 30 0 -7
BITMAP
0000
0c30
0c30
07e0
03c0
0000
0ff0
1ff8
381c
300c
300c
300c
300c
300c
300c
300c
3ffc
3ffc
300c
300c
300c
300c
300c
300c
300c
300c
0000
0000
0000
0000
ENDCHAR
STARTCHAR abreve
ENCODING 259
SWIDTH 666 0
DWIDTH 15 0
BBX 15 30 0 -7
BITMAP
0000
0000
0000
0000
0000
0c30
0c30
07e0
03c0
0000
0000
1ff0
1ff8
001c
000c
000c
0ffc
1ffc
380c
300c
300c
300c
380c
1ffc
0ffc
0000
0000
0000
0000
0000
ENDCHAR
STARTCHAR Aogonek
ENCODING 260
SWIDTH 666 0
DWIDTH 15 0
BBX 15 30 0 -7
BITMAP
0000
0000
0000
0000
0000
0ff0
1ff8
381c
300c
300c
300c
300c
300c
300c
300c
3ffc
3ffc
300c
300c
300c
300c
300c
300c
300c
300c
003c
0070
0070
003c
003c
ENDCHAR
STARTCHAR aogonek
ENCODING 261
SWIDTH 666 0
DWIDTH 15 0
BBX 15 30 0 -7
BITMAP
0000
0000
0000
0000
0000
0000
0000
0000
0000
0000
0000
1ff0
1ff8
001c
000c
000c
0ffc
1ffc
380c
300c
300c
300c
380c
1ffc
0ffc
003c
0070
0070
003c
003c
ENDCHAR
STARTCHAR Cacute
ENCODING 262
SWIDTH 666 0
DWIDTH 15 0
BBX 15 30 0 -7
BITMAP
0000
0070
00e0
01c0
0380
0000
0ff0
1ff8
381c
300c
300c
3000
3000
3000
3000
3000
3000
3000
3000
3000
3000
300c
300c
381c
1ff8
0ff0
0000
0000
0000
0000
ENDCHAR
STARTCHAR cacute
ENCODING 263
SWIDTH 666 0
DWIDTH 15 0
BBX 15 30 0 -7
BITMAP
0000
0000
0000
0000
0000
0070
00e0
01c0
0380
0000
0000
0ff0
1ff8
381c
300c
3000
3000
3000
3000
3000
3000
300c
381c
1ff8
0ff0
0000
0000
0000
0000
0000
ENDCHAR
STARTCHAR Ccircumflex
ENCODING 264
SWIDTH 666 0
DWIDTH 15 0
BBX 15 30 0 -7
BITMAP
0000
0180
03c0
07e0
0e70
0000
0ff0
1ff8
381c
300c
300c
3000
3000
3000
3000
3000
3000
3000
3000
3000
3000
300c
300c
381c
1ff8
0ff0
0000
0000
0000
0000
ENDCHAR
STARTCHAR ccircumflex
ENCODING 265
SWIDTH 666 0
DWIDTH 15 0
BBX 15 30 0 -7
BITMAP
0000
0000
0000
0000
0000
0180
03c0
07e0
0e70
0000
0000
0ff0
1ff8
381c
300c
3000
3000
3000
3000
3000
3000
300c
381c
1ff8
0ff0
0000
0000
0000
0000
0000
ENDCHAR
STARTCHAR Cdotaccent
ENCODING 266
SWIDTH 666 0
DWIDTH 15 0
BBX 15 30 0 -7
BITMAP
0000
0180
0180
0180
0180
0000
0ff0
1ff8
381c
300c
300c
3000
3000
3000
3000
3000
3000
3000
3000
3000
3000
300c
300c
381c
1ff8
0ff0
0000
0000
0000
0000
ENDCHAR
STARTCHAR cdotaccent
ENCODING 267
SWIDTH 666 0
DWIDTH 15 0
BBX 15 30 0 -7
BITMAP
0000
0000
0000
0000
0000
0180
0180
0180
0180
0000
0000
0ff0
1ff8
381c
300c
3000
3000
3000
3000
3000
3000
300c
381c
1ff8
0ff0
0000
0000
0000
0000
0000
ENDCHAR
STARTCHAR Ccaron
ENCODING 268
SWIDTH 666 0
DWIDTH 15 0
BBX 15 30 0 -7
BITMAP
0000
0e70
07e0
03c0
0180
0000
0ff0
1ff8
381c
300c
300c
3000
3000
3000
3000
3000
3000
3000
3000
3000
3000
300c
300c
381c
1ff8
0ff0
0000
0000
0000
0000
ENDCHAR
STARTCHAR ccaron
ENCODING 269
SWIDTH 666 0
DWIDTH 15 0
BBX 15 30 0 -7
BITMAP
0000
0000
0000
0000
0000
0e70
07e0
03c0
0180
0000
0000
0ff0
1ff8
381c
300c
3000
3000
3000
3000
3000
3000
300c
381c
1ff8
0ff0
0000
0000
0000
0000
0000
ENDCHAR
STARTCHAR Dcaron
ENCODING 270
SWIDTH 666 0
DWIDTH 15 0
BBX 15 30 0 -7
BITMAP
0000
0e70
07e0
03c0
0180
0000
3fc0
3ff0
3038
3018
300c
300c
300c
300c
300c
300c
300c
300c
300c
300c
300c
300c
3018
3038
3ff0
3fc0
0000
0000
0000
0000
ENDCHAR
STARTCHAR dcaron
ENCODING 271
SWIDTH 666 0
DWIDTH 15 0
BBX 15 30 0 -7
BITMAP
0000
0e70
07e0
03c0
0180
0000
000c
000c
000c
000c
000c
000c
0ffc
1ffc
380c
300c
300c
300c
300c
300c
300c
300c
300c
380c
1ffc
0ffc
0000
0000
0000
0000
ENDCHAR
STARTCHAR Dcroat
ENCODING 272
SWIDTH 666 0
DWIDTH 15 0
BBX 15 30 0 -7
BITMAP
0000
0000
0000
0000
0000
3fc0
3ff0
3038
3018
300c
300c
300c
300c
300c
7f8c
7f8c
300c
300c
300c
300c
300c
3018
3038
3ff0
3fc0
0000
0000
0000
0000
0000
ENDCHAR
STARTCHAR dcroat
ENCODING 273
SWIDTH 666 0
DWIDTH 15 0
BBX 15 30 0 -7
BITMAP
0000
0000
0000
0000
0000
0018
0018
03fe
03fe
0018
0018
1ff8
3ff8
7018
6018
6018
6018
6018
6018
6018
6018
6018
7018
3ff8
1ff8
0000
0000
0000
0000
0000
ENDCHAR
STARTCHAR Emacron
ENCODING 274
SWIDTH 666 0
DWIDTH 15 0
BBX 15 30 0 -7
BITMAP
0000
0ff0
0ff0
0000
0000
3ffc
3ffc
3000
3000
3000
3000
3000
3000
3000
3fe0
3fe0
3000
3000
3000
3000
3000
3000
3000
3ffc
3ffc
0000
0000
0000
0000
0000
ENDCHAR
STARTCHAR emacron
ENCODING 275
SWIDTH 666 0
DWIDTH 15 0
BBX 15 30 0 -7
BITMAP
0000
0000
0000
0000
0000
0000
0000
0ff0
0ff0
0000
0000
0ff0
1ff8
381c
300c
300c
300c
3ffc
3ffc
3000
3000
3000
380c
1ffc
0ff8
0000
0000
0000
0000
0000
ENDCHAR
STARTCHAR Ebreve
ENCODING 276
SWIDTH 666 0
DWIDTH 15 0
BBX 15 30 0 -7
BITMAP
0000
0c30
0c30
07e0
03c0
0000
3ffc
3ffc
3000
3000
3000
3000
3000
3000
3000
3fe0
3fe0
3000
3000
3000
3000
3000
3000
3000
3ffc
3ffc
0000
0000
0000
0000
ENDCHAR
STARTCHAR ebreve
ENCODING 277
SWIDTH 666 0
DWIDTH 15 0
BBX 15 30 0 -7
BITMAP
0000
0000
0000
0000
0000
0c30
0c30
07e0
03c0
0000
0000
0ff0
1ff8
381c
300c
300c
300c
3ffc
3ffc
3000
3000
3000
380c
1ffc
0ff8
0000
0000
0000
0000
0000
ENDCHAR
STARTCHAR Edotaccent
ENCODING 278
SWIDTH 666 0
DWIDTH 15 0
BBX 15 30 0 -7
BITMAP
0000
0180
0180
0180
0180
0000
3ffc
3ffc
3000
3000
3000
3000
3000
3000
3000
3fe0
3fe0
3000
3000
3000
3000
3000
3000
3000
3ffc
3ffc
0000
0000
0000
0000
ENDCHAR
STARTCHAR edotaccent
ENCODING 279
SWIDTH 666 0
DWIDTH 15 0
BBX 15 30 0 -7
BITMAP
0000
0000
0000
0000
0000
0180
0180
0180
0180
0000
0000
0ff0
1ff8
381c
300c
300c
300c
3ffc
3ffc
3000
3000
3000
380c
1ffc
0ff8
0000
0000
0000
0000
0000
ENDCHAR
STARTCHAR Eogonek
ENCODING 280
SWIDTH 666 0
DWIDTH 15 0
BBX 15 30 0 -7
BITMAP
0000
0000
0000
0000
0000
3ffc
3ffc
3000
3000
3000
3000
3000
3000
3000
3fe0
3fe0
3000
3000
3000
3000
3000
3000
3000
3ffc
3ffc
003c
0070
0070
003c
003c
ENDCHAR
STARTCHAR eogonek
ENCODING 281
SWIDTH 666 0
DWIDTH 15 0
BBX 15 30 0 -7
BITMAP
0000
0000
0000
0000
0000
0000
0000
0000
0000
0000
0000
0ff0
1ff8
381c
300c
300c
300c
3ffc
3ffc
3000
3000
3000
380c
1ffc
0ff8
01c0
0380
0380
01e0
01e0
ENDCHAR
STARTCHAR Ecaron
ENCODING 282
SWIDTH 666 0
DWIDTH 15 0
BBX 15 30 0 -7
BITMAP
0000
0e70
07e0
03c0
0180
0000
3ffc
3ffc
3000
3000
3000
3000
3000
3000
3000
3fe0
3fe0
3000
3000
3000
3000
3000
3000
3000
3ffc
3ffc
0000
0000
0000
0000
ENDCHAR
STARTCHAR ecaron
ENCODING 283
SWIDTH 666 0
DWIDTH 15 0
BBX 15 30 0 -7
BITMAP
0000
0000
0000
0000
0000
0e70
07e0
03c0
0180
0000
0000
0ff0
1ff8
381c
300c
300c
300c
3ffc
3ffc
3000
3000
3000
380c
1ffc
0ff8
0000
0000
0000
0000
0000
ENDCHAR
STARTCHAR Gcircumflex
ENCODING 284
SWIDTH 666 0
DWIDTH 15 0
BBX 15 30 0 -7
BITMAP
0000
0180
03c0
07e0
0e70
0000
0ff0
1ff8
381c
300c
300c
3000
3000
3000
3000
30fc
30fc
300c
300c
300c
300c
300c
300c
381c
1ff8
0ff0
0000
0000
0000
0000
ENDCHAR
STARTCHAR gcircumflex
ENCODING 285
SWIDTH 666 0
DWIDTH 15 0
BBX 15 30 0 -7
BITMAP
0000
0000
0000
0000
0000
0180
03c0
07e0
0e70
0000
0000
0ffc
1ffc
380c
300c
300c
300c
300c
300c
300c
300c
300c
380c
1ffc
0ffc
000c
001c
1ff8
1ff0
0000
ENDCHAR
STARTCHAR Gbreve
ENCODING 286
SWIDTH 666 0
DWIDTH 15 0
BBX 15 30 0 -7
BITMAP
0000
0c30
0c30
07e0
03c0
0000
0ff0
1ff8
381c
300c
300c
3000
3000
3000
3000
30fc
30fc
300c
300c
300c
300c
300c
300c
381c
1ff8
0ff0
0000
0000
0000
0000
ENDCHAR
STARTCHAR gbreve
ENCODING 287
SWIDTH 666 0
DWIDTH 15 0
BBX 15 30 0 -7
BITMAP
0000
0000
0000
0000
0000
0c30
0c30
07e0
03c0
0000
0000
0ffc
1ffc
380c
300c
300c
300c
300c
300c
300c
300c
300c
380c
1ffc
0ffc
000c
001c
1ff8
1ff0
0000
ENDCHAR
STARTCHAR Gdotaccent
ENCODING 288
SWIDTH 666 0
DWIDTH 15 0
BBX 15 30 0 -7
BITMAP
0000
0180
0180
0180
0180
0000
0ff0
1ff8
381c
300c
300c
3000
3000
3000
3000
30fc
30fc
300c
300c
300c
300c
300c
300c
381c
1ff8
0ff0
0000
0000
0000
0000
ENDCHAR
STARTCHAR gdotaccent
ENCODING 289
SWIDTH 666 0
DWIDTH 15 0
BBX 15 30 0 -7
BITMAP
0000
0000
0000
0000
0000
00c0
00c0
00c0
00c0
0000
0000
0ffc
1ffc
380c
300c
300c
300c
300c
300c
300c
300c
300c
380c
1ffc
0ffc
000c
001c
1ff8
1ff0
0000
ENDCHAR
STARTCHAR Gcommaaccent
ENCODING 290
SWIDTH 666 0
DWIDTH 15 0
BBX 15 30 0 -7
BITMAP
0000
0000
0000
0000
0000
0ff0
1ff8
381c
300c
300c
3000
3000
3000
3000
30fc
30fc
300c
300c
300c
300c
300c
300c
381c
1ff8
0ff0
0000
0180
0180
0300
0600
ENDCHAR
STARTCHAR gcommaaccent
ENCODING 291
SWIDTH 666 0
DWIDTH 15 0
BBX 15 30 0 -7
BITMAP
0000
0000
0000
0000
0000
0030
0060
00e0
00c0
00c0
0000
0ffc
1ffc
380c
300c
300c
300c
300c
300c
300c
300c
300c
380c
1ffc
0ffc
000c
001c
1ff8
1ff0
0000
ENDCHAR
STARTCHAR Hcircumflex
ENCODING 292
SWIDTH 666 0
DWIDTH 15 0
BBX 15 30 0 -7
BITMAP
0000
0180
03c0
07e0
0e70
0000
300c
300c
300c
300c
300c
300c
300c
300c
300c
3ffc
3ffc
300c
300c
300c
300c
300c
300c
300c
300c
300c
0000
0000
0000
0000
ENDCHAR
STARTCHAR hcircumflex
ENCODING 293
SWIDTH 666 0
DWIDTH 15 0
BBX 15 30 0 -7
BITMAP
0000
0180
03c0
07e0
0e70
0000
3000
3000
3000
3000
3000
3000
3ff0
3ff8
301c
300c
300c
300c
300c
300c
300c
300c
300c
300c
300c
300c
0000
0000
0000
0000
ENDCHAR
STARTCHAR Hbar
ENCODING 294
SWIDTH 666 0
DWIDTH 15 0
BBX 15 30 0 -7
BITMAP
0000
0000
0000
0000
0000
3018
3018
3018
7ffc
7ffc
3018
3018
3018
3018
3ff8
3ff8
3018
3018
3018
3018
3018
3018
3018
3018
3018
0000
0000
0000
0000
0000
ENDCHAR
STARTCHAR hbar
ENCODING 295
SWIDTH 666 0
DWIDTH 15 0
BBX 15 30 0 -7
BITMAP
0000
0000
0000
0000
0000
6000
6000
ff00
ff00
6000
6000
7fe0
7ff0
6038
6018
6018
6018
6018
6018
6018
6018
6018
6018
6018
6018
0000
0000
0000
0000
0000
ENDCHAR
STARTCHAR Itilde
ENCODING 296
SWIDTH 666 0
DWIDTH 15 0
BBX 15 30 0 -7
BITMAP
0000
0f18
1b98
19d8
18f0
0000
07e0
07e0
0180
0180
0180
0180
0180
0180
0180
0180
0180
0180
0180
0180
0180
0180
0180
0180
07e0
07e0
0000
0000
0000
0000
ENDCHAR
STARTCHAR itilde
ENCODING 297
SWIDTH 666 0
DWIDTH 15 0
BBX 15 30 0 -7
BITMAP
0000
0000
0000
0000
0000
0f18
1b98
19d8
18f0
0000
0000
0780
0780
0180
0180
0180
0180
0180
0180
0180
0180
0180
0180
07e0
07e0
0000
0000
0000
0000
0000
ENDCHAR
STARTCHAR Imacron
ENCODING 298
SWIDTH 666 0
DWIDTH 15 0
BBX 15 30 0 -7
BITMAP
0000
0ff0
0ff0
0000
0000
07e0
07e0
0180
0180
0180
0180
0180
0180
0180
0180
0180
0180
0180
0180
0180
0180
0180
0180
07e0
07e0
0000
0000
0000
0000
0000
ENDCHAR
STARTCHAR imacron
ENCODING 299
SWIDTH 666 0
DWIDTH 15 0
BBX 15 30 0 -7
BITMAP
0000
0000
0000
0000
0000
0000
0000
0ff0
0ff0
0000
0000
0780
0780
0180
0180
0180
0180
0180
0180
0180
0180
0180
0180
07e0
07e0
0000
0000
0000
0000
0000
ENDCHAR
STARTCHAR Ibreve
ENCODING 300
SWIDTH 666 0
DWIDTH 15 0
BBX 15 30 0 -7
BITMAP
0000
0c30
0c30
07e0
03c0
0000
07e0
07e0
0180
0180
0180
0180
0180
0180
0180
0180
0180
0180
0180
0180
0180
0180
0180
0180
07e0
07e0
0000
0000
0000
0000
ENDCHAR
STARTCHAR ibreve
ENCODING 301
SWIDTH 666 0
DWIDTH 15 0
BBX 15 30 0 -7
BITMAP
0000
0000
0000
0000
0000
0c30
0c30
07e0
03c0
0000
0000
0780
0780
0180
0180
0180
0180
0180
0180
0180
0180
0180
0180
07e0
07e0
0000
0000
0000
0000
0000
ENDCHAR
STARTCHAR Iogonek
ENCODING 302
SWIDTH 666 0
DWIDTH 15 0
BBX 15 30 0 -7
BITMAP
0000
0000
0000
0000
0000
07e0
07e0
0180
0180
0180
0180
0180
0180
0180
0180
0180
0180
0180
0180
0180
0180
0180
0180
07e0
07e0
0180
0380
0380
01e0
01e0
ENDCHAR
STARTCHAR iogonek
ENCODING 303
SWIDTH 666 0
DWIDTH 15 0
BBX 15 30 0 -7
BITMAP
0000
0000
0000
0000
0000
0180
0180
0180
0180
0000
0000
0780
0780
0180
0180
0180
0180
0180
0180
0180
0180
0180
0180
07e0
07e0
0180
0380
0380
01e0
01e0
ENDCHAR
STARTCHAR Idotaccent
ENCODING 304
SWIDTH 666 0
DWIDTH 15 0
BBX 15 30 0 -7
BITMAP
0000
0180
0180
0180
0180
0000
07e0
07e0
0180
0180
0180
0180
0180
0180
0180
0180
0180
0180
0180
0180
0180
0180
0180
0180
07e0
07e0
0000
0000
0000
0000
ENDCHAR
STARTCHAR dotlessi
ENCODING 305
SWIDTH 666 0
DWIDTH 15 0
BBX 15 30 0 -7
BITMAP
0000
0000
0000
0000
0000
0000
0000
0000
0000
0000
0000
0780
0780
0180
0180
0180
0180
0180
0180
0180
0180
0180
0180
07e0
07e0
0000
0000
0000
0000
0000
ENDCHAR
STARTCHAR IJ
ENCODING 306
SWIDTH 666 0
DWIDTH 15 0
BBX 15 30 0 -7
BITMAP
0000
0000
0000
0000
0000
f03c
f03c
6018
6018
6018
6018
6018
6018
6018
6018
6018
6018
6018
6018
6618
6618
6618
6738
f3f0
f1e0
0000
0000
0000
0000
0000
ENDCHAR
STARTCHAR ij
ENCODING 307
SWIDTH 666 0
DWIDTH 15 0
BBX 15 30 0 -7
BITMAP
0000
0000
0000
0000
0000
3006
3006
3006
3006
0000
0000
701e
701e
3006
3006
3006
3006
3006
3006
3006
3006
3006
3006
7806
7806
0186
01ce
00fc
0078
0000
ENDCHAR
STARTCHAR Jcircumflex
ENCODING 308
SWIDTH 666 0
DWIDTH 15 0
BBX 15 30 0 -7
BITMAP
0000
0030
0078
00fc
01ce
0000
00fc
00fc
0030
0030
0030
0030
0030
0030
0030
0030
0030
0030
0030
0030
6030
6030
6030
7070
3fe0
1fc0
0000
0000
0000
0000
ENDCHAR
STARTCHAR jcircumflex
ENCODING 309
SWIDTH 666 0
DWIDTH 15 0
BBX 15 30 0 -7
BITMAP
0000
0000
0000
0000
0000
0030
0078
00fc
01ce
0000
0000
00f0
00f0
0030
0030
0030
0030
0030
0030
0030
0030
0030
0030
0030
0030
3030
3870
1fe0
0fc0
0000
ENDCHAR
STARTCHAR Kcommaaccent
ENCODING 310
SWIDTH 666 0
DWIDTH 15 0
BBX 15 30 0 -7
BITMAP
0000
0000
0000
0000
0000
300c
301c
3038
3070
30e0
31c0
3380
3700
3e00
3c00
3c00
3e00
3700
3380
31c0
30e0
3070
3038
301c
300c
0000
0180
0180
0300
0600
ENDCHAR
STARTCHAR kcommaaccent
ENCODING 311
SWIDTH 666 0
DWIDTH 15 0
BBX 15 30 0 -7
BITMAP
0000
0000
0000
0000
0000
1800
1800
1800
1800
1800
1800
181c
1838
1870
18e0
19c0
1b80
1f00
1f00
1b80
19c0
18e0
1870
1838
181c
0000
0180
0180
0300
0600
ENDCHAR
STARTCHAR kgreenlandic
ENCODING 312
SWIDTH 666 0
DWIDTH 15 0
BBX 15 30 0 -7
BITMAP
0000
0000
0000
0000
0000
0000
0000
0000
0000
0000
0000
181c
1838
1870
18e0
19c0
1b80
1f00
1f00
1b80
19c0
18e0
1870
1838
181c
0000
0000
0000
0000
0000
ENDCHAR
STARTCHAR Lacute
ENCODING 313
SWIDTH 666 0
DWIDTH 15 0
BBX 15 30 0 -7
BITMAP
0000
0700
0e00
1c00
3800
0000
3000
3000
3000
3000
3000
3000
3000
3000
3000
3000
3000
3000
3000
3000
3000
3000
3000
3000
3ffc
3ffc
0000
0000
0000
0000
ENDCHAR
STARTCHAR lacute
ENCODING 314
SWIDTH 666 0
DWIDTH 15 0
BBX 15 30 0 -7
BITMAP
0000
0070
00e0
01c0
0380
0000
0780
0780
0180
0180
0180
0180
0180
0180
0180
0180
0180
0180
0180
0180
0180
0180
0180
0180
07e0
07e0
0000
0000
0000
0000
ENDCHAR
STARTCHAR Lcommaaccent
ENCODING 315
SWIDTH 666 0
DWIDTH 15 0
BBX 15 30 0 -7
BITMAP
0000
0000
0000
0000
0000
3000
3000
3000
3000
3000
3000
3000
3000
3000
3000
3000
3000
3000
3000
3000
3000
3000
3000
3ffc
3ffc
0000
0180
0180
0300
0600
ENDCHAR
STARTCHAR lcommaaccent
ENCODING 316
SWIDTH 666 0
DWIDTH 15 0
BBX 15 30 0 -7
BITMAP
0000
0000
0000
0000
0000
0780
0780
0180
0180
0180
0180
0180
0180
0180
0180
0180
0180
0180
0180
0180
0180
0180
0180
07e0
07e0
0000
0180
0180
0300
0600
ENDCHAR
STARTCHAR Lcaron
ENCODING 317
SWIDTH 666 0
DWIDTH 15 0
BBX 15 30 0 -7
BITMAP
0000
0e70
07e0
03c0
0180
0000
3000
3000
3000
3000
3000
3000
3000
3000
3000
3000
3000
3000
3000
3000
3000
3000
3000
3000
3ffc
3ffc
0000
0000
0000
0000
ENDCHAR
STARTCHAR lcaron
ENCODING 318
SWIDTH 666 0
DWIDTH 15 0
BBX 15 30 0 -7
BITMAP
0000
0e70
07e0
03c0
0180
0000
0780
0780
0180
0180
0180
0180
0180
0180
0180
0180
0180
0180
0180
0180
0180
0180
0180
0180
07e0
07e0
0000
0000
0000
0000
ENDCHAR
STARTCHAR Ldot
ENCODING 319
SWIDTH 666 0
DWIDTH 15 0
BBX 15 30 0 -7
BITMAP
0000
0000
0000
0000
0000
3000
3000
3000
3000
3000
3000
3000
3000
3030
3030
3030
3030
3000
3000
3000
3000
3000
3000
3ffc
3ffc
0000
0000
0000
0000
0000
ENDCHAR
STARTCHAR ldot
ENCODING 320
SWIDTH 666 0
DWIDTH 15 0
BBX 15 30 0 -7
BITMAP
0000
0000
0000
0000
0000
0f00
0f00
0300
0300
0300
0300
0300
0300
0306
0306
0306
0306
0300
0300
0300
0300
0300
0300
0fc0
0fc0
0000
0000
0000
0000
0000
ENDCHAR
STARTCHAR Lslash
ENCODING 321
SWIDTH 666 0
DWIDTH 15 0
BBX 15 30 0 -7
BITMAP
0000
0000
0000
0000
0000
3000
3000
3000
3000
3000
3000
3000
3300
3600
3c00
3800
7000
f000
3000
3000
3000
3000
3000
3ffc
3ffc
0000
0000
0000
0000
0000
ENDCHAR
STARTCHAR lslash
ENCODING 322
SWIDTH 666 0
DWIDTH 15 0
BBX 15 30 0 -7
BITMAP
0000
0000
0000
0000
0000
0780
0780
0180
0180
0180
0180
0180
01b0
01e0
01c0
0380
0780
0d80
0180
0180
0180
0180
0180
07e0
07e0
0000
0000
0000
0000
0000
ENDCHAR
STARTCHAR Nacute
ENCODING 323
SWIDTH 666 0
DWIDTH 15 0
BBX 15 30 0 -7
BITMAP
0000
0070
00e0
01c0
0380
0000
300c
300c
300c
300c
300c
380c
3c0c
3e0c
370c
338c
31cc
30ec
307c
303c
301c
300c
300c
300c
300c
300c
0000
0000
0000
0000
ENDCHAR
STARTCHAR nacute
ENCODING 324
SWIDTH 666 0
DWIDTH 15 0
BBX 15 30 0 -7
BITMAP
0000
0000
0000
0000
0000
0070
00e0
01c0
0380
0000
0000
3ff0
3ff8
301c
300c
300c
300c
300c
300c
300c
300c
300c
300c
300c
300c
0000
0000
0000
0000
0000
ENDCHAR
STARTCHAR Ncommaaccent
ENCODING 325
SWIDTH 666 0
DWIDTH 15 0
BBX 15 30 0 -7
BITMAP
0000
0000
0000
0000
0000
300c
300c
300c
300c
300c
380c
3c0c
3e0c
370c
338c
31cc
30ec
307c
303c
301c
300c
300c
300c
300c
300c
0000
0180
0180
0300
0600
ENDCHAR
STARTCHAR ncommaaccent
ENCODING 326
SWIDTH 666 0
DWIDTH 15 0
BBX 15 30 0 -7
BITMAP
0000
0000
0000
0000
0000
0000
0000
0000
0000
0000
0000
3ff0
3ff8
301c
300c
300c
300c
300c
300c
300c
300c
300c
300c
300c
300c
0000
0180
0180
0300
0600
ENDCHAR
STARTCHAR Ncaron
ENCODING 327
SWIDTH 666 0
DWIDTH 15 0
BBX 15 30 0 -7
BITMAP
0000
0e70
07e0
03c0
0180
0000
300c
300c
300c
300c
300c
380c
3c0c
3e0c
370c
338c
31cc
30ec
307c
303c
301c
300c
300c
300c
300c
300c
0000
0000
0000
0000
ENDCHAR
STARTCHAR ncaron
ENCODING 328
SWIDTH 666 0
DWIDTH 15 0
BBX 15 30 0 -7
BITMAP
0000
0000
0000
0000
0000
0e70
07e0
03c0
0180
0000
0000
3ff0
3ff8
301c
300c
300c
300c
300c
300c
300c
300c
300c
300c
300c
300c
0000
0000
0000
0000
0000
ENDCHAR
STARTCHAR napostrophe
ENCODING 329
SWIDTH 666 0
DWIDTH 15 0
BBX 15 30 0 -7
BITMAP
0000
0000
0000
3000
3000
3000
3000
6000
6000
0000
0000
3ff0
3ff8
301c
300c
300c
300c
300c
300c
300c
300c
300c
300c
300c
300c
0000
0000
0000
0000
0000
ENDCHAR
STARTCHAR Eng
ENCODING 330
SWIDTH 666 0
DWIDTH 15 0
BBX 15 30 0 -7
BITMAP
0000
0000
0000
0000
0000
300c
300c
300c
300c
300c
380c
3c0c
3e0c
370c
338c
31cc
30ec
307c
303c
301c
300c
300c
300c
300c
300c
000c
001c
00f8
00f0
0000
ENDCHAR
STARTCHAR eng
ENCODING 331
SWIDTH 666 0
DWIDTH 15 0
BBX 15 30 0 -7
BITMAP
0000
0000
0000
0000
0000
0000
0000
0000
0000
0000
0000
3ff0
3ff8
301c
300c
300c
300c
300c
300c
300c
300c
300c
300c
300c
300c
000c
001c
00f8
00f0
0000
ENDCHAR
STARTCHAR Omacron
ENCODING 332
SWIDTH 666 0
DWIDTH 15 0
BBX 15 30 0 -7
BITMAP
0000
0ff0
0ff0
0000
0000
0ff0
1ff8
381c
300c
300c
300c
300c
300c
300c
300c
300c
300c
300c
300c
300c
300c
300c
381c
1ff8
0ff0
0000
0000
0000
0000
0000
ENDCHAR
STARTCHAR omacron
ENCODING 333
SWIDTH 666 0
DWIDTH 15 0
BBX 15 30 0 -7
BITMAP
0000
0000
0000
0000
0000
0000
0000
0ff0
0ff0
0000
0000
0ff0
1ff8
381c
300c
300c
300c
300c
300c
300c
300c
300c
381c
1ff8
0ff0
0000
0000
0000
0000
0000
ENDCHAR
STARTCHAR Obreve
ENCODING 334
SWIDTH 666 0
DWIDTH 15 0
BBX 15 30 0 -7
BITMAP
0000
0c30
0c30
07e0
03c0
0000
0ff0
1ff8
381c
300c
300c
300c
300c
300c
300c
300c
300c
300c
300c
300c
300c
300c
300c
381c
1ff8
0ff0
0000
0000
0000
0000
ENDCHAR
STARTCHAR obreve
ENCODING 335
SWIDTH 666 0
DWIDTH 15 0
BBX 15 30 0 -7
BITMAP
0000
0000
0000
0000
0000
0c30
0c30
07e0
03c0
0000
0000
0ff0
1ff8
381c
300c
300c
300c
300c
300c
300c
300c
300c
381c
1ff8
0ff0
0000
0000
0000
0000
0000
ENDCHAR
STARTCHAR Ohungarumlaut
ENCODING 336
SWIDTH 666 0
DWIDTH 15 0
BBX 15 30 0 -7
BITMAP
0000
039c
0738
0e70
1ce0
0000
1fe0
3ff0
7038
6018
6018
6018
6018
6018
6018
6018
6018
6018
6018
6018
6018
6018
6018
7038
3ff0
1fe0
0000
0000
0000
0000
ENDCHAR
STARTCHAR ohungarumlaut
ENCODING 337
SWIDTH 666 0
DWIDTH 15 0
BBX 15 30 0 -7
BITMAP
0000
0000
0000
0000
0000
039c
0738
0e70
1ce0
0000
0000
1fe0
3ff0
7038
6018
6018
6018
6018
6018
6018
6018
6018
7038
3ff0
1fe0
0000
0000
0000
0000
0000
ENDCHAR
STARTCHAR OE
ENCODING 338
SWIDTH 666 0
DWIDTH 15 0
BBX 15 30 0 -7
BITMAP
0000
0000
0000
0000
0000
1ffe
3ffe
7180
6180
6180
6180
6180
6180
6180
61fc
61fc
6180
6180
6180
6180
6180
6180
7180
3ffe
1ffe
0000
0000
0000
0000
0000
ENDCHAR
STARTCHAR oe
ENCODING 339
SWIDTH 666 0
DWIDTH 15 0
BBX 15 30 0 -7
BITMAP
0000
0000
0000
0000
0000
0000
0000
0000
0000
0000
0000
1ff8
3ffc
718e
6186
6186
6186
61fe
61fe
6180
6180
6180
7186
3ffe
1ffc
0000
0000
0000
0000
0000
ENDCHAR
STARTCHAR Racute
ENCODING 340
SWIDTH 666 0
DWIDTH 15 0
BBX 15 30 0 -7
BITMAP
0000
0070
00e0
01c0
0380
0000
3ff0
3ff8
301c
300c
300c
300c
300c
300c
300c
301c
3ff8
3ff0
3700
3380
31c0
30e0
3070
3038
301c
300c
0000
0000
0000
0000
ENDCHAR
STARTCHAR racute
ENCODING 341
SWIDTH 666 0
DWIDTH 15 0
BBX 15 30 0 -7
BITMAP
0000
0000
0000
0000
0000
0070
00e0
01c0
0380
0000
0000
33fc
37fc
3e00
3c00
3800
3000
3000
3000
3000
3000
3000
3000
3000
3000
0000
0000
0000
0000
0000
ENDCHAR
STARTCHAR Rcommaaccent
ENCODING 342
SWIDTH 666 0
DWIDTH 15 0
BBX 15 30 0 -7
BITMAP
0000
0000
0000
0000
0000
3ff0
3ff8
301c
300c
300c
300c
300c
300c
300c
301c
3ff8
3ff0
3700
3380
31c0
30e0
3070
3038
301c
300c
0000
0180
0180
0300
0600
ENDCHAR
STARTCHAR rcommaaccent
ENCODING 343
SWIDTH 666 0
DWIDTH 15 0
BBX 15 30 0 -7
BITMAP
0000
0000
0000
0000
0000
0000
0000
0000
0000
0000
0000
31fc
33fc
3600
3c00
3800
3000
3000
3000
3000
3000
3000
3000
3000
3000
0000
3000
3000
6000
c000
ENDCHAR
STARTCHAR Rcaron
ENCODING 344
SWIDTH 666 0
DWIDTH 15 0
BBX 15 30 0 -7
BITMAP
0000
0e70
07e0
03c0
0180
0000
3ff0
3ff8
301c
300c
300c
300c
300c
300c
300c
301c
3ff8
3ff0
3700
3380
31c0
30e0
3070
3038
301c
300c
0000
0000
0000
0000
ENDCHAR
STARTCHAR rcaron
ENCODING 345
SWIDTH 666 0
DWIDTH 15 0
BBX 15 30 0 -7
BITMAP
0000
0000
0000
0000
0000
0e70
07e0
03c0
0180
0000
0000
33fc
37fc
3e00
3c00
3800
3000
3000
3000
3000
3000
3000
3000
3000
3000
0000
0000
0000
0000
0000
ENDCHAR
STARTCHAR Sacute
ENCODING 346
SWIDTH 666 0
DWIDTH 15 0
BBX 15 30 0 -7
BITMAP
0000
0070
00e0
01c0
0380
0000
0ff0
1ff8
381c
300c
300c
3000
3000
3000
3800
1ff0
0ff8
001c
000c
000c
000c
300c
300c
381c
1ff8
0ff0
0000
0000
0000
0000
ENDCHAR
STARTCHAR sacute
ENCODING 347
SWIDTH 666 0
DWIDTH 15 0
BBX 15 30 0 -7
BITMAP
0000
0000
0000
0000
0000
0070
00e0
01c0
0380
0000
0000
0ff0
1ff8
381c
3000
3000
3800
1ff0
0ff8
001c
000c
000c
381c
1ff8
0ff0
0000
0000
0000
0000
0000
ENDCHAR
STARTCHAR Scircumflex
ENCODING 348
SWIDTH 666 0
DWIDTH 15 0
BBX 15 30 0 -7
BITMAP
0000
0180
03c0
07e0
0e70
0000
0ff0
1ff8
381c
300c
300c
3000
3000
3000
3800
1ff0
0ff8
001c
000c
000c
000c
300c
300c
381c
1ff8
0ff0
0000
0000
0000
0000
ENDCHAR
STARTCHAR scircumflex
ENCODING 349
SWIDTH 666 0
DWIDTH 15 0
BBX 15 30 0 -7
BITMAP
0000
0000
0000
0000
0000
0180
03c0
07e0
0e70
0000
0000
0ff0
1ff8
381c
3000
3000
3800
1ff0
0ff8
001c
000c
000c
381c
1ff8
0ff0
0000
0000
0000
0000
0000
ENDCHAR
STARTCHAR Scedilla
ENCODING 350
SWIDTH 666 0
DWIDTH 15 0
BBX 15 30 0 -7
BITMAP
0000
0000
0000
0000
0000
0ff0
1ff8
381c
300c
300c
3000
3000
3000
3800
1ff0
0ff8
001c
000c
000c
000c
300c
300c
381c
1ff8
0ff0
0180
0380
0300
0600
0000
ENDCHAR
STARTCHAR scedilla
ENCODING 351
SWIDTH 666 0
DWIDTH 15 0
BBX 15 30 0 -7
BITMAP
0000
0000
0000
0000
0000
0000
0000
0000
0000
0000
0000
0ff0
1ff8
381c
3000
3000
3800
1ff0
0ff8
001c
000c
000c
381c
1ff8
0ff0
0180
0380
0300
0600
0000
ENDCHAR
STARTCHAR Scaron
ENCODING 352
SWIDTH 666 0
DWIDTH 15 0
BBX 15 30 0 -7
BITMAP
0000
0e70
07e0
03c0
0180
0000
0ff0
1ff8
381c
300c
300c
3000
3000
3000
3800
1ff0
0ff8
001c
000c
000c
000c
300c
300c
381c
1ff8
0ff0
0000
0000
0000
0000
ENDCHAR
STARTCHAR scaron
ENCODING 353
SWIDTH 666 0
DWIDTH 15 0
BBX 15 30 0 -7
BITMAP
0000
0000
0000
0000
0000
0e70
07e0
03c0
0180
0000
0000
0ff0
1ff8
381c
3000
3000
3800
1ff0
0ff8
001c
000c
000c
381c
1ff8
0ff0
0000
0000
0000
0000
0000
ENDCHAR
STARTCHAR Tcedilla
ENCODING 354
SWIDTH 666 0
DWIDTH 15 0
BBX 15 30 0 -7
BITMAP
0000
0000
0000
0000
0000
3ffc
3ffc
0180
0180
0180
0180
0180
0180
0180
0180
0180
0180
0180
0180
0180
0180
0180
0180
0180
0180
00c0
01c0
0180
0300
0000
ENDCHAR
STARTCHAR tcedilla
ENCODING 355
SWIDTH 666 0
DWIDTH 15 0
BBX 15 30 0 -7
BITMAP
0000
0000
0000
0000
0000
0300
0300
0300
0300
0300
0300
3ff0
3ff0
0300
0300
0300
0300
0300
0300
0300
0300
0300
0380
01fc
00fc
0030
0070
0060
00c0
0000
ENDCHAR
STARTCHAR Tcaron
ENCODING 356
SWIDTH 666 0
DWIDTH 15 0
BBX 15 30 0 -7
BITMAP
0000
0e70
07e0
03c0
0180
0000
3ffc
3ffc
0180
0180
0180
0180
0180
0180
0180
0180
0180
0180
0180
0180
0180
0180
0180
0180
0180
0180
0000
0000
0000
0000
ENDCHAR
STARTCHAR tcaron
ENCODING 357
SWIDTH 666 0
DWIDTH 15 0
BBX 15 30 0 -7
BITMAP
0000
1ce0
0fc0
0780
0300
0000
0300
0300
0300
0300
0300
0300
3ff0
3ff0
0300
0300
0300
0300
0300
0300
0300
0300
0300
0380
01fc
00fc
0000
0000
0000
0000
ENDCHAR
STARTCHAR Tbar
ENCODING 358
SWIDTH 666 0
DWIDTH 15 0
BBX 15 30 0 -7
BITMAP
0000
0000
0000
0000
0000
3ffc
3ffc
0180
0180
0180
0180
0180
0180
0180
0ff0
0ff0
0180
0180
0180
0180
0180
0180
0180
0180
0180
0000
0000
0000
0000
0000
ENDCHAR
STARTCHAR tbar
ENCODING 359
SWIDTH 666 0
DWIDTH 15 0
BBX 15 30 0 -7
BITMAP
0000
0000
0000
0000
0000
0300
0300
0300
0300
0300
0300
3ff0
3ff0
0300
0300
0fc0
0fc0
0300
0300
0300
0300
0300
0380
01fc
00fc
0000
0000
0000
0000
0000
ENDCHAR
STARTCHAR Utilde
ENCODING 360
SWIDTH 666 0
DWIDTH 15 0
BBX 15 30 0 -7
BITMAP
0000
0f18
1b98
19d8
18f0
0000
300c
300c
300c
300c
300c
300c
300c
300c
300c
300c
300c
300c
300c
300c
300c
300c
300c
381c
1ff8
0ff0
0000
0000
0000
0000
ENDCHAR
STARTCHAR utilde
ENCODING 361
SWIDTH 666 0
DWIDTH 15 0
BBX 15 30 0 -7
BITMAP
0000
0000
0000
0000
0000
0f18
1b98
19d8
18f0
0000
0000
300c
300c
300c
300c
300c
300c
300c
300c
300c
300c
300c
380c
1ffc
0ffc
0000
0000
0000
0000
0000
ENDCHAR
STARTCHAR Umacron
ENCODING 362
SWIDTH 666 0
DWIDTH 15 0
BBX 15 30 0 -7
BITMAP
0000
0ff0
0ff0
0000
0000
300c
300c
300c
300c
300c
300c
300c
300c
300c
300c
300c
300c
300c
300c
300c
300c
300c
381c
1ff8
0ff0
0000
0000
0000
0000
0000
ENDCHAR
STARTCHAR umacron
ENCODING 363
SWIDTH 666 0
DWIDTH 15 0
BBX 15 30 0 -7
BITMAP
0000
0000
0000
0000
0000
0000
0000
0ff0
0ff0
0000
0000
300c
300c
300c
300c
300c
300c
300c
300c
300c
300c
300c
380c
1ffc
0ffc
0000
0000
0000
0000
0000
ENDCHAR
STARTCHAR Ubreve
ENCODING 364
SWIDTH 666 0
DWIDTH 15 0
BBX 15 30 0 -7
BITMAP
0000
0c30
0c30
07e0
03c0
0000
300c
300c
300c
300c
300c
300c
300c
300c
300c
300c
300c
300c
300c
300c
300c
300c
300c
381c
1ff8
0ff0
0000
0000
0000
0000
ENDCHAR
STARTCHAR ubreve
ENCODING 365
SWIDTH 666 0
DWIDTH 15 0
BBX 15 30 0 -7
BITMAP
0000
0000
0000
0000
0000
0c30
0c30
07e0
03c0
0000
0000
300c
300c
300c
300c
300c
300c
300c
300c
300c
300c
300c
380c
1ffc
0ffc
0000
0000
0000
0000
0000
ENDCHAR
STARTCHAR Uring
ENCODING 366
SWIDTH 666 0
DWIDTH 15 0
BBX 15 30 0 -7
BITMAP
0000
03c0
0660
0660
0660
03c0
300c
300c
300c
300c
300c
300c
300c
300c
300c
300c
300c
300c
300c
300c
300c
300c
300c
381c
1ff8
0ff0
0000
0000
0000
0000
ENDCHAR
STARTCHAR uring
ENCODING 367
SWIDTH 666 0
DWIDTH 15 0
BBX 15 30 0 -7
BITMAP
0000
0000
0000
0000
0000
03c0
0660
0660
0660
03c0
0000
300c
300c
300c
300c
300c
300c
300c
300c
300c
300c
300c
380c
1ffc
0ffc
0000
0000
0000
0000
0000
ENDCHAR
STARTCHAR Uhungarumlaut
ENCODING 368
SWIDTH 666 0
DWIDTH 15 0
BBX 15 30 0 -7
BITMAP
0000
039c
0738
0e70
1ce0
0000
6018
6018
6018
6018
6018
6018
6018
6018
6018
6018
6018
6018
6018
6018
6018
6018
6018
7038
3ff0
1fe0
0000
0000
0000
0000
ENDCHAR
STARTCHAR uhungarumlaut
ENCODING 369
SWIDTH 666 0
DWIDTH 15 0
BBX 15 30 0 -7
BITMAP
0000
0000
0000
0000
0000
039c
0738
0e70
1ce0
0000
0000
6018
6018
6018
6018
6018
6018
6018
6018
6018
6018
6018
7018
3ff8
1ff8
0000
0000
0000
0000
0000
ENDCHAR
STARTCHAR Uogonek
ENCODING 370
SWIDTH 666 0
DWIDTH 15 0
BBX 15 30 0 -7
BITMAP
0000
0000
0000
0000
0000
300c
300c
300c
300c
300c
300c
300c
300c
300c
300c
300c
300c
300c
300c
300c
300c
300c
381c
1ff8
0ff0
01c0
0380
0380
01e0
01e0
ENDCHAR
STARTCHAR uogonek
ENCODING 371
SWIDTH 666 0
DWIDTH 15 0
BBX 15 30 0 -7
BITMAP
0000
0000
0000
0000
0000
0000
0000
0000
0000
0000
0000
300c
300c
300c
300c
300c
300c
300c
300c
300c
300c
300c
380c
1ffc
0ffc
003c
0070
0070
003c
003c
ENDCHAR
STARTCHAR Wcircumflex
ENCODING 372
SWIDTH 666 0
DWIDTH 15 0
BBX 15 30 0 -7
BITMAP
0000
0180
03c0
07e0
0e70
0000
600c
600c
600c
600c
600c
600c
600c
600c
600c
600c
610c
638c
638c
67cc
6c6c
6c6c
783c
701c
600c
600c
0000
0000
0000
0000
ENDCHAR
STARTCHAR wcircumflex
ENCODING 373
SWIDTH 666 0
DWIDTH 15 0
BBX 15 30 0 -7
BITMAP
0000
0000
0000
0000
0000
0180
03c0
07e0
0e70
0000
0000
300c
300c
300c
300c
318c
318c
318c
318c
318c
318c
318c
399c
1ff8
0ff0
0000
0000
0000
0000
0000
ENDCHAR
STARTCHAR Ycircumflex
ENCODING 374
SWIDTH 666 0
DWIDTH 15 0
BBX 15 30 0 -7
BITMAP
0000
0180
03c0
07e0
0e70
0000
300c
300c
300c
1818
1818
0c30
0c30
0660
0660
03c0
03c0
0180
0180
0180
0180
0180
0180
0180
0180
0180
0000
0000
0000
0000
ENDCHAR
STARTCHAR ycircumflex
ENCODING 375
SWIDTH 666 0
DWIDTH 15 0
BBX 15 30 0 -7
BITMAP
0000
0000
0000
0000
0000
0180
03c0
07e0
0e70
0000
0000
300c
300c
300c
300c
300c
300c
300c
300c
300c
300c
300c
380c
1ffc
0ffc
000c
001c
1ff8
1ff0
0000
ENDCHAR
STARTCHAR Ydieresis
ENCODING 376
SWIDTH 666 0
DWIDTH 15 0
BBX 15 30 0 -7
BITMAP
0000
0c30
0c30
0c30
0c30
0000
300c
300c
300c
1818
1818
0c30
0c30
0660
0660
03c0
03c0
0180
0180
0180
0180
0180
0180
0180
0180
0180
0000
0000
0000
0000
ENDCHAR
STARTCHAR Zacute
ENCODING 377
SWIDTH 666 0
DWIDTH 15 0
BBX 15 30 0 -7
BITMAP
0000
0070
00e0
01c0
0380
0000
3ffc
3ffc
000c
000c
000c
001c
0038
0070
00e0
01c0
0380
0700
0e00
1c00
3800
3000
3000
3000
3ffc
3ffc
0000
0000
0000
0000
ENDCHAR
STARTCHAR zacute
ENCODING 378
SWIDTH 666 0
DWIDTH 15 0
BBX 15 30 0 -7
BITMAP
0000
0000
0000
0000
0000
0070
00e0
01c0
0380
0000
0000
3ffc
3ffc
001c
0038
0070
00e0
01c0
0380
0700
0e00
1c00
3800
3ffc
3ffc
0000
0000
0000
0000
0000
ENDCHAR
STARTCHAR Zdotaccent
ENCODING 379
SWIDTH 666 0
DWIDTH 15 0
BBX 15 30 0 -7
BITMAP
0000
0180
0180
0180
0180
0000
3ffc
3ffc
000c
000c
000c
001c
0038
0070
00e0
01c0
0380
0700
0e00
1c00
3800
3000
3000
3000
3ffc
3ffc
0000
0000
0000
0000
ENDCHAR
STARTCHAR zdotaccent
ENCODING 380
SWIDTH 666 0
DWIDTH 15 0
BBX 15 30 0 -7
BITMAP
0000
0000
0000
0000
0000
0180
0180
0180
0180
0000
0000
3ffc
3ffc
001c
0038
0070
00e0
01c0
0380
0700
0e00
1c00
3800
3ffc
3ffc
0000
0000
0000
0000
0000
ENDCHAR
STARTCHAR Zcaron
ENCODING 381
SWIDTH 666 0
DWIDTH 15 0
BBX 15 30 0 -7
BITMAP
0000
0e70
07e0
03c0
0180
0000
3ffc
3ffc
000c
000c
000c
001c
0038
0070
00e0
01c0
0380
0700
0e00
1c00
3800
3000
3000
3000
3ffc
3ffc
0000
0000
0000
0000
ENDCHAR
STARTCHAR zcaron
ENCODING 382
SWIDTH 666 0
DWIDTH 15 0
BBX 15 30 0 -7
BITMAP
0000
0000
0000
0000
0000
0e70
07e0
03c0
0180
0000
0000
3ffc
3ffc
001c
0038
0070
00e0
01c0
0380
0700
0e00
1c00
3800
3ffc
3ffc
0000
0000
0000
0000
0000
ENDCHAR
STARTCHAR longs
ENCODING 383
SWIDTH 666 0
DWIDTH 15 0
BBX 15 30 0 -7
BITMAP
0000
0000
0000
0000
0000
00fc
01fc
0380
0300
0300
0300
0300
0300
0300
0300
0300
0300
0300
0300
0300
0300
0300
0300
0300
0300
0000
0000
0000
0000
0000
ENDCHAR
STARTCHAR uni0186
ENCODING 390
SWIDTH 666 0
DWIDTH 15 0
BBX 15 30 0 -7
BITMAP
0000
0000
0000
0000
0000
0ff0
1ff8
381c
300c
300c
000c
000c
000c
000c
000c
000c
000c
000c
000c
000c
300c
300c
381c
1ff8
0ff0
0000
0000
0000
0000
0000
ENDCHAR
STARTCHAR uni018E
ENCODING 398
SWIDTH 666 0
DWIDTH 15 0
BBX 15 30 0 -7
BITMAP
0000
0000
0000
0000
0000
3ffc
3ffc
000c
000c
000c
000c
000c
000c
000c
07fc
07fc
000c
000c
000c
000c
000c
000c
000c
3ffc
3ffc
0000
0000
0000
0000
0000
ENDCHAR
STARTCHAR Schwa
ENCODING 399
SWIDTH 666 0
DWIDTH 15 0
BBX 15 30 0 -7
BITMAP
0000
0000
0000
0000
0000
0ff0
1ff8
381c
300c
300c
000c
000c
000c
000c
3ffc
3ffc
300c
300c
300c
300c
300c
300c
381c
1ff8
0ff0
0000
0000
0000
0000
0000
ENDCHAR
STARTCHAR uni0190
ENCODING 400
SWIDTH 666 0
DWIDTH 15 0
BBX 15 30 0 -7
BITMAP
0000
0000
0000
0000
0000
0ff0
1ff8
381c
300c
300c
3000
3000
3000
3800
1fe0
1fe0
3800
3000
3000
3000
300c
300c
381c
1ff8
0ff0
0000
0000
0000
0000
0000
ENDCHAR
STARTCHAR florin
ENCODING 402
SWIDTH 666 0
DWIDTH 15 0
BBX 15 30 0 -7
BITMAP
0000
0000
0000
0000
0000
00f8
01fc
018c
018c
0180
0180
0180
0180
0ff0
0ff0
0180
0180
0180
0180
0180
0180
0180
0180
0180
0180
3180
3180
3f80
1f00
0000
ENDCHAR
STARTCHAR uni019D
ENCODING 413
SWIDTH 666 0
DWIDTH 15 0
BBX 15 30 0 -7
BITMAP
0000
0000
0000
0000
0000
300c
300c
300c
300c
300c
380c
3c0c
3e0c
370c
338c
31cc
30ec
307c
303c
301c
300c
300c
300c
300c
300c
3000
3000
7000
e000
0000
ENDCHAR
STARTCHAR uni019E
ENCODING 414
SWIDTH 666 0
DWIDTH 15 0
BBX 15 30 0 -7
BITMAP
0000
0000
0000
0000
0000
0000
0000
0000
0000
0000
0000
3ff0
3ff8
301c
300c
300c
300c
300c
300c
300c
300c
300c
300c
300c
300c
000c
000c
000c
000c
0000
ENDCHAR
STARTCHAR uni01B5
ENCODING 437
SWIDTH 666 0
DWIDTH 15 0
BBX 15 30 0 -7
BITMAP
0000
0000
0000
0000
0000
3ffc
3ffc
000c
000c
000c
001c
0038
0070
00e0
3ffc
3ffc
0380
0700
0e00
1c00
3800
3000
3000
3ffc
3ffc
0000
0000
0000
0000
0000
ENDCHAR
STARTCHAR uni01B6
ENCODING 438
SWIDTH 666 0
DWIDTH 15 0
BBX 15 30 0 -7
BITMAP
0000
0000
0000
0000
0000
0000
0000
0000
0000
0000
0000
3ffc
3ffc
0038
0070
00e0
01c0
3ff8
3ff8
0700
0e00
1c00
3800
3ffc
3ffc
0000
0000
0000
0000
0000
ENDCHAR
STARTCHAR Ezh
ENCODING 439
SWIDTH 666 0
DWIDTH 15 0
BBX 15 30 0 -7
BITMAP
0000
0000
0000
0000
0000
3ffc
3ffc
001c
0038
0070
00e0
01c0
0380
07f0
07f8
001c
000c
000c
000c
000c
300c
300c
381c
1ff8
0ff0
0000
0000
0000
0000
0000
ENDCHAR
STARTCHAR uni01CD
ENCODING 461
SWIDTH 666 0
DWIDTH 15 0
BBX 15 30 0 -7
BITMAP
0000
0e70
07e0
03c0
0180
0000
0ff0
1ff8
381c
300c
300c
300c
300c
300c
300c
300c
3ffc
3ffc
300c
300c
300c
300c
300c
300c
300c
300c
0000
0000
0000
0000
ENDCHAR
STARTCHAR uni01CE
ENCODING 462
SWIDTH 666 0
DWIDTH 15 0
BBX 15 30 0 -7
BITMAP
0000
0000
0000
0000
0000
0e70
07e0
03c0
0180
0000
0000
1ff0
1ff8
001c
000c
000c
0ffc
1ffc
380c
300c
300c
300c
380c
1ffc
0ffc
0000
0000
0000
0000
0000
ENDCHAR
STARTCHAR uni01CF
ENCODING 463
SWIDTH 666 0
DWIDTH 15 0
BBX 15 30 0 -7
BITMAP
0000
0e70
07e0
03c0
0180
0000
07e0
07e0
0180
0180
0180
0180
0180
0180
0180
0180
0180
0180
0180
0180
0180
0180
0180
0180
07e0
07e0
0000
0000
0000
0000
ENDCHAR
STARTCHAR uni01D0
ENCODING 464
SWIDTH 666 0
DWIDTH 15 0
BBX 15 30 0 -7
BITMAP
0000
0000
0000
0000
0000
0e70
07e0
03c0
0180
0000
0000
0780
0780
0180
0180
0180
0180
0180
0180
0180
0180
0180
0180
07e0
07e0
0000
0000
0000
0000
0000
ENDCHAR
STARTCHAR uni01D1
ENCODING 465
SWIDTH 666 0
DWIDTH 15 0
BBX 15 30 0 -7
BITMAP
0000
0e70
07e0
03c0
0180
0000
0ff0
1ff8
381c
300c
300c
300c
300c
300c
300c
300c
300c
300c
300c
300c
300c
300c
300c
381c
1ff8
0ff0
0000
0000
0000
0000
ENDCHAR
STARTCHAR uni01D2
ENCODING 466
SWIDTH 666 0
DWIDTH 15 0
BBX 15 30 0 -7
BITMAP
0000
0000
0000
0000
0000
0e70
07e0
03c0
0180
0000
0000
0ff0
1ff8
381c
300c
300c
300c
300c
300c
300c
300c
300c
381c
1ff8
0ff0
0000
0000
0000
0000
0000
ENDCHAR
STARTCHAR uni01D3
ENCODING 467
SWIDTH 666 0
DWIDTH 15 0
BBX 15 30 0 -7
BITMAP
0000
0e70
07e0
03c0
0180
0000
300c
300c
300c
300c
300c
300c
300c
300c
300c
300c
300c
300c
300c
300c
300c
300c
300c
381c
1ff8
0ff0
0000
0000
0000
0000
ENDCHAR
STARTCHAR uni01D4
ENCODING 468
SWIDTH 666 0
DWIDTH 15 0
BBX 15 30 0 -7
BITMAP
0000
0000
0000
0000
0000
0e70
07e0
03c0
0180
0000
0000
300c
300c
300c
300c
300c
300c
300c
300c
300c
300c
300c
380c
1ffc
0ffc
0000
0000
0000
0000
0000
ENDCHAR
STARTCHAR uni01E2
ENCODING 482
SWIDTH 666 0
DWIDTH 15 0
BBX 15 30 0 -7
BITMAP
0000
1ff8
1ff8
0000
0000
1ffe
3ffe
7180
6180
6180
6180
6180
6180
6180
7ffc
7ffc
6180
6180
6180
6180
6180
6180
6180
61fe
61fe
0000
0000
0000
0000
0000
ENDCHAR
STARTCHAR uni01E3
ENCODING 483
SWIDTH 666 0
DWIDTH 15 0
BBX 15 30 0 -7
BITMAP
0000
0000
0000
0000
0000
0000
0000
1ff8
1ff8
0000
0000
3ef8
3ffc
018e
0186
0186
1f86
3ffe
71fe
6180
6180
6180
71c6
3ffe
1f7c
0000
0000
0000
0000
0000
ENDCHAR
STARTCHAR uni01E4
ENCODING 484
SWIDTH 666 0
DWIDTH 15 0
BBX 15 30 0 -7
BITMAP
0000
0000
0000
0000
0000
1fe0
3ff0
7038
6018
6018
6000
6000
6000
6000
61f8
61f8
6018
6018
61fe
61fe
6018
6018
7038
3ff0
1fe0
0000
0000
0000
0000
0000
ENDCHAR
STARTCHAR uni01E5
ENCODING 485
SWIDTH 666 0
DWIDTH 15 0
BBX 15 30 0 -7
BITMAP
0000
0000
0000
0000
0000
0000
0000
0000
0000
0000
0000
1ff8
3ff8
7018
6018
6018
6018
61fe
61fe
6018
6018
6018
7018
3ff8
1ff8
0018
0038
3ff0
3fe0
0000
ENDCHAR
STARTCHAR Gcaron
ENCODING 486
SWIDTH 666 0
DWIDTH 15 0
BBX 15 30 0 -7
BITMAP
0000
0e70
07e0
03c0
0180
0000
0ff0
1ff8
381c
300c
300c
3000
3000
3000
3000
30fc
30fc
300c
300c
300c
300c
300c
300c
381c
1ff8
0ff0
0000
0000
0000
0000
ENDCHAR
STARTCHAR gcaron
ENCODING 487
SWIDTH 666 0
DWIDTH 15 0
BBX 15 30 0 -7
BITMAP
0000
0000
0000
0000
0000
0e70
07e0
03c0
0180
0000
0000
0ffc
1ffc
380c
300c
300c
300c
300c
300c
300c
300c
300c
380c
1ffc
0ffc
000c
001c
1ff8
1ff0
0000
ENDCHAR
STARTCHAR uni01E8
ENCODING 488
SWIDTH 666 0
DWIDTH 15 0
BBX 15 30 0 -7
BITMAP
0000
0e70
07e0
03c0
0180
0000
300c
301c
3038
3070
30e0
31c0
3380
3700
3e00
3c00
3c00
3e00
3700
3380
31c0
30e0
3070
3038
301c
300c
0000
0000
0000
0000
ENDCHAR
STARTCHAR uni01E9
ENCODING 489
SWIDTH 666 0
DWIDTH 15 0
BBX 15 30 0 -7
BITMAP
0000
0e70
07e0
03c0
0180
0000
1800
1800
1800
1800
1800
1800
181c
1838
1870
18e0
19c0
1b80
1f00
1f00
1b80
19c0
18e0
1870
1838
181c
0000
0000
0000
0000
ENDCHAR
STARTCHAR uni01EA
ENCODING 490
SWIDTH 666 0
DWIDTH 15 0
BBX 15 30 0 -7
BITMAP
0000
0000
0000
0000
0000
0ff0
1ff8
381c
300c
300c
300c
300c
300c
300c
300c
300c
300c
300c
300c
300c
300c
300c
381c
1ff8
0ff0
01c0
0380
0380
01e0
01e0
ENDCHAR
STARTCHAR uni01EB
ENCODING 491
SWIDTH 666 0
DWIDTH 15 0
BBX 15 30 0 -7
BITMAP
0000
0000
0000
0000
0000
0000
0000
0000
0000
0000
0000
0ff0
1ff8
381c
300c
300c
300c
300c
300c
300c
300c
300c
381c
1ff8
0ff0
01c0
0380
0380
01e0
01e0
ENDCHAR
STARTCHAR uni01EC
ENCODING 492
SWIDTH 666 0
DWIDTH 15 0
BBX 15 30 0 -7
BITMAP
0000
0ff0
0ff0
0000
0000
0ff0
1ff8
381c
300c
300c
300c
300c
300c
300c
300c
300c
300c
300c
300c
300c
300c
300c
381c
1ff8
0ff0
01c0
0380
0380
01e0
01e0
ENDCHAR
STARTCHAR uni01ED
ENCODING 493
SWIDTH 666 0
DWIDTH 15 0
BBX 15 30 0 -7
BITMAP
0000
0000
0000
0000
0000
0000
0000
0ff0
0ff0
0000
0000
0ff0
1ff8
381c
300c
300c
300c
300c
300c
300c
300c
300c
381c
1ff8
0ff0
01c0
0380
0380
01e0
01e0
ENDCHAR
STARTCHAR uni01EE
ENCODING 494
SWIDTH 666 0
DWIDTH 15 0
BBX 15 30 0 -7
BITMAP
0000
0e70
07e0
03c0
0180
0000
3ffc
3ffc
001c
0038
0070
00e0
01c0
0380
07f0
07f8
001c
000c
000c
000c
000c
300c
300c
381c
1ff8
0ff0
0000
0000
0000
0000
ENDCHAR
STARTCHAR uni01EF
ENCODING 495
SWIDTH 666 0
DWIDTH 15 0
BBX 15 30 0 -7
BITMAP
0000
0000
0000
0000
0000
0e70
07e0
03c0
0180
0000
0000
3ffc
3ffc
001c
0038
0070
00e0
01c0
0380
07f0
07f8
001c
000c
000c
000c
300c
381c
1ff8
0ff0
0000
ENDCHAR
STARTCHAR uni01F0
ENCODING 496
SWIDTH 666 0
DWIDTH 15 0
BBX 15 30 0 -7
BITMAP
0000
0000
0000
0000
0000
01ce
00fc
0078
0030
0000
0000
00f0
00f0
0030
0030
0030
0030
0030
0030
0030
0030
0030
0030
0030
0030
3030
3870
1fe0
0fc0
0000
ENDCHAR
STARTCHAR uni01F4
ENCODING 500
SWIDTH 666 0
DWIDTH 15 0
BBX 15 30 0 -7
BITMAP
0000
0070
00e0
01c0
0380
0000
0ff0
1ff8
381c
300c
300c
3000
3000
3000
3000
30fc
30fc
300c
300c
300c
300c
300c
300c
381c
1ff8
0ff0
0000
0000
0000
0000
ENDCHAR
STARTCHAR uni01F5
ENCODING 501
SWIDTH 666 0
DWIDTH 15 0
BBX 15 30 0 -7
BITMAP
0000
0000
0000
0000
0000
0038
0070
00e0
01c0
0000
0000
0ffc
1ffc
380c
300c
300c
300c
300c
300c
300c
300c
300c
380c
1ffc
0ffc
000c
001c
1ff8
1ff0
0000
ENDCHAR
STARTCHAR AEacute
ENCODING 508
SWIDTH 666 0
DWIDTH 15 0
BBX 15 30 0 -7
BITMAP
0000
0038
0070
00e0
01c0
0000
1ffe
3ffe
70c0
60c0
60c0
60c0
60c0
60c0
60c0
7ffc
7ffc
60c0
60c0
60c0
60c0
60c0
60c0
60c0
60fe
60fe
0000
0000
0000
0000
ENDCHAR
STARTCHAR aeacute
ENCODING 509
SWIDTH 666 0
DWIDTH 15 0
BBX 15 30 0 -7
BITMAP
0000
0000
0000
0000
0000
0070
00e0
01c0
0380
0000
0000
3ef8
3ffc
018e
0186
0186
1f86
3ffe
71fe
6180
6180
6180
71c6
3ffe
1f7c
0000
0000
0000
0000
0000
ENDCHAR
STARTCHAR Oslashacute
ENCODING 510
SWIDTH 666 0
DWIDTH 15 0
BBX 15 30 0 -7
BITMAP
0000
0070
00e0
01c0
0380
0000
0ff0
1ff8
381c
300e
300e
301c
303c
307c
30ec
31cc
338c
370c
3e0c
3c0c
380c
700c
700c
381c
1ff8
0ff0
0000
0000
0000
0000
ENDCHAR
STARTCHAR oslashacute
ENCODING 511
SWIDTH 666 0
DWIDTH 15 0
BBX 15 30 0 -7
BITMAP
0000
0000
0000
0000
0000
0070
00e0
01c0
0380
0000
0000
0ff6
1ffe
381c
303c
307c
30ec
31cc
338c
370c
3e0c
3c0c
381c
7ff8
6ff0
0000
0000
0000
0000
0000
ENDCHAR
STARTCHAR Scommaaccent
ENCODING 536
SWIDTH 666 0
DWIDTH 15 0
BBX 15 30 0 -7
BITMAP
0000
0000
0000
0000
0000
0ff0
1ff8
381c
300c
300c
3000
3000
3000
3800
1ff0
0ff8
001c
000c
000c
000c
300c
300c
381c
1ff8
0ff0
0000
0180
0180
0300
0600
ENDCHAR
STARTCHAR scommaaccent
ENCODING 537
SWIDTH 666 0
DWIDTH 15 0
BBX 15 30 0 -7
BITMAP
0000
0000
0000
0000
0000
0000
0000
0000
0000
0000
0000
0ff0
1ff8
381c
3000
3000
3800
1ff0
0ff8
001c
000c
000c
381c
1ff8
0ff0
0000
0180
0180
0300
0600
ENDCHAR
STARTCHAR Tcommaaccent
ENCODING 538
SWIDTH 666 0
DWIDTH 15 0
BBX 15 30 0 -7
BITMAP
0000
0000
0000
0000
0000
3ffc
3ffc
0180
0180
0180
0180
0180
0180
0180
0180
0180
0180
0180
0180
0180
0180
0180
0180
0180
0180
0000
0180
0180
0300
0600
ENDCHAR
STARTCHAR tcommaaccent
ENCODING 539
SWIDTH 666 0
DWIDTH 15 0
BBX 15 30 0 -7
BITMAP
0000
0000
0000
0000
0000
0300
0300
0300
0300
0300
0300
3ff0
3ff0
0300
0300
0300
0300
0300
0300
0300
0300
0300
0380
01fc
00fc
0000
0030
0030
0060
00c0
ENDCHAR
STARTCHAR uni0232
ENCODING 562
SWIDTH 666 0
DWIDTH 15 0
BBX 15 30 0 -7
BITMAP
0000
0ff0
0ff0
0000
0000
300c
300c
300c
1818
1818
0c30
0c30
0660
0660
03c0
03c0
0180
0180
0180
0180
0180
0180
0180
0180
0180
0000
0000
0000
0000
0000
ENDCHAR
STARTCHAR uni0233
ENCODING 563
SWIDTH 666 0
DWIDTH 15 0
BBX 15 30 0 -7
BITMAP
0000
0000
0000
0000
0000
0000
0000
0ff0
0ff0
0000
0000
300c
300c
300c
300c
300c
300c
300c
300c
300c
300c
300c
380c
1ffc
0ffc
000c
001c
1ff8
1ff0
0000
ENDCHAR
STARTCHAR dotlessj
ENCODING 567
SWIDTH 666 0
DWIDTH 15 0
BBX 15 30 0 -7
BITMAP
0000
0000
0000
0000
0000
0000
0000
0000
0000
0000
0000
0078
0078
0018
0018
0018
0018
0018
0018
0018
0018
0018
0018
0018
0018
1818
1c38
0ff0
07e0
0000
ENDCHAR
STARTCHAR uni0254
ENCODING 596
SWIDTH 666 0
DWIDTH 15 0
BBX 15 30 0 -7
BITMAP
0000
0000
0000
0000
0000
0000
0000
0000
0000
0000
0000
0ff0
1ff8
381c
300c
000c
000c
000c
000c
000c
000c
300c
381c
1ff8
0ff0
0000
0000
0000
0000
0000
ENDCHAR
STARTCHAR uni0258
ENCODING 600
SWIDTH 666 0
DWIDTH 15 0
BBX 15 30 0 -7
BITMAP
0000
0000
0000
0000
0000
0000
0000
0000
0000
0000
0000
0ff0
1ff8
381c
300c
300c
300c
3ffc
3ffc
000c
000c
000c
301c
3ff8
1ff0
0000
0000
0000
0000
0000
ENDCHAR
STARTCHAR schwa
ENCODING 601
SWIDTH 666 0
DWIDTH 15 0
BBX 15 30 0 -7
BITMAP
0000
0000
0000
0000
0000
0000
0000
0000
0000
0000
0000
1ff0
3ff8
301c
000c
000c
000c
3ffc
3ffc
300c
300c
300c
381c
1ff8
0ff0
0000
0000
0000
0000
0000
ENDCHAR
STARTCHAR uni025B
ENCODING 603
SWIDTH 666 0
DWIDTH 15 0
BBX 15 30 0 -7
BITMAP
0000
0000
0000
0000
0000
0000
0000
0000
0000
0000
0000
0ff0
1ff8
381c
300c
3000
3800
1fc0
1fc0
3800
3000
300c
381c
1ff8
0ff0
0000
0000
0000
0000
0000
ENDCHAR
STARTCHAR uni0272
ENCODING 626
SWIDTH 666 0
DWIDTH 15 0
BBX 15 30 0 -7
BITMAP
0000
0000
0000
0000
0000
0000
0000
0000
0000
0000
0000
3fe0
3ff0
3038
3018
3018
3018
3018
3018
3018
3018
3018
3018
3018
3018
3000
3000
7000
e000
0000
ENDCHAR
STARTCHAR ezh
ENCODING 658
SWIDTH 666 0
DWIDTH 15 0
BBX 15 30 0 -7
BITMAP
0000
0000
0000
0000
0000
0000
0000
0000
0000
0000
0000
3ffc
3ffc
001c
0038
0070
00e0
01c0
0380
07f0
07f8
001c
000c
000c
000c
300c
381c
1ff8
0ff0
0000
ENDCHAR
STARTCHAR commaturnedmod
ENCODING 699
SWIDTH 666 0
DWIDTH 15 0
BBX 15 30 0 -7
BITMAP
0000
0060
00c0
01c0
0180
0180
0000
0000
0000
0000
0000
0000
0000
0000
0000
0000
0000
0000
0000
0000
0000
0000
0000
0000
0000
0000
0000
0000
0000
0000
ENDCHAR
STARTCHAR afii57929
ENCODING 700
SWIDTH 666 0
DWIDTH 15 0
BBX 15 30 0 -7
BITMAP
0000
0180
0180
0380
0300
0600
0000
0000
0000
0000
0000
0000
0000
0000
0000
0000
0000
0000
0000
0000
0000
0000
0000
0000
0000
0000
0000
0000
0000
0000
ENDCHAR
STARTCHAR afii64937
ENCODING 701
SWIDTH 666 0
DWIDTH 15 0
BBX 15 30 0 -7
BITMAP
0000
0180
0180
01c0
00c0
0060
0000
0000
0000
0000
0000
0000
0000
0000
0000
0000
0000
0000
0000
0000
0000
0000
0000
0000
0000
0000
0000
0000
0000
0000
ENDCHAR
STARTCHAR circumflex
ENCODING 710
SWIDTH 666 0
DWIDTH 15 0
BBX 15 30 0 -7
BITMAP
0000
0180
03c0
07e0
0e70
0000
0000
0000
0000
0000
0000
0000
0000
0000
0000
0000
0000
0000
0000
0000
0000
0000
0000
0000
0000
0000
0000
0000
0000
0000
ENDCHAR
STARTCHAR caron
ENCODING 711
SWIDTH 666 0
DWIDTH 15 0
BBX 15 30 0 -7
BITMAP
0000
0e70
07e0
03c0
0180
0000
0000
0000
0000
0000
0000
0000
0000
0000
0000
0000
0000
0000
0000
0000
0000
0000
0000
0000
0000
0000
0000
0000
0000
0000
ENDCHAR
STARTCHAR breve
ENCODING 728
SWIDTH 666 0
DWIDTH 15 0
BBX 15 30 0 -7
BITMAP
0000
0c30
0c30
07e0
03c0
0000
0000
0000
0000
0000
0000
0000
0000
0000
0000
0000
0000
0000
0000
0000
0000
0000
0000
0000
0000
0000
0000
0000
0000
0000
ENDCHAR
STARTCHAR dotaccent
ENCODING 729
SWIDTH 666 0
DWIDTH 15 0
BBX 15 30 0 -7
BITMAP
0000
0180
0180
0180
0180
0000
0000
0000
0000
0000
0000
0000
0000
0000
0000
0000
0000
0000
0000
0000
0000
0000
0000
0000
0000
0000
0000
0000
0000
0000
ENDCHAR
STARTCHAR ogonek
ENCODING 731
SWIDTH 666 0
DWIDTH 15 0
BBX 15 30 0 -7
BITMAP
0000
0000
0000
0000
0000
0000
0000
0000
0000
0000
0000
0000
0000
0000
0000
0000
0000
0000
0000
0000
0000
0000
0000
0000
0000
01c0
0380
0380
01e0
01e0
ENDCHAR
STARTCHAR tilde
ENCODING 732
SWIDTH 666 0
DWIDTH 15 0
BBX 15 30 0 -7
BITMAP
0000
0f18
1b98
19d8
18f0
0000
0000
0000
0000
0000
0000
0000
0000
0000
0000
0000
0000
0000
0000
0000
0000
0000
0000
0000
0000
0000
0000
0000
0000
0000
ENDCHAR
STARTCHAR hungarumlaut
ENCODING 733
SWIDTH 666 0
DWIDTH 15 0
BBX 15 30 0 -7
BITMAP
0000
039c
0738
0e70
1ce0
0000
0000
0000
0000
0000
0000
0000
0000
0000
0000
0000
0000
0000
0000
0000
0000
0000
0000
0000
0000
0000
0000
0000
0000
0000
ENDCHAR
STARTCHAR gravecomb
ENCODING 768
SWIDTH 666 0
DWIDTH 15 0
BBX 15 30 0 -7
BITMAP
0000
0e00
0700
0380
01c0
0000
0000
0000
0000
0000
0000
0000
0000
0000
0000
0000
0000
0000
0000
0000
0000
0000
0000
0000
0000
0000
0000
0000
0000
0000
ENDCHAR
STARTCHAR acutecomb
ENCODING 769
SWIDTH 666 0
DWIDTH 15 0
BBX 15 30 0 -7
BITMAP
0000
0070
00e0
01c0
0380
0000
0000
0000
0000
0000
0000
0000
0000
0000
0000
0000
0000
0000
0000
0000
0000
0000
0000
0000
0000
0000
0000
0000
0000
0000
ENDCHAR
STARTCHAR uni0302
ENCODING 770
SWIDTH 666 0
DWIDTH 15 0
BBX 15 30 0 -7
BITMAP
0000
0180
03c0
07e0
0e70
0000
0000
0000
0000
0000
0000
0000
0000
0000
0000
0000
0000
0000
0000
0000
0000
0000
0000
0000
0000
0000
0000
0000
0000
0000
ENDCHAR
STARTCHAR tildecomb
ENCODING 771
SWIDTH 666 0
DWIDTH 15 0
BBX 15 30 0 -7
BITMAP
0000
0f18
1b98
19d8
18f0
0000
0000
0000
0000
0000
0000
0000
0000
0000
0000
0000
0000
0000
0000
0000
0000
0000
0000
0000
0000
0000
0000
0000
0000
0000
ENDCHAR
STARTCHAR uni0304
ENCODING 772
SWIDTH 666 0
DWIDTH 15 0
BBX 15 30 0 -7
BITMAP
0000
0ff0
0ff0
0000
0000
0000
0000
0000
0000
0000
0000
0000
0000
0000
0000
0000
0000
0000
0000
0000
0000
0000
0000
0000
0000
0000
0000
0000
0000
0000
ENDCHAR
STARTCHAR uni0305
ENCODING 773
SWIDTH 666 0
DWIDTH 15 0
BBX 15 30 0 -7
BITMAP
0000
3ffc
3ffc
0000
0000
0000
0000
0000
0000
0000
0000
0000
0000
0000
0000
0000
0000
0000
0000
0000
0000
0000
0000
0000
0000
0000
0000
0000
0000
0000
ENDCHAR
STARTCHAR uni0306
ENCODING 774
SWIDTH 666 0
DWIDTH 15 0
BBX 15 30 0 -7
BITMAP
0000
0c30
0c30
07e0
03c0
0000
0000
0000
0000
0000
0000
0000
0000
0000
0000
0000
0000
0000
0000
0000
0000
0000
0000
0000
0000
0000
0000
0000
0000
0000
ENDCHAR
STARTCHAR uni0307
ENCODING 775
SWIDTH 666 0
DWIDTH 15 0
BBX 15 30 0 -7
BITMAP
0000
0180
0180
0180
0180
0000
0000
0000
0000
0000
0000
0000
0000
0000
0000
0000
0000
0000
0000
0000
0000
0000
0000
0000
0000
0000
0000
0000
0000
0000
ENDCHAR
STARTCHAR uni0308
ENCODING 776
SWIDTH 666 0
DWIDTH 15 0
BBX 15 30 0 -7
BITMAP
0000
0c30
0c30
0c30
0c30
0000
0000
0000
0000
0000
0000
0000
0000
0000
0000
0000
0000
0000
0000
0000
0000
0000
0000
0000
0000
0000
0000
0000
0000
0000
ENDCHAR
STARTCHAR uni030A
ENCODING 778
SWIDTH 666 0
DWIDTH 15 0
BBX 15 30 0 -7
BITMAP
0000
03c0
0660
0660
0660
03c0
0000
0000
0000
0000
0000
0000
0000
0000
0000
0000
0000
0000
0000
0000
0000
0000
0000
0000
0000
0000
0000
0000
0000
0000
ENDCHAR
STARTCHAR uni030B
ENCODING 779
SWIDTH 666 0
DWIDTH 15 0
BBX 15 30 0 -7
BITMAP
0000
039c
0738
0e70
1ce0
0000
0000
0000
0000
0000
0000
0000
0000
0000
0000
0000
0000
0000
0000
0000
0000
0000
0000
0000
0000
0000
0000
0000
0000
0000
ENDCHAR
STARTCHAR uni030C
ENCODING 780
SWIDTH 666 0
DWIDTH 15 0
BBX 15 30 0 -7
BITMAP
0000
0e70
07e0
03c0
0180
0000
0000
0000
0000
0000
0000
0000
0000
0000
0000
0000
0000
0000
0000
0000
0000
0000
0000
0000
0000
0000
0000
0000
0000
0000
ENDCHAR
STARTCHAR uni0329
ENCODING 809
SWIDTH 666 0
DWIDTH 15 0
BBX 15 30 0 -7
BITMAP
0000
0000
0000
0000
0000
0000
0000
0000
0000
0000
0000
0000
0000
0000
0000
0000
0000
0000
0000
0000
0000
0000
0000
0000
0000
0000
0180
0180
0180
0000
ENDCHAR
STARTCHAR tonos
ENCODING 900
SWIDTH 666 0
DWIDTH 15 0
BBX 15 30 0 -7
BITMAP
0000
1c00
3800
7000
e000
0000
0000
0000
0000
0000
0000
0000
0000
0000
0000
0000
0000
0000
0000
0000
0000
0000
0000
0000
0000
0000
0000
0000
0000
0000
ENDCHAR
STARTCHAR dieresistonos
ENCODING 901
SWIDTH 666 0
DWIDTH 15 0
BBX 15 30 0 -7
BITMAP
0000
0070
00e0
01c0
0380
0000
0c30
0c30
0c30
0c30
0000
0000
0000
0000
0000
0000
0000
0000
0000
0000
0000
0000
0000
0000
0000
0000
0000
0000
0000
0000
ENDCHAR
STARTCHAR Alphatonos
ENCODING 902
SWIDTH 666 0
DWIDTH 15 0
BBX 15 30 0 -7
BITMAP
0000
1c00
3800
7000
e000
0fe0
1ff0
3838
3018
3018
3018
3018
3018
3018
3018
3ff8
3ff8
3018
3018
3018
3018
3018
3018
3018
3018
0000
0000
0000
0000
0000
ENDCHAR
STARTCHAR anoteleia
ENCODING 903
SWIDTH 666 0
DWIDTH 15 0
BBX 15 30 0 -7
BITMAP
0000
0000
0000
0000
0000
0000
0000
0000
0000
0000
0000
0180
0180
0180
0180
0000
0000
0000
0000
0000
0000
0000
0000
0000
0000
0000
0000
0000
0000
0000
ENDCHAR
STARTCHAR Epsilontonos
ENCODING 904
SWIDTH 666 0
DWIDTH 15 0
BBX 15 30 0 -7
BITMAP
0000
1c00
3800
7000
e000
3ff8
3ff8
3000
3000
3000
3000
3000
3000
3000
3fc0
3fc0
3000
3000
3000
3000
3000
3000
3000
3ff8
3ff8
0000
0000
0000
0000
0000
ENDCHAR
STARTCHAR Etatonos
ENCODING 905
SWIDTH 666 0
DWIDTH 15 0
BBX 15 30 0 -7
BITMAP
0000
1c00
3800
7000
e000
3018
3018
3018
3018
3018
3018
3018
3018
3018
3ff8
3ff8
3018
3018
3018
3018
3018
3018
3018
3018
3018
0000
0000
0000
0000
0000
ENDCHAR
STARTCHAR Iotatonos
ENCODING 906
SWIDTH 666 0
DWIDTH 15 0
BBX 15 30 0 -7
BITMAP
0000
1c00
3800
7000
e000
07e0
07e0
0180
0180
0180
0180
0180
0180
0180
0180
0180
0180
0180
0180
0180
0180
0180
0180
07e0
07e0
0000
0000
0000
0000
0000
ENDCHAR
STARTCHAR Omicrontonos
ENCODING 908
SWIDTH 666 0
DWIDTH 15 0
BBX 15 30 0 -7
BITMAP
0000
1c00
3800
7000
e000
0fe0
1ff0
3838
3018
3018
3018
3018
3018
3018
3018
3018
3018
3018
3018
3018
3018
3018
3838
1ff0
0fe0
0000
0000
0000
0000
0000
ENDCHAR
STARTCHAR Upsilontonos
ENCODING 910
SWIDTH 666 0
DWIDTH 15 0
BBX 15 30 0 -7
BITMAP
0000
1c00
3800
7000
e000
300c
300c
300c
1818
1818
0c30
0c30
0660
0660
03c0
03c0
0180
0180
0180
0180
0180
0180
0180
0180
0180
0000
0000
0000
0000
0000
ENDCHAR
STARTCHAR Omegatonos
ENCODING 911
SWIDTH 666 0
DWIDTH 15 0
BBX 15 30 0 -7
BITMAP
0000
1c00
3800
7000
e000
0ff0
1ff8
381c
300c
300c
300c
300c
300c
300c
300c
300c
300c
300c
381c
1c38
0e70
0660
0660
3e7c
3e7c
0000
0000
0000
0000
0000
ENDCHAR
STARTCHAR iotadieresistonos
ENCODING 912
SWIDTH 666 0
DWIDTH 15 0
BBX 15 30 0 -7
BITMAP
0000
00e0
01c0
0380
0700
0000
1860
1860
1860
1860
0000
0000
0f00
0f00
0300
0300
0300
0300
0300
0300
0300
0300
0300
0380
01f0
00f0
0000
0000
0000
0000
ENDCHAR
STARTCHAR Alpha
ENCODING 913
SWIDTH 666 0
DWIDTH 15 0
BBX 15 30 0 -7
BITMAP
0000
0000
0000
0000
0000
0ff0
1ff8
381c
300c
300c
300c
300c
300c
300c
300c
3ffc
3ffc
300c
300c
300c
300c
300c
300c
300c
300c
0000
0000
0000
0000
0000
ENDCHAR
STARTCHAR Beta
ENCODING 914
SWIDTH 666 0
DWIDTH 15 0
BBX 15 30 0 -7
BITMAP
0000
0000
0000
0000
0000
3ff0
3ff8
301c
300c
300c
300c
300c
3018
3ff0
3ff0
3038
301c
300c
300c
300c
300c
300c
301c
3ff8
3ff0
0000
0000
0000
0000
0000
ENDCHAR
STARTCHAR Gamma
ENCODING 915
SWIDTH 666 0
DWIDTH 15 0
BBX 15 30 0 -7
BITMAP
0000
0000
0000
0000
0000
3ffc
3ffc
3000
3000
3000
3000
3000
3000
3000
3000
3000
3000
3000
3000
3000
3000
3000
3000
3000
3000
0000
0000
0000
0000
0000
ENDCHAR
STARTCHAR Delta
ENCODING 916
SWIDTH 666 0
DWIDTH 15 0
BBX 15 30 0 -7
BITMAP
0000
0000
0000
0000
0000
0180
0180
0180
03c0
03c0
03c0
0660
0660
0660
0c30
0c30
0c30
1818
1818
1818
300c
300c
300c
3ffc
3ffc
0000
0000
0000
0000
0000
ENDCHAR
STARTCHAR Epsilon
ENCODING 917
SWIDTH 666 0
DWIDTH 15 0
BBX 15 30 0 -7
BITMAP
0000
0000
0000
0000
0000
3ffc
3ffc
3000
3000
3000
3000
3000
3000
3000
3fe0
3fe0
3000
3000
3000
3000
3000
3000
3000
3ffc
3ffc
0000
0000
0000
0000
0000
ENDCHAR
STARTCHAR Zeta
ENCODING 918
SWIDTH 666 0
DWIDTH 15 0
BBX 15 30 0 -7
BITMAP
0000
0000
0000
0000
0000
3ffc
3ffc
000c
000c
000c
001c
0038
0070
00e0
01c0
0380
0700
0e00
1c00
3800
3000
3000
3000
3ffc
3ffc
0000
0000
0000
0000
0000
ENDCHAR
STARTCHAR Eta
ENCODING 919
SWIDTH 666 0
DWIDTH 15 0
BBX 15 30 0 -7
BITMAP
0000
0000
0000
0000
0000
300c
300c
300c
300c
300c
300c
300c
300c
300c
3ffc
3ffc
300c
300c
300c
300c
300c
300c
300c
300c
300c
0000
0000
0000
0000
0000
ENDCHAR
STARTCHAR Theta
ENCODING 920
SWIDTH 666 0
DWIDTH 15 0
BBX 15 30 0 -7
BITMAP
0000
0000
0000
0000
0000
0ff0
1ff8
381c
300c
300c
300c
300c
300c
300c
37ec
37ec
300c
300c
300c
300c
300c
300c
381c
1ff8
0ff0
0000
0000
0000
0000
0000
ENDCHAR
STARTCHAR Iota
ENCODING 921
SWIDTH 666 0
DWIDTH 15 0
BBX 15 30 0 -7
BITMAP
0000
0000
0000
0000
0000
07e0
07e0
0180
0180
0180
0180
0180
0180
0180
0180
0180
0180
0180
0180
0180
0180
0180
0180
07e0
07e0
0000
0000
0000
0000
0000
ENDCHAR
STARTCHAR Kappa
ENCODING 922
SWIDTH 666 0
DWIDTH 15 0
BBX 15 30 0 -7
BITMAP
0000
0000
0000
0000
0000
300c
301c
3038
3070
30e0
31c0
3380
3700
3e00
3c00
3c00
3e00
3700
3380
31c0
30e0
3070
3038
301c
300c
0000
0000
0000
0000
0000
ENDCHAR
STARTCHAR Lambda
ENCODING 923
SWIDTH 666 0
DWIDTH 15 0
BBX 15 30 0 -7
BITMAP
0000
0000
0000
0000
0000
0180
0180
0180
03c0
03c0
03c0
0660
0660
0660
0c30
0c30
0c30
1818
1818
1818
1818
300c
300c
300c
300c
0000
0000
0000
0000
0000
ENDCHAR
STARTCHAR Mu
ENCODING 924
SWIDTH 666 0
DWIDTH 15 0
BBX 15 30 0 -7
BITMAP
0000
0000
0000
0000
0000
600c
600c
701c
783c
6c6c
6c6c
67cc
638c
638c
610c
600c
600c
600c
600c
600c
600c
600c
600c
600c
600c
0000
0000
0000
0000
0000
ENDCHAR
STARTCHAR Nu
ENCODING 925
SWIDTH 666 0
DWIDTH 15 0
BBX 15 30 0 -7
BITMAP
0000
0000
0000
0000
0000
300c
300c
300c
300c
300c
380c
3c0c
3e0c
370c
338c
31cc
30ec
307c
303c
301c
300c
300c
300c
300c
300c
0000
0000
0000
0000
0000
ENDCHAR
STARTCHAR Xi
ENCODING 926
SWIDTH 666 0
DWIDTH 15 0
BBX 15 30 0 -7
BITMAP
0000
0000
0000
0000
0000
3ffc
3ffc
0000
0000
0000
0000
0000
0000
0000
0ff0
0ff0
0000
0000
0000
0000
0000
0000
0000
3ffc
3ffc
0000
0000
0000
0000
0000
ENDCHAR
STARTCHAR Omicron
ENCODING 927
SWIDTH 666 0
DWIDTH 15 0
BBX 15 30 0 -7
BITMAP
0000
0000
0000
0000
0000
0ff0
1ff8
381c
300c
300c
300c
300c
300c
300c
300c
300c
300c
300c
300c
300c
300c
300c
381c
1ff8
0ff0
0000
0000
0000
0000
0000
ENDCHAR
STARTCHAR Pi
ENCODING 928
SWIDTH 666 0
DWIDTH 15 0
BBX 15 30 0 -7
BITMAP
0000
0000
0000
0000
0000
3ffc
3ffc
300c
300c
300c
300c
300c
300c
300c
300c
300c
300c
300c
300c
300c
300c
300c
300c
300c
300c
0000
0000
0000
0000
0000
ENDCHAR
STARTCHAR Rho
ENCODING 929
SWIDTH 666 0
DWIDTH 15 0
BBX 15 30 0 -7
BITMAP
0000
0000
0000
0000
0000
3ff0
3ff8
301c
300c
300c
300c
300c
300c
300c
301c
3ff8
3ff0
3000
3000
3000
3000
3000
3000
3000
3000
0000
0000
0000
0000
0000
ENDCHAR
STARTCHAR Sigma
ENCODING 931
SWIDTH 666 0
DWIDTH 15 0
BBX 15 30 0 -7
BITMAP
0000
0000
0000
0000
0000
3ffc
3ffc
3800
1c00
0e00
0700
0380
01c0
00e0
0070
0070
00e0
01c0
0380
0700
0e00
1c00
3800
3ffc
3ffc
0000
0000
0000
0000
0000
ENDCHAR
STARTCHAR Tau
ENCODING 932
SWIDTH 666 0
DWIDTH 15 0
BBX 15 30 0 -7
BITMAP
0000
0000
0000
0000
0000
3ffc
3ffc
0180
0180
0180
0180
0180
0180
0180
0180
0180
0180
0180
0180
0180
0180
0180
0180
0180
0180
0000
0000
0000
0000
0000
ENDCHAR
STARTCHAR Upsilon
ENCODING 933
SWIDTH 666 0
DWIDTH 15 0
BBX 15 30 0 -7
BITMAP
0000
0000
0000
0000
0000
300c
300c
300c
1818
1818
0c30
0c30
0660
0660
03c0
03c0
0180
0180
0180
0180
0180
0180
0180
0180
0180
0000
0000
0000
0000
0000
ENDCHAR
STARTCHAR Phi
ENCODING 934
SWIDTH 666 0
DWIDTH 15 0
BBX 15 30 0 -7
BITMAP
0000
0000
0000
0000
0000
0180
0180
0ff0
1ff8
399c
318c
318c
318c
318c
318c
318c
318c
318c
318c
318c
399c
1ff8
0ff0
0180
0180
0000
0000
0000
0000
0000
ENDCHAR
STARTCHAR Chi
ENCODING 935
SWIDTH 666 0
DWIDTH 15 0
BBX 15 30 0 -7
BITMAP
0000
0000
0000
0000
0000
300c
300c
1818
1818
0c30
0c30
0660
0660
03c0
03c0
03c0
03c0
0660
0660
0c30
0c30
1818
1818
300c
300c
0000
0000
0000
0000
0000
ENDCHAR
STARTCHAR Psi
ENCODING 936
SWIDTH 666 0
DWIDTH 15 0
BBX 15 30 0 -7
BITMAP
0000
0000
0000
0000
0000
318c
318c
318c
318c
318c
318c
318c
318c
318c
318c
318c
318c
318c
399c
1ff8
0ff0
0180
0180
0180
0180
0000
0000
0000
0000
0000
ENDCHAR
STARTCHAR Omega
ENCODING 937
SWIDTH 666 0
DWIDTH 15 0
BBX 15 30 0 -7
BITMAP
0000
0000
0000
0000
0000
0ff0
1ff8
381c
300c
300c
300c
300c
300c
300c
300c
300c
300c
300c
381c
1c38
0e70
0660
0660
3e7c
3e7c
0000
0000
0000
0000
0000
ENDCHAR
STARTCHAR Iotadieresis
ENCODING 938
SWIDTH 666 0
DWIDTH 15 0
BBX 15 30 0 -7
BITMAP
0000
0c30
0c30
0c30
0c30
0000
07e0
07e0
0180
0180
0180
0180
0180
0180
0180
0180
0180
0180
0180
0180
0180
0180
0180
0180
07e0
07e0
0000
0000
0000
0000
ENDCHAR
STARTCHAR Upsilondieresis
ENCODING 939
SWIDTH 666 0
DWIDTH 15 0
BBX 15 30 0 -7
BITMAP
0000
0c30
0c30
0c30
0c30
0000
300c
300c
300c
1818
1818
0c30
0c30
0660
0660
03c0
03c0
0180
0180
0180
0180
0180
0180
0180
0180
0180
0000
0000
0000
0000
ENDCHAR
STARTCHAR alphatonos
ENCODING 940
SWIDTH 666 0
DWIDTH 15 0
BBX 15 30 0 -7
BITMAP
0000
0000
0000
0000
0000
0070
00e0
01c0
0380
0000
0000
1fcc
3ffc
7038
6030
6030
6030
6030
6030
6030
6030
6030
7038
3ffc
1fcc
0000
0000
0000
0000
0000
ENDCHAR
STARTCHAR epsilontonos
ENCODING 941
SWIDTH 666 0
DWIDTH 15 0
BBX 15 30 0 -7
BITMAP
0000
0000
0000
0000
0000
0070
00e0
01c0
0380
0000
0000
0ff0
1ff8
381c
300c
3000
3800
1fc0
1fc0
3800
3000
300c
381c
1ff8
0ff0
0000
0000
0000
0000
0000
ENDCHAR
STARTCHAR etatonos
ENCODING 942
SWIDTH 666 0
DWIDTH 15 0
BBX 15 30 0 -7
BITMAP
0000
0000
0000
0000
0000
0070
00e0
01c0
0380
0000
0000
3ff0
3ff8
301c
300c
300c
300c
300c
300c
300c
300c
300c
300c
300c
300c
000c
000c
000c
000c
0000
ENDCHAR
STARTCHAR iotatonos
ENCODING 943
SWIDTH 666 0
DWIDTH 15 0
BBX 15 30 0 -7
BITMAP
0000
0000
0000
0000
0000
00e0
01c0
0380
0700
0000
0000
0f00
0f00
0300
0300
0300
0300
0300
0300
0300
0300
0300
0380
01f0
00f0
0000
0000
0000
0000
0000
ENDCHAR
STARTCHAR upsilondieresistonos
ENCODING 944
SWIDTH 666 0
DWIDTH 15 0
BBX 15 30 0 -7
BITMAP
0000
0070
00e0
01c0
0380
0000
0c30
0c30
0c30
0c30
0000
0000
300c
300c
300c
300c
300c
300c
300c
300c
300c
300c
300c
381c
1ff8
0ff0
0000
0000
0000
0000
ENDCHAR
STARTCHAR alpha
ENCODING 945
SWIDTH 666 0
DWIDTH 15 0
BBX 15 30 0 -7
BITMAP
0000
0000
0000
0000
0000
0000
0000
0000
0000
0000
0000
1fcc
3ffc
7038
6030
6030
6030
6030
6030
6030
6030
6030
7038
3ffc
1fcc
0000
0000
0000
0000
0000
ENDCHAR
STARTCHAR beta
ENCODING 946
SWIDTH 666 0
DWIDTH 15 0
BBX 15 30 0 -7
BITMAP
0000
0000
0000
0000
0000
1fe0
3ff0
3038
3018
3018
3018
3018
3030
3ff0
3ff0
3038
301c
300c
300c
300c
300c
300c
301c
3ff8
3ff0
3000
3000
3000
3000
0000
ENDCHAR
STARTCHAR gamma
ENCODING 947
SWIDTH 666 0
DWIDTH 15 0
BBX 15 30 0 -7
BITMAP
0000
0000
0000
0000
0000
0000
0000
0000
0000
0000
0000
300c
300c
300c
1818
1818
1818
0c30
0c30
0660
0660
03c0
03c0
0180
0180
0180
0180
0180
0180
0000
ENDCHAR
STARTCHAR delta
ENCODING 948
SWIDTH 666 0
DWIDTH 15 0
BBX 15 30 0 -7
BITMAP
0000
0000
0000
0000
0000
1ff0
1ff0
0e00
0700
0380
01c0
07e0
0ff0
1818
300c
300c
300c
300c
300c
300c
300c
300c
381c
1ff8
0ff0
0000
0000
0000
0000
0000
ENDCHAR
STARTCHAR epsilon
ENCODING 949
SWIDTH 666 0
DWIDTH 15 0
BBX 15 30 0 -7
BITMAP
0000
0000
0000
0000
0000
0000
0000
0000
0000
0000
0000
0ff0
1ff8
381c
300c
3000
3800
1fc0
1fc0
3800
3000
300c
381c
1ff8
0ff0
0000
0000
0000
0000
0000
ENDCHAR
STARTCHAR zeta
ENCODING 950
SWIDTH 666 0
DWIDTH 15 0
BBX 15 30 0 -7
BITMAP
0000
0000
0000
0000
0000
3ffc
3ffc
0038
0070
00e0
01c0
0380
0700
0e00
1c00
1800
3800
3000
3000
3000
3000
3000
3800
1ff0
0ff8
001c
000c
001c
0078
0000
ENDCHAR
STARTCHAR eta
ENCODING 951
SWIDTH 666 0
DWIDTH 15 0
BBX 15 30 0 -7
BITMAP
0000
0000
0000
0000
0000
0000
0000
0000
0000
0000
0000
3ff0
3ff8
301c
300c
300c
300c
300c
300c
300c
300c
300c
300c
300c
300c
000c
000c
000c
000c
0000
ENDCHAR
STARTCHAR theta
ENCODING 952
SWIDTH 666 0
DWIDTH 15 0
BBX 15 30 0 -7
BITMAP
0000
0000
0000
0000
0000
07e0
0ff0
1c38
1818
1818
1818
1818
1818
1818
1ff8
1ff8
1818
1818
1818
1818
1818
1818
1c38
0ff0
07e0
0000
0000
0000
0000
0000
ENDCHAR
STARTCHAR iota
ENCODING 953
SWIDTH 666 0
DWIDTH 15 0
BBX 15 30 0 -7
BITMAP
0000
0000
0000
0000
0000
0000
0000
0000
0000
0000
0000
0f00
0f00
0300
0300
0300
0300
0300
0300
0300
0300
0300
0380
01f0
00f0
0000
0000
0000
0000
0000
ENDCHAR
STARTCHAR kappa
ENCODING 954
SWIDTH 666 0
DWIDTH 15 0
BBX 15 30 0 -7
BITMAP
0000
0000
0000
0000
0000
0000
0000
0000
0000
0000
0000
181c
1838
1870
18e0
19c0
1b80
1f00
1f00
1b80
19c0
18e0
1870
1838
181c
0000
0000
0000
0000
0000
ENDCHAR
STARTCHAR lambda
ENCODING 955
SWIDTH 666 0
DWIDTH 15 0
BBX 15 30 0 -7
BITMAP
0000
0000
0000
0000
0000
0600
0600
0300
0300
0180
0180
03c0
03c0
0660
0660
0660
0c30
0c30
0c30
1818
1818
1818
300c
300c
300c
0000
0000
0000
0000
0000
ENDCHAR
STARTCHAR mugreek
ENCODING 956
SWIDTH 666 0
DWIDTH 15 0
BBX 15 30 0 -7
BITMAP
0000
0000
0000
0000
0000
0000
0000
0000
0000
0000
0000
300c
300c
300c
300c
300c
300c
300c
300c
300c
301c
303c
307c
3fec
3fcc
3000
3000
3000
3000
0000
ENDCHAR
STARTCHAR nu
ENCODING 957
SWIDTH 666 0
DWIDTH 15 0
BBX 15 30 0 -7
BITMAP
0000
0000
0000
0000
0000
0000
0000
0000
0000
0000
0000
300c
300c
300c
1818
1818
1818
0c30
0c30
0c30
0660
0660
03c0
03c0
03c0
0000
0000
0000
0000
0000
ENDCHAR
STARTCHAR xi
ENCODING 958
SWIDTH 666 0
DWIDTH 15 0
BBX 15 30 0 -7
BITMAP
0000
0000
0000
0000
0000
0ffc
1ffc
3800
3000
3000
3000
3000
1800
0ff0
0ff0
1c00
3800
3000
3000
3000
3000
3000
3800
1ff0
0ff8
001c
000c
001c
0078
0000
ENDCHAR
STARTCHAR omicron
ENCODING 959
SWIDTH 666 0
DWIDTH 15 0
BBX 15 30 0 -7
BITMAP
0000
0000
0000
0000
0000
0000
0000
0000
0000
0000
0000
0ff0
1ff8
381c
300c
300c
300c
300c
300c
300c
300c
300c
381c
1ff8
0ff0
0000
0000
0000
0000
0000
ENDCHAR
STARTCHAR pi
ENCODING 960
SWIDTH 666 0
DWIDTH 15 0
BBX 15 30 0 -7
BITMAP
0000
0000
0000
0000
0000
0000
0000
0000
0000
0000
0000
3ffc
3ffc
300c
300c
300c
300c
300c
300c
300c
300c
300c
300c
300c
300c
0000
0000
0000
0000
0000
ENDCHAR
STARTCHAR rho
ENCODING 961
SWIDTH 666 0
DWIDTH 15 0
BBX 15 30 0 -7
BITMAP
0000
0000
0000
0000
0000
0000
0000
0000
0000
0000
0000
0ff0
1ff8
381c
300c
300c
300c
300c
300c
300c
300c
300c
301c
3ff8
3ff0
3000
3000
3000
3000
0000
ENDCHAR
STARTCHAR sigma1
ENCODING 962
SWIDTH 666 0
DWIDTH 15 0
BBX 15 30 0 -7
BITMAP
0000
0000
0000
0000
0000
0000
0000
0000
0000
0000
0000
0ff0
1ff8
381c
300c
3000
3000
3000
3000
3000
3000
3000
3800
1ff0
0ff8
001c
000c
001c
0078
0000
ENDCHAR
STARTCHAR sigma
ENCODING 963
SWIDTH 666 0
DWIDTH 15 0
BBX 15 30 0 -7
BITMAP
0000
0000
0000
0000
0000
0000
0000
0000
0000
0000
0000
1ffc
3ffc
70e0
6070
6038
6018
6018
6018
6018
6018
6018
7038
3ff0
1fe0
0000
0000
0000
0000
0000
ENDCHAR
STARTCHAR tau
ENCODING 964
SWIDTH 666 0
DWIDTH 15 0
BBX 15 30 0 -7
BITMAP
0000
0000
0000
0000
0000
0000
0000
0000
0000
0000
0000
3ffc
3ffc
0180
0180
0180
0180
0180
0180
0180
0180
0180
01c0
00f8
0078
0000
0000
0000
0000
0000
ENDCHAR
STARTCHAR upsilon
ENCODING 965
SWIDTH 666 0
DWIDTH 15 0
BBX 15 30 0 -7
BITMAP
0000
0000
0000
0000
0000
0000
0000
0000
0000
0000
0000
300c
300c
300c
300c
300c
300c
300c
300c
300c
300c
300c
381c
1ff8
0ff0
0000
0000
0000
0000
0000
ENDCHAR
STARTCHAR phi
ENCODING 966
SWIDTH 666 0
DWIDTH 15 0
BBX 15 30 0 -7
BITMAP
0000
0000
0000
0000
0000
0000
0000
0000
0000
0000
0000
0cf0
1df8
399c
318c
318c
318c
318c
318c
318c
318c
318c
399c
1ff8
0ff0
0180
0180
0180
0180
0000
ENDCHAR
STARTCHAR chi
ENCODING 967
SWIDTH 666 0
DWIDTH 15 0
BBX 15 30 0 -7
BITMAP
0000
0000
0000
0000
0000
0000
0000
0000
0000
0000
0000
300c
300c
1818
1818
0c30
0c30
0660
0660
03c0
03c0
03c0
0660
0660
0c30
0c30
1818
1818
300c
0000
ENDCHAR
STARTCHAR psi
ENCODING 968
SWIDTH 666 0
DWIDTH 15 0
BBX 15 30 0 -7
BITMAP
0000
0000
0000
0000
0000
0000
0000
0000
0000
0000
0000
318c
318c
318c
318c
318c
318c
318c
318c
318c
318c
318c
399c
1ff8
0ff0
0180
0180
0180
0180
0000
ENDCHAR
STARTCHAR omega
ENCODING 969
SWIDTH 666 0
DWIDTH 15 0
BBX 15 30 0 -7
BITMAP
0000
0000
0000
0000
0000
0000
0000
0000
0000
0000
0000
0c30
1c38
381c
300c
318c
318c
318c
318c
318c
318c
318c
3bdc
1ff8
0e70
0000
0000
0000
0000
0000
ENDCHAR
STARTCHAR iotadieresis
ENCODING 970
SWIDTH 666 0
DWIDTH 15 0
BBX 15 30 0 -7
BITMAP
0000
0000
0000
0000
0000
1860
1860
1860
1860
0000
0000
0f00
0f00
0300
0300
0300
0300
0300
0300
0300
0300
0300
0380
01f0
00f0
0000
0000
0000
0000
0000
ENDCHAR
STARTCHAR upsilondieresis
ENCODING 971
SWIDTH 666 0
DWIDTH 15 0
BBX 15 30 0 -7
BITMAP
0000
0000
0000
0000
0000
0c30
0c30
0c30
0c30
0000
0000
300c
300c
300c
300c
300c
300c
300c
300c
300c
300c
300c
381c
1ff8
0ff0
0000
0000
0000
0000
0000
ENDCHAR
STARTCHAR omicrontonos
ENCODING 972
SWIDTH 666 0
DWIDTH 15 0
BBX 15 30 0 -7
BITMAP
0000
0000
0000
0000
0000
0070
00e0
01c0
0380
0000
0000
0ff0
1ff8
381c
300c
300c
300c
300c
300c
300c
300c
300c
381c
1ff8
0ff0
0000
0000
0000
0000
0000
ENDCHAR
STARTCHAR upsilontonos
ENCODING 973
SWIDTH 666 0
DWIDTH 15 0
BBX 15 30 0 -7
BITMAP
0000
0000
0000
0000
0000
0070
00e0
01c0
0380
0000
0000
300c
300c
300c
300c
300c
300c
300c
300c
300c
300c
300c
381c
1ff8
0ff0
0000
0000
0000
0000
0000
ENDCHAR
STARTCHAR omegatonos
ENCODING 974
SWIDTH 666 0
DWIDTH 15 0
BBX 15 30 0 -7
BITMAP
0000
0000
0000
0000
0000
0070
00e0
01c0
0380
0000
0000
0c30
1c38
381c
300c
318c
318c
318c
318c
318c
318c
318c
3bdc
1ff8
0e70
0000
0000
0000
0000
0000
ENDCHAR
STARTCHAR theta1
ENCODING 977
SWIDTH 666 0
DWIDTH 15 0
BBX 15 30 0 -7
BITMAP
0000
0000
0000
0000
0000
07c0
0fe0
1c70
1830
1830
1830
1830
0ffc
07fc
0030
0030
0030
7830
7830
1830
1830
1830
1c70
0fe0
07c0
0000
0000
0000
0000
0000
ENDCHAR
STARTCHAR phi1
ENCODING 981
SWIDTH 666 0
DWIDTH 15 0
BBX 15 30 0 -7
BITMAP
0000
0000
0000
0000
0000
0000
0000
0000
0180
0180
0180
0ff0
1ff8
399c
318c
318c
318c
318c
318c
318c
318c
318c
399c
1ff8
0ff0
0180
0180
0180
0000
0000
ENDCHAR
STARTCHAR uni03F0
ENCODING 1008
SWIDTH 666 0
DWIDTH 15 0
BBX 15 30 0 -7
BITMAP
0000
0000
0000
0000
0000
0000
0000
0000
0000
0000
0000
780c
7c1c
0e38
0670
03e0
03c0
0380
0380
0780
0f80
1cc0
38e0
707c
603c
0000
0000
0000
0000
0000
ENDCHAR
STARTCHAR uni03F1
ENCODING 1009
SWIDTH 666 0
DWIDTH 15 0
BBX 15 30 0 -7
BITMAP
0000
0000
0000
0000
0000
0000
0000
0000
0000
0000
0000
0ff0
1ff8
381c
300c
300c
300c
300c
300c
300c
300c
300c
301c
3ff8
3ff0
3000
3800
1ff8
0ff8
0000
ENDCHAR
STARTCHAR uni03F2
ENCODING 1010
SWIDTH 666 0
DWIDTH 15 0
BBX 15 30 0 -7
BITMAP
0000
0000
0000
0000
0000
0000
0000
0000
0000
0000
0000
0ff0
1ff8
381c
300c
3000
3000
3000
3000
3000
3000
300c
381c
1ff8
0ff0
0000
0000
0000
0000
0000
ENDCHAR
STARTCHAR uni03F3
ENCODING 1011
SWIDTH 666 0
DWIDTH 15 0
BBX 15 30 0 -7
BITMAP
0000
0000
0000
0000
0000
0018
0018
0018
0018
0000
0000
0078
0078
0018
0018
0018
0018
0018
0018
0018
0018
0018
0018
0018
0018
1818
1c38
0ff0
07e0
0000
ENDCHAR
STARTCHAR uni03F4
ENCODING 1012
SWIDTH 666 0
DWIDTH 15 0
BBX 15 30 0 -7
BITMAP
0000
0000
0000
0000
0000
0ff0
1ff8
381c
300c
300c
300c
300c
300c
300c
3ffc
3ffc
300c
300c
300c
300c
300c
300c
381c
1ff8
0ff0
0000
0000
0000
0000
0000
ENDCHAR
STARTCHAR uni03F5
ENCODING 1013
SWIDTH 666 0
DWIDTH 15 0
BBX 15 30 0 -7
BITMAP
0000
0000
0000
0000
0000
0000
0000
0000
0000
0000
0000
03fc
0ffc
1c00
1800
3000
3000
3ff0
3ff0
3000
3000
1800
1c00
0ffc
03fc
0000
0000
0000
0000
0000
ENDCHAR
STARTCHAR uni03F6
ENCODING 1014
SWIDTH 666 0
DWIDTH 15 0
BBX 15 30 0 -7
BITMAP
0000
0000
0000
0000
0000
0000
0000
0000
0000
0000
0000
3fc0
3ff0
0038
0018
000c
000c
0ffc
0ffc
000c
000c
0018
0038
3ff0
3fc0
0000
0000
0000
0000
0000
ENDCHAR
STARTCHAR uni0400
ENCODING 1024
SWIDTH 666 0
DWIDTH 15 0
BBX 15 30 0 -7
BITMAP
0000
0e00
0700
0380
01c0
0000
3ffc
3ffc
3000
3000
3000
3000
3000
3000
3000
3fe0
3fe0
3000
3000
3000
3000
3000
3000
3000
3ffc
3ffc
0000
0000
0000
0000
ENDCHAR
STARTCHAR afii10023
ENCODING 1025
SWIDTH 666 0
DWIDTH 15 0
BBX 15 30 0 -7
BITMAP
0000
0c30
0c30
0c30
0c30
0000
3ffc
3ffc
3000
3000
3000
3000
3000
3000
3000
3fe0
3fe0
3000
3000
3000
3000
3000
3000
3000
3ffc
3ffc
0000
0000
0000
0000
ENDCHAR
STARTCHAR afii10051
ENCODING 1026
SWIDTH 666 0
DWIDTH 15 0
BBX 15 30 0 -7
BITMAP
0000
0000
0000
0000
0000
fe00
fe00
3000
3000
3000
3000
3000
3fe0
3ff0
3038
3018
3018
3018
3018
3018
3018
3018
3038
31f0
31e0
0000
0000
0000
0000
0000
ENDCHAR
STARTCHAR afii10052
ENCODING 1027
SWIDTH 666 0
DWIDTH 15 0
BBX 15 30 0 -7
BITMAP
0000
0070
00e0
01c0
0380
0000
3ffc
3ffc
3000
3000
3000
3000
3000
3000
3000
3000
3000
3000
3000
3000
3000
3000
3000
3000
3000
3000
0000
0000
0000
0000
ENDCHAR
STARTCHAR afii10053
ENCODING 1028
SWIDTH 666 0
DWIDTH 15 0
BBX 15 30 0 -7
BITMAP
0000
0000
0000
0000
0000
0ff0
1ff8
381c
300c
300c
3000
3000
3000
3000
3fe0
3fe0
3000
3000
3000
3000
300c
300c
381c
1ff8
0ff0
0000
0000
0000
0000
0000
ENDCHAR
STARTCHAR afii10054
ENCODING 1029
SWIDTH 666 0
DWIDTH 15 0
BBX 15 30 0 -7
BITMAP
0000
0000
0000
0000
0000
0ff0
1ff8
381c
300c
300c
3000
3000
3000
3800
1ff0
0ff8
001c
000c
000c
000c
300c
300c
381c
1ff8
0ff0
0000
0000
0000
0000
0000
ENDCHAR
STARTCHAR afii10055
ENCODING 1030
SWIDTH 666 0
DWIDTH 15 0
BBX 15 30 0 -7
BITMAP
0000
0000
0000
0000
0000
07e0
07e0
0180
0180
0180
0180
0180
0180
0180
0180
0180
0180
0180
0180
0180
0180
0180
0180
07e0
07e0
0000
0000
0000
0000
0000
ENDCHAR
STARTCHAR afii10056
ENCODING 1031
SWIDTH 666 0
DWIDTH 15 0
BBX 15 30 0 -7
BITMAP
0000
0c30
0c30
0c30
0c30
0000
07e0
07e0
0180
0180
0180
0180
0180
0180
0180
0180
0180
0180
0180
0180
0180
0180
0180
0180
07e0
07e0
0000
0000
0000
0000
ENDCHAR
STARTCHAR afii10057
ENCODING 1032
SWIDTH 666 0
DWIDTH 15 0
BBX 15 30 0 -7
BITMAP
0000
0000
0000
0000
0000
00fc
00fc
0030
0030
0030
0030
0030
0030
0030
0030
0030
0030
0030
0030
6030
6030
6030
7070
3fe0
1fc0
0000
0000
0000
0000
0000
ENDCHAR
STARTCHAR afii10058
ENCODING 1033
SWIDTH 666 0
DWIDTH 15 0
BBX 15 30 0 -7
BITMAP
0000
0000
0000
0000
0000
3f00
3f00
7300
6300
6300
6300
6300
63f0
63f8
631c
630c
630c
630c
630c
630c
630c
630c
631c
e3f8
c3f0
0000
0000
0000
0000
0000
ENDCHAR
STARTCHAR afii10059
ENCODING 1034
SWIDTH 666 0
DWIDTH 15 0
BBX 15 30 0 -7
BITMAP
0000
0000
0000
0000
0000
6180
6180
6180
6180
6180
6180
6180
61f8
61fc
7f8e
7f86
6186
6186
6186
6186
6186
6186
618e
61fc
61f8
0000
0000
0000
0000
0000
ENDCHAR
STARTCHAR afii10060
ENCODING 1035
SWIDTH 666 0
DWIDTH 15 0
BBX 15 30 0 -7
BITMAP
0000
0000
0000
0000
0000
fe00
fe00
3000
3000
3000
3000
3000
3fe0
3ff0
3038
3018
3018
3018
3018
3018
3018
3018
3018
3018
3018
0000
0000
0000
0000
0000
ENDCHAR
STARTCHAR afii10061
ENCODING 1036
SWIDTH 666 0
DWIDTH 15 0
BBX 15 30 0 -7
BITMAP
0000
0070
00e0
01c0
0380
0000
300c
301c
3038
3070
30e0
31c0
3380
3700
3e00
3c00
3c00
3e00
3700
3380
31c0
30e0
3070
3038
301c
300c
0000
0000
0000
0000
ENDCHAR
STARTCHAR uni040D
ENCODING 1037
SWIDTH 666 0
DWIDTH 15 0
BBX 15 30 0 -7
BITMAP
0000
0e00
0700
0380
01c0
0000
300c
300c
300c
300c
300c
301c
303c
307c
30ec
31cc
338c
370c
3e0c
3c0c
380c
300c
300c
300c
300c
300c
0000
0000
0000
0000
ENDCHAR
STARTCHAR afii10062
ENCODING 1038
SWIDTH 666 0
DWIDTH 15 0
BBX 15 30 0 -7
BITMAP
0000
0c30
0c30
07e0
03c0
0000
300c
300c
300c
300c
300c
300c
300c
300c
300c
380c
1ffc
0ffc
000c
000c
000c
000c
000c
001c
1ff8
1ff0
0000
0000
0000
0000
ENDCHAR
STARTCHAR afii10145
ENCODING 1039
SWIDTH 666 0
DWIDTH 15 0
BBX 15 30 0 -7
BITMAP
0000
0000
0000
0000
0000
300c
300c
300c
300c
300c
300c
300c
300c
300c
300c
300c
300c
300c
300c
300c
300c
300c
300c
3ffc
3ffc
0180
0180
0180
0180
0000
ENDCHAR
STARTCHAR afii10017
ENCODING 1040
SWIDTH 666 0
DWIDTH 15 0
BBX 15 30 0 -7
BITMAP
0000
0000
0000
0000
0000
0ff0
1ff8
381c
300c
300c
300c
300c
300c
300c
300c
3ffc
3ffc
300c
300c
300c
300c
300c
300c
300c
300c
0000
0000
0000
0000
0000
ENDCHAR
STARTCHAR afii10018
ENCODING 1041
SWIDTH 666 0
DWIDTH 15 0
BBX 15 30 0 -7
BITMAP
0000
0000
0000
0000
0000
3ff8
3ff8
3000
3000
3000
3000
3000
3ff0
3ff8
301c
300c
300c
300c
300c
300c
300c
300c
301c
3ff8
3ff0
0000
0000
0000
0000
0000
ENDCHAR
STARTCHAR afii10019
ENCODING 1042
SWIDTH 666 0
DWIDTH 15 0
BBX 15 30 0 -7
BITMAP
0000
0000
0000
0000
0000
3ff0
3ff8
301c
300c
300c
300c
300c
3018
3ff0
3ff0
3038
301c
300c
300c
300c
300c
300c
301c
3ff8
3ff0
0000
0000
0000
0000
0000
ENDCHAR
STARTCHAR afii10020
ENCODING 1043
SWIDTH 666 0
DWIDTH 15 0
BBX 15 30 0 -7
BITMAP
0000
0000
0000
0000
0000
3ffc
3ffc
3000
3000
3000
3000
3000
3000
3000
3000
3000
3000
3000
3000
3000
3000
3000
3000
3000
3000
0000
0000
0000
0000
0000
ENDCHAR
STARTCHAR afii10021
ENCODING 1044
SWIDTH 666 0
DWIDTH 15 0
BBX 15 30 0 -7
BITMAP
0000
0000
0000
0000
0000
07f0
0ff0
1c30
1830
1830
1830
1830
1830
1830
1830
1830
1830
1830
1830
1830
1830
1830
1830
3ff8
7ffc
600c
600c
600c
600c
0000
ENDCHAR
STARTCHAR afii10022
ENCODING 1045
SWIDTH 666 0
DWIDTH 15 0
BBX 15 30 0 -7
BITMAP
0000
0000
0000
0000
0000
3ffc
3ffc
3000
3000
3000
3000
3000
3000
3000
3fe0
3fe0
3000
3000
3000
3000
3000
3000
3000
3ffc
3ffc
0000
0000
0000
0000
0000
ENDCHAR
STARTCHAR afii10024
ENCODING 1046
SWIDTH 666 0
DWIDTH 15 0
BBX 15 30 0 -7
BITMAP
0000
0000
0000
0000
0000
318c
318c
318c
318c
318c
318c
399c
1db8
0ff0
07e0
0ff0
1db8
399c
318c
318c
318c
318c
318c
318c
318c
0000
0000
0000
0000
0000
ENDCHAR
STARTCHAR afii10025
ENCODING 1047
SWIDTH 666 0
DWIDTH 15 0
BBX 15 30 0 -7
BITMAP
0000
0000
0000
0000
0000
0ff0
1ff8
381c
300c
300c
000c
000c
000c
001c
07f8
07f8
001c
000c
000c
000c
300c
300c
381c
1ff8
0ff0
0000
0000
0000
0000
0000
ENDCHAR
STARTCHAR afii10026
ENCODING 1048
SWIDTH 666 0
DWIDTH 15 0
BBX 15 30 0 -7
BITMAP
0000
0000
0000
0000
0000
300c
300c
300c
300c
300c
301c
303c
307c
30ec
31cc
338c
370c
3e0c
3c0c
380c
300c
300c
300c
300c
300c
0000
0000
0000
0000
0000
ENDCHAR
STARTCHAR afii10027
ENCODING 1049
SWIDTH 666 0
DWIDTH 15 0
BBX 15 30 0 -7
BITMAP
0000
0c30
0c30
07e0
03c0
0000
300c
300c
300c
300c
300c
301c
303c
307c
30ec
31cc
338c
370c
3e0c
3c0c
380c
300c
300c
300c
300c
300c
0000
0000
0000
0000
ENDCHAR
STARTCHAR afii10028
ENCODING 1050
SWIDTH 666 0
DWIDTH 15 0
BBX 15 30 0 -7
BITMAP
0000
0000
0000
0000
0000
300c
301c
3038
3070
30e0
31c0
3380
3700
3e00
3c00
3c00
3e00
3700
3380
31c0
30e0
3070
3038
301c
300c
0000
0000
0000
0000
0000
ENDCHAR
STARTCHAR afii10029
ENCODING 1051
SWIDTH 666 0
DWIDTH 15 0
BBX 15 30 0 -7
BITMAP
0000
0000
0000
0000
0000
03fc
07fc
0e0c
0c0c
0c0c
0c0c
0c0c
0c0c
0c0c
0c0c
0c0c
0c0c
0c0c
0c0c
0c0c
0c0c
0c0c
0c0c
1c0c
380c
0000
0000
0000
0000
0000
ENDCHAR
STARTCHAR afii10030
ENCODING 1052
SWIDTH 666 0
DWIDTH 15 0
BBX 15 30 0 -7
BITMAP
0000
0000
0000
0000
0000
600c
600c
701c
783c
6c6c
6c6c
67cc
638c
638c
610c
600c
600c
600c
600c
600c
600c
600c
600c
600c
600c
0000
0000
0000
0000
0000
ENDCHAR
STARTCHAR afii10031
ENCODING 1053
SWIDTH 666 0
DWIDTH 15 0
BBX 15 30 0 -7
BITMAP
0000
0000
0000
0000
0000
300c
300c
300c
300c
300c
300c
300c
300c
300c
3ffc
3ffc
300c
300c
300c
300c
300c
300c
300c
300c
300c
0000
0000
0000
0000
0000
ENDCHAR
STARTCHAR afii10032
ENCODING 1054
SWIDTH 666 0
DWIDTH 15 0
BBX 15 30 0 -7
BITMAP
0000
0000
0000
0000
0000
0ff0
1ff8
381c
300c
300c
300c
300c
300c
300c
300c
300c
300c
300c
300c
300c
300c
300c
381c
1ff8
0ff0
0000
0000
0000
0000
0000
ENDCHAR
STARTCHAR afii10033
ENCODING 1055
SWIDTH 666 0
DWIDTH 15 0
BBX 15 30 0 -7
BITMAP
0000
0000
0000
0000
0000
3ffc
3ffc
300c
300c
300c
300c
300c
300c
300c
300c
300c
300c
300c
300c
300c
300c
300c
300c
300c
300c
0000
0000
0000
0000
0000
ENDCHAR
STARTCHAR afii10034
ENCODING 1056
SWIDTH 666 0
DWIDTH 15 0
BBX 15 30 0 -7
BITMAP
0000
0000
0000
0000
0000
3ff0
3ff8
301c
300c
300c
300c
300c
300c
300c
301c
3ff8
3ff0
3000
3000
3000
3000
3000
3000
3000
3000
0000
0000
0000
0000
0000
ENDCHAR
STARTCHAR afii10035
ENCODING 1057
SWIDTH 666 0
DWIDTH 15 0
BBX 15 30 0 -7
BITMAP
0000
0000
0000
0000
0000
0ff0
1ff8
381c
300c
300c
3000
3000
3000
3000
3000
3000
3000
3000
3000
3000
300c
300c
381c
1ff8
0ff0
0000
0000
0000
0000
0000
ENDCHAR
STARTCHAR afii10036
ENCODING 1058
SWIDTH 666 0
DWIDTH 15 0
BBX 15 30 0 -7
BITMAP
0000
0000
0000
0000
0000
3ffc
3ffc
0180
0180
0180
0180
0180
0180
0180
0180
0180
0180
0180
0180
0180
0180
0180
0180
0180
0180
0000
0000
0000
0000
0000
ENDCHAR
STARTCHAR afii10037
ENCODING 1059
SWIDTH 666 0
DWIDTH 15 0
BBX 15 30 0 -7
BITMAP
0000
0000
0000
0000
0000
300c
300c
300c
300c
300c
300c
300c
300c
300c
380c
1ffc
0ffc
000c
000c
000c
000c
000c
001c
1ff8
1ff0
0000
0000
0000
0000
0000
ENDCHAR
STARTCHAR afii10038
ENCODING 1060
SWIDTH 666 0
DWIDTH 15 0
BBX 15 30 0 -7
BITMAP
0000
0000
0000
0180
0180
0ff0
1ff8
399c
318c
318c
318c
318c
318c
318c
318c
318c
318c
318c
318c
318c
318c
318c
399c
1ff8
0ff0
0180
0180
0000
0000
0000
ENDCHAR
STARTCHAR afii10039
ENCODING 1061
SWIDTH 666 0
DWIDTH 15 0
BBX 15 30 0 -7
BITMAP
0000
0000
0000
0000
0000
300c
300c
1818
1818
0c30
0c30
0660
0660
03c0
03c0
03c0
03c0
0660
0660
0c30
0c30
1818
1818
300c
300c
0000
0000
0000
0000
0000
ENDCHAR
STARTCHAR afii10040
ENCODING 1062
SWIDTH 666 0
DWIDTH 15 0
BBX 15 30 0 -7
BITMAP
0000
0000
0000
0000
0000
6018
6018
6018
6018
6018
6018
6018
6018
6018
6018
6018
6018
6018
6018
6018
6018
6018
701c
3ffe
1ffe
0006
0006
0006
0006
0000
ENDCHAR
STARTCHAR afii10041
ENCODING 1063
SWIDTH 666 0
DWIDTH 15 0
BBX 15 30 0 -7
BITMAP
0000
0000
0000
0000
0000
300c
300c
300c
300c
300c
300c
300c
300c
300c
380c
1ffc
0ffc
000c
000c
000c
000c
000c
000c
000c
000c
0000
0000
0000
0000
0000
ENDCHAR
STARTCHAR afii10042
ENCODING 1064
SWIDTH 666 0
DWIDTH 15 0
BBX 15 30 0 -7
BITMAP
0000
0000
0000
0000
0000
318c
318c
318c
318c
318c
318c
318c
318c
318c
318c
318c
318c
318c
318c
318c
318c
318c
398c
1ffc
0ffc
0000
0000
0000
0000
0000
ENDCHAR
STARTCHAR afii10043
ENCODING 1065
SWIDTH 666 0
DWIDTH 15 0
BBX 15 30 0 -7
BITMAP
0000
0000
0000
0000
0000
6318
6318
6318
6318
6318
6318
6318
6318
6318
6318
6318
6318
6318
6318
6318
6318
6318
7318
3ffc
1ffe
0006
0006
0006
0006
0000
ENDCHAR
STARTCHAR afii10044
ENCODING 1066
SWIDTH 666 0
DWIDTH 15 0
BBX 15 30 0 -7
BITMAP
0000
0000
0000
0000
0000
e000
e000
6000
6000
6000
6000
7fc0
7fe0
6070
6030
6030
6030
6030
6030
6030
6030
6030
6070
7fe0
7fc0
0000
0000
0000
0000
0000
ENDCHAR
STARTCHAR afii10045
ENCODING 1067
SWIDTH 666 0
DWIDTH 15 0
BBX 15 30 0 -7
BITMAP
0000
0000
0000
0000
0000
600c
600c
600c
600c
600c
600c
7f0c
7f8c
61cc
60cc
60cc
60cc
60cc
60cc
60cc
60cc
60cc
61cc
7f8c
7f0c
0000
0000
0000
0000
0000
ENDCHAR
STARTCHAR afii10046
ENCODING 1068
SWIDTH 666 0
DWIDTH 15 0
BBX 15 30 0 -7
BITMAP
0000
0000
0000
0000
0000
3000
3000
3000
3000
3000
3000
3fe0
3ff0
3038
3018
3018
3018
3018
3018
3018
3018
3018
3038
3ff0
3fe0
0000
0000
0000
0000
0000
ENDCHAR
STARTCHAR afii10047
ENCODING 1069
SWIDTH 666 0
DWIDTH 15 0
BBX 15 30 0 -7
BITMAP
0000
0000
0000
0000
0000
0ff0
1ff8
381c
300c
300c
000c
000c
000c
000c
07fc
07fc
000c
000c
000c
000c
300c
300c
381c
1ff8
0ff0
0000
0000
0000
0000
0000
ENDCHAR
STARTCHAR afii10048
ENCODING 1070
SWIDTH 666 0
DWIDTH 15 0
BBX 15 30 0 -7
BITMAP
0000
0000
0000
0000
0000
60f0
61f8
639c
630c
630c
630c
630c
630c
630c
7f0c
7f0c
630c
630c
630c
630c
630c
630c
639c
61f8
60f0
0000
0000
0000
0000
0000
ENDCHAR
STARTCHAR afii10049
ENCODING 1071
SWIDTH 666 0
DWIDTH 15 0
BBX 15 30 0 -7
BITMAP
0000
0000
0000
0000
0000
0ffc
1ffc
380c
300c
300c
300c
300c
300c
300c
380c
1ffc
0ffc
00ec
01cc
038c
070c
0e0c
1c0c
380c
300c
0000
0000
0000
0000
0000
ENDCHAR
STARTCHAR afii10065
ENCODING 1072
SWIDTH 666 0
DWIDTH 15 0
BBX 15 30 0 -7
BITMAP
0000
0000
0000
0000
0000
0000
0000
0000
0000
0000
0000
1ff0
1ff8
001c
000c
000c
0ffc
1ffc
380c
300c
300c
300c
380c
1ffc
0ffc
0000
0000
0000
0000
0000
ENDCHAR
STARTCHAR afii10066
ENCODING 1073
SWIDTH 666 0
DWIDTH 15 0
BBX 15 30 0 -7
BITMAP
0000
0000
0000
0000
0000
0ff0
1ff0
3800
3000
3000
3000
3000
3ff0
3ff8
301c
300c
300c
300c
300c
300c
300c
300c
301c
3ff8
3ff0
0000
0000
0000
0000
0000
ENDCHAR
STARTCHAR afii10067
ENCODING 1074
SWIDTH 666 0
DWIDTH 15 0
BBX 15 30 0 -7
BITMAP
0000
0000
0000
0000
0000
1fc0
3fe0
3070
3030
3030
3030
3030
3070
3fe0
3ff0
3038
301c
300c
300c
300c
300c
300c
301c
3ff8
3ff0
0000
0000
0000
0000
0000
ENDCHAR
STARTCHAR afii10068
ENCODING 1075
SWIDTH 666 0
DWIDTH 15 0
BBX 15 30 0 -7
BITMAP
0000
0000
0000
0000
0000
0000
0000
0000
0000
0000
0000
3ffc
3ffc
3000
3000
3000
3000
3000
3000
3000
3000
3000
3000
3000
3000
0000
0000
0000
0000
0000
ENDCHAR
STARTCHAR afii10069
ENCODING 1076
SWIDTH 666 0
DWIDTH 15 0
BBX 15 30 0 -7
BITMAP
0000
0000
0000
0000
0000
0000
0000
0000
0000
0000
0000
0ffc
1ffc
380c
300c
300c
300c
300c
300c
300c
300c
300c
380c
1ffc
0ffc
000c
001c
1ff8
1ff0
0000
ENDCHAR
STARTCHAR afii10070
ENCODING 1077
SWIDTH 666 0
DWIDTH 15 0
BBX 15 30 0 -7
BITMAP
0000
0000
0000
0000
0000
0000
0000
0000
0000
0000
0000
0ff0
1ff8
381c
300c
300c
300c
3ffc
3ffc
3000
3000
3000
380c
1ffc
0ff8
0000
0000
0000
0000
0000
ENDCHAR
STARTCHAR afii10072
ENCODING 1078
SWIDTH 666 0
DWIDTH 15 0
BBX 15 30 0 -7
BITMAP
0000
0000
0000
0000
0000
0000
0000
0000
0000
0000
0000
318c
318c
318c
399c
1db8
0ff0
07e0
0ff0
1db8
399c
318c
318c
318c
318c
0000
0000
0000
0000
0000
ENDCHAR
STARTCHAR afii10073
ENCODING 1079
SWIDTH 666 0
DWIDTH 15 0
BBX 15 30 0 -7
BITMAP
0000
0000
0000
0000
0000
0000
0000
0000
0000
0000
0000
0ff0
1ff8
381c
300c
000c
001c
03f8
03f8
001c
000c
300c
381c
1ff8
0ff0
0000
0000
0000
0000
0000
ENDCHAR
STARTCHAR afii10074
ENCODING 1080
SWIDTH 666 0
DWIDTH 15 0
BBX 15 30 0 -7
BITMAP
0000
0000
0000
0000
0000
0000
0000
0000
0000
0000
0000
300c
300c
300c
300c
300c
300c
300c
300c
300c
300c
300c
380c
1ffc
0ffc
0000
0000
0000
0000
0000
ENDCHAR
STARTCHAR afii10075
ENCODING 1081
SWIDTH 666 0
DWIDTH 15 0
BBX 15 30 0 -7
BITMAP
0000
0000
0000
0000
0000
0c30
0c30
07e0
03c0
0000
0000
300c
300c
300c
300c
300c
300c
300c
300c
300c
300c
300c
380c
1ffc
0ffc
0000
0000
0000
0000
0000
ENDCHAR
STARTCHAR afii10076
ENCODING 1082
SWIDTH 666 0
DWIDTH 15 0
BBX 15 30 0 -7
BITMAP
0000
0000
0000
0000
0000
0000
0000
0000
0000
0000
0000
181c
1838
1870
18e0
19c0
1b80
1f00
1f00
1b80
19c0
18e0
1870
1838
181c
0000
0000
0000
0000
0000
ENDCHAR
STARTCHAR afii10077
ENCODING 1083
SWIDTH 666 0
DWIDTH 15 0
BBX 15 30 0 -7
BITMAP
0000
0000
0000
0000
0000
0000
0000
0000
0000
0000
0000
03fc
07fc
0e0c
0c0c
0c0c
0c0c
0c0c
0c0c
0c0c
0c0c
0c0c
0c0c
1c0c
380c
0000
0000
0000
0000
0000
ENDCHAR
STARTCHAR afii10078
ENCODING 1084
SWIDTH 666 0
DWIDTH 15 0
BBX 15 30 0 -7
BITMAP
0000
0000
0000
0000
0000
0000
0000
0000
0000
0000
0000
600c
701c
783c
7c7c
6eec
67cc
638c
610c
600c
600c
600c
600c
600c
600c
0000
0000
0000
0000
0000
ENDCHAR
STARTCHAR afii10079
ENCODING 1085
SWIDTH 666 0
DWIDTH 15 0
BBX 15 30 0 -7
BITMAP
0000
0000
0000
0000
0000
0000
0000
0000
0000
0000
0000
300c
300c
300c
300c
300c
300c
3ffc
3ffc
300c
300c
300c
300c
300c
300c
0000
0000
0000
0000
0000
ENDCHAR
STARTCHAR afii10080
ENCODING 1086
SWIDTH 666 0
DWIDTH 15 0
BBX 15 30 0 -7
BITMAP
0000
0000
0000
0000
0000
0000
0000
0000
0000
0000
0000
0ff0
1ff8
381c
300c
300c
300c
300c
300c
300c
300c
300c
381c
1ff8
0ff0
0000
0000
0000
0000
0000
ENDCHAR
STARTCHAR afii10081
ENCODING 1087
SWIDTH 666 0
DWIDTH 15 0
BBX 15 30 0 -7
BITMAP
0000
0000
0000
0000
0000
0000
0000
0000
0000
0000
0000
3ffc
3ffc
300c
300c
300c
300c
300c
300c
300c
300c
300c
300c
300c
300c
0000
0000
0000
0000
0000
ENDCHAR
STARTCHAR afii10082
ENCODING 1088
SWIDTH 666 0
DWIDTH 15 0
BBX 15 30 0 -7
BITMAP
0000
0000
0000
0000
0000
0000
0000
0000
0000
0000
0000
3ff0
3ff8
301c
300c
300c
300c
300c
300c
300c
300c
300c
301c
3ff8
3ff0
3000
3000
3000
3000
0000
ENDCHAR
STARTCHAR afii10083
ENCODING 1089
SWIDTH 666 0
DWIDTH 15 0
BBX 15 30 0 -7
BITMAP
0000
0000
0000
0000
0000
0000
0000
0000
0000
0000
0000
0ff0
1ff8
381c
300c
3000
3000
3000
3000
3000
3000
300c
381c
1ff8
0ff0
0000
0000
0000
0000
0000
ENDCHAR
STARTCHAR afii10084
ENCODING 1090
SWIDTH 666 0
DWIDTH 15 0
BBX 15 30 0 -7
BITMAP
0000
0000
0000
0000
0000
0000
0000
0000
0000
0000
0000
3ffc
3ffc
0180
0180
0180
0180
0180
0180
0180
0180
0180
0180
0180
0180
0000
0000
0000
0000
0000
ENDCHAR
STARTCHAR afii10085
ENCODING 1091
SWIDTH 666 0
DWIDTH 15 0
BBX 15 30 0 -7
BITMAP
0000
0000
0000
0000
0000
0000
0000
0000
0000
0000
0000
300c
300c
300c
300c
300c
300c
300c
300c
300c
300c
300c
380c
1ffc
0ffc
000c
001c
1ff8
1ff0
0000
ENDCHAR
STARTCHAR afii10086
ENCODING 1092
SWIDTH 666 0
DWIDTH 15 0
BBX 15 30 0 -7
BITMAP
0000
0000
0000
0000
0000
0000
0000
0000
0180
0180
0180
0ff0
1ff8
399c
318c
318c
318c
318c
318c
318c
318c
318c
399c
1ff8
0ff0
0180
0180
0180
0000
0000
ENDCHAR
STARTCHAR afii10087
ENCODING 1093
SWIDTH 666 0
DWIDTH 15 0
BBX 15 30 0 -7
BITMAP
0000
0000
0000
0000
0000
0000
0000
0000
0000
0000
0000
300c
300c
381c
1c38
0e70
07e0
03c0
03c0
07e0
0e70
1c38
381c
300c
300c
0000
0000
0000
0000
0000
ENDCHAR
STARTCHAR afii10088
ENCODING 1094
SWIDTH 666 0
DWIDTH 15 0
BBX 15 30 0 -7
BITMAP
0000
0000
0000
0000
0000
0000
0000
0000
0000
0000
0000
6018
6018
6018
6018
6018
6018
6018
6018
6018
6018
6018
7018
3ffc
1ffe
0006
0006
0006
0006
0000
ENDCHAR
STARTCHAR afii10089
ENCODING 1095
SWIDTH 666 0
DWIDTH 15 0
BBX 15 30 0 -7
BITMAP
0000
0000
0000
0000
0000
0000
0000
0000
0000
0000
0000
300c
300c
300c
300c
300c
380c
1ffc
0ffc
000c
000c
000c
000c
000c
000c
0000
0000
0000
0000
0000
ENDCHAR
STARTCHAR afii10090
ENCODING 1096
SWIDTH 666 0
DWIDTH 15 0
BBX 15 30 0 -7
BITMAP
0000
0000
0000
0000
0000
0000
0000
0000
0000
0000
0000
318c
318c
318c
318c
318c
318c
318c
318c
318c
318c
318c
398c
1ffc
0ffc
0000
0000
0000
0000
0000
ENDCHAR
STARTCHAR afii10091
ENCODING 1097
SWIDTH 666 0
DWIDTH 15 0
BBX 15 30 0 -7
BITMAP
0000
0000
0000
0000
0000
0000
0000
0000
0000
0000
0000
6318
6318
6318
6318
6318
6318
6318
6318
6318
6318
6318
7318
3ffc
1ffe
0006
0006
0006
0006
0000
ENDCHAR
STARTCHAR afii10092
ENCODING 1098
SWIDTH 666 0
DWIDTH 15 0
BBX 15 30 0 -7
BITMAP
0000
0000
0000
0000
0000
0000
0000
0000
0000
0000
0000
3c00
3c00
0c00
0c00
0ff0
0ff8
0c1c
0c0c
0c0c
0c0c
0c0c
0c1c
0ff8
0ff0
0000
0000
0000
0000
0000
ENDCHAR
STARTCHAR afii10093
ENCODING 1099
SWIDTH 666 0
DWIDTH 15 0
BBX 15 30 0 -7
BITMAP
0000
0000
0000
0000
0000
0000
0000
0000
0000
0000
0000
600c
600c
600c
600c
7f0c
7f8c
61cc
60cc
60cc
60cc
60cc
61cc
7f8c
7f0c
0000
0000
0000
0000
0000
ENDCHAR
STARTCHAR afii10094
ENCODING 1100
SWIDTH 666 0
DWIDTH 15 0
BBX 15 30 0 -7
BITMAP
0000
0000
0000
0000
0000
0000
0000
0000
0000
0000
0000
1800
1800
1800
1800
1fe0
1ff0
1838
1818
1818
1818
1818
1838
1ff0
1fe0
0000
0000
0000
0000
0000
ENDCHAR
STARTCHAR afii10095
ENCODING 1101
SWIDTH 666 0
DWIDTH 15 0
BBX 15 30 0 -7
BITMAP
0000
0000
0000
0000
0000
0000
0000
0000
0000
0000
0000
0ff0
1ff8
381c
300c
000c
000c
03fc
03fc
000c
000c
300c
381c
1ff8
0ff0
0000
0000
0000
0000
0000
ENDCHAR
STARTCHAR afii10096
ENCODING 1102
SWIDTH 666 0
DWIDTH 15 0
BBX 15 30 0 -7
BITMAP
0000
0000
0000
0000
0000
0000
0000
0000
0000
0000
0000
60f0
61f8
630c
630c
630c
630c
7f0c
7f0c
630c
630c
630c
630c
61f8
60f0
0000
0000
0000
0000
0000
ENDCHAR
STARTCHAR afii10097
ENCODING 1103
SWIDTH 666 0
DWIDTH 15 0
BBX 15 30 0 -7
BITMAP
0000
0000
0000
0000
0000
0000
0000
0000
0000
0000
0000
0ffc
1ffc
380c
300c
300c
380c
1ffc
0ffc
00ec
01cc
038c
070c
0e0c
1c0c
0000
0000
0000
0000
0000
ENDCHAR
STARTCHAR uni0450
ENCODING 1104
SWIDTH 666 0
DWIDTH 15 0
BBX 15 30 0 -7
BITMAP
0000
0000
0000
0000
0000
0e00
0700
0380
01c0
0000
0000
0ff0
1ff8
381c
300c
300c
300c
3ffc
3ffc
3000
3000
3000
380c
1ffc
0ff8
0000
0000
0000
0000
0000
ENDCHAR
STARTCHAR afii10071
ENCODING 1105
SWIDTH 666 0
DWIDTH 15 0
BBX 15 30 0 -7
BITMAP
0000
0000
0000
0000
0000
0c30
0c30
0c30
0c30
0000
0000
0ff0
1ff8
381c
300c
300c
300c
3ffc
3ffc
3000
3000
3000
380c
1ffc
0ff8
0000
0000
0000
0000
0000
ENDCHAR
STARTCHAR afii10099
ENCODING 1106
SWIDTH 666 0
DWIDTH 15 0
BBX 15 30 0 -7
BITMAP
0000
0000
0000
0000
0000
6000
6000
ff00
ff00
6000
6000
7fe0
7ff0
6038
6018
6018
6018
6018
6018
6018
6018
6018
6018
6018
6018
0018
0038
01f0
01e0
0000
ENDCHAR
STARTCHAR afii10100
ENCODING 1107
SWIDTH 666 0
DWIDTH 15 0
BBX 15 30 0 -7
BITMAP
0000
0000
0000
0000
0000
0070
00e0
01c0
0380
0000
0000
3ffc
3ffc
3000
3000
3000
3000
3000
3000
3000
3000
3000
3000
3000
3000
0000
0000
0000
0000
0000
ENDCHAR
STARTCHAR afii10101
ENCODING 1108
SWIDTH 666 0
DWIDTH 15 0
BBX 15 30 0 -7
BITMAP
0000
0000
0000
0000
0000
0000
0000
0000
0000
0000
0000
0ff0
1ff8
381c
300c
3000
3000
3fc0
3fc0
3000
3000
300c
381c
1ff8
0ff0
0000
0000
0000
0000
0000
ENDCHAR
STARTCHAR afii10102
ENCODING 1109
SWIDTH 666 0
DWIDTH 15 0
BBX 15 30 0 -7
BITMAP
0000
0000
0000
0000
0000
0000
0000
0000
0000
0000
0000
0ff0
1ff8
381c
3000
3000
3800
1ff0
0ff8
001c
000c
000c
381c
1ff8
0ff0
0000
0000
0000
0000
0000
ENDCHAR
STARTCHAR afii10103
ENCODING 1110
SWIDTH 666 0
DWIDTH 15 0
BBX 15 30 0 -7
BITMAP
0000
0000
0000
0000
0000
0180
0180
0180
0180
0000
0000
0780
0780
0180
0180
0180
0180
0180
0180
0180
0180
0180
0180
07e0
07e0
0000
0000
0000
0000
0000
ENDCHAR
STARTCHAR afii10104
ENCODING 1111
SWIDTH 666 0
DWIDTH 15 0
BBX 15 30 0 -7
BITMAP
0000
0000
0000
0000
0000
0c30
0c30
0c30
0c30
0000
0000
0780
0780
0180
0180
0180
0180
0180
0180
0180
0180
0180
0180
07e0
07e0
0000
0000
0000
0000
0000
ENDCHAR
STARTCHAR afii10105
ENCODING 1112
SWIDTH 666 0
DWIDTH 15 0
BBX 15 30 0 -7
BITMAP
0000
0000
0000
0000
0000
0018
0018
0018
0018
0000
0000
0078
0078
0018
0018
0018
0018
0018
0018
0018
0018
0018
0018
0018
0018
1818
1c38
0ff0
07e0
0000
ENDCHAR
STARTCHAR afii10106
ENCODING 1113
SWIDTH 666 0
DWIDTH 15 0
BBX 15 30 0 -7
BITMAP
0000
0000
0000
0000
0000
0000
0000
0000
0000
0000
0000
0f80
1f80
3980
3180
31f8
31fc
318e
3186
3186
3186
3186
318e
71fc
61f8
0000
0000
0000
0000
0000
ENDCHAR
STARTCHAR afii10107
ENCODING 1114
SWIDTH 666 0
DWIDTH 15 0
BBX 15 30 0 -7
BITMAP
0000
0000
0000
0000
0000
0000
0000
0000
0000
0000
0000
6180
6180
6180
6180
61f8
61fc
7f8e
7f86
6186
6186
6186
618e
61fc
61f8
0000
0000
0000
0000
0000
ENDCHAR
STARTCHAR afii10108
ENCODING 1115
SWIDTH 666 0
DWIDTH 15 0
BBX 15 30 0 -7
BITMAP
0000
0000
0000
0000
0000
6000
6000
ff00
ff00
6000
6000
7fe0
7ff0
6038
6018
6018
6018
6018
6018
6018
6018
6018
6018
6018
6018
0000
0000
0000
0000
0000
ENDCHAR
STARTCHAR afii10109
ENCODING 1116
SWIDTH 666 0
DWIDTH 15 0
BBX 15 30 0 -7
BITMAP
0000
0000
0000
0000
0000
0070
00e0
01c0
0380
0000
0000
181c
1838
1870
18e0
19c0
1b80
1f00
1f00
1b80
19c0
18e0
1870
1838
181c
0000
0000
0000
0000
0000
ENDCHAR
STARTCHAR uni045D
ENCODING 1117
SWIDTH 666 0
DWIDTH 15 0
BBX 15 30 0 -7
BITMAP
0000
0000
0000
0000
0000
0e00
0700
0380
01c0
0000
0000
300c
300c
300c
300c
300c
300c
300c
300c
300c
300c
300c
380c
1ffc
0ffc
0000
0000
0000
0000
0000
ENDCHAR
STARTCHAR afii10110
ENCODING 1118
SWIDTH 666 0
DWIDTH 15 0
BBX 15 30 0 -7
BITMAP
0000
0000
0000
0000
0000
0c30
0c30
07e0
03c0
0000
0000
300c
300c
300c
300c
300c
300c
300c
300c
300c
300c
300c
380c
1ffc
0ffc
000c
001c
1ff8
1ff0
0000
ENDCHAR
STARTCHAR afii10193
ENCODING 1119
SWIDTH 666 0
DWIDTH 15 0
BBX 15 30 0 -7
BITMAP
0000
0000
0000
0000
0000
0000
0000
0000
0000
0000
0000
300c
300c
300c
300c
300c
300c
300c
300c
300c
300c
300c
300c
3ffc
3ffc
0180
0180
0180
0180
0000
ENDCHAR
STARTCHAR afii10146
ENCODING 1122
SWIDTH 666 0
DWIDTH 15 0
BBX 15 30 0 -7
BITMAP
0000
0000
0000
0000
0000
6000
6000
fe00
fe00
6000
6000
7fc0
7fe0
6070
6030
6030
6030
6030
6030
6030
6030
6030
6070
7fe0
7fc0
0000
0000
0000
0000
0000
ENDCHAR
STARTCHAR afii10194
ENCODING 1123
SWIDTH 666 0
DWIDTH 15 0
BBX 15 30 0 -7
BITMAP
0000
0000
0000
0000
0000
0c00
0c00
0c00
0c00
3fc0
3fc0
0c00
0c00
0c00
0c00
0ff0
0ff8
0c1c
0c0c
0c0c
0c0c
0c0c
0c1c
0ff8
0ff0
0000
0000
0000
0000
0000
ENDCHAR
STARTCHAR uni046A
ENCODING 1130
SWIDTH 666 0
DWIDTH 15 0
BBX 15 30 0 -7
BITMAP
0000
0000
0000
0000
0000
3ffc
3ffc
300c
1818
1818
0c30
0c30
0660
03c0
07e0
0ff0
1db8
399c
318c
318c
318c
318c
318c
318c
318c
0000
0000
0000
0000
0000
ENDCHAR
STARTCHAR uni046B
ENCODING 1131
SWIDTH 666 0
DWIDTH 15 0
BBX 15 30 0 -7
BITMAP
0000
0000
0000
0000
0000
0000
0000
0000
0000
0000
0000
3ffc
3ffc
300c
381c
1c38
0e70
07e0
0ff0
1db8
399c
318c
318c
318c
318c
0000
0000
0000
0000
0000
ENDCHAR
STARTCHAR afii10050
ENCODING 1168
SWIDTH 666 0
DWIDTH 15 0
BBX 15 30 0 -7
BITMAP
0000
000c
000c
000c
000c
3ffc
3ffc
3000
3000
3000
3000
3000
3000
3000
3000
3000
3000
3000
3000
3000
3000
3000
3000
3000
3000
0000
0000
0000
0000
0000
ENDCHAR
STARTCHAR afii10098
ENCODING 1169
SWIDTH 666 0
DWIDTH 15 0
BBX 15 30 0 -7
BITMAP
0000
0000
0000
0000
0000
0000
0000
000c
000c
000c
000c
3ffc
3ffc
3000
3000
3000
3000
3000
3000
3000
3000
3000
3000
3000
3000
0000
0000
0000
0000
0000
ENDCHAR
STARTCHAR uni0492
ENCODING 1170
SWIDTH 666 0
DWIDTH 15 0
BBX 15 30 0 -7
BITMAP
0000
0000
0000
0000
0000
3ffc
3ffc
3000
3000
3000
3000
3000
3000
3000
7f80
7f80
3000
3000
3000
3000
3000
3000
3000
3000
3000
0000
0000
0000
0000
0000
ENDCHAR
STARTCHAR uni0493
ENCODING 1171
SWIDTH 666 0
DWIDTH 15 0
BBX 15 30 0 -7
BITMAP
0000
0000
0000
0000
0000
0000
0000
0000
0000
0000
0000
3ffc
3ffc
3000
3000
3000
3000
7f80
7f80
3000
3000
3000
3000
3000
3000
0000
0000
0000
0000
0000
ENDCHAR
STARTCHAR uni0494
ENCODING 1172
SWIDTH 666 0
DWIDTH 15 0
BBX 15 30 0 -7
BITMAP
0000
0000
0000
0000
0000
3ffc
3ffc
3000
3000
3000
3000
3000
3000
3000
3000
3ff0
3ff8
301c
300c
300c
300c
300c
300c
300c
300c
000c
000c
0018
0030
0000
ENDCHAR
STARTCHAR uni0495
ENCODING 1173
SWIDTH 666 0
DWIDTH 15 0
BBX 15 30 0 -7
BITMAP
0000
0000
0000
0000
0000
0000
0000
0000
0000
0000
0000
3ffc
3ffc
3000
3000
3000
3000
3000
3fc0
3fe0
3070
3030
3030
3030
3030
0030
0030
0060
00c0
0000
ENDCHAR
STARTCHAR uni0496
ENCODING 1174
SWIDTH 666 0
DWIDTH 15 0
BBX 15 30 0 -7
BITMAP
0000
0000
0000
0000
0000
6318
6318
6318
6318
6318
6318
7338
3b70
1fe0
0fc0
1fe0
3b70
7338
6318
6318
6318
6318
6318
631c
631e
0006
0006
0006
0006
0000
ENDCHAR
STARTCHAR uni0497
ENCODING 1175
SWIDTH 666 0
DWIDTH 15 0
BBX 15 30 0 -7
BITMAP
0000
0000
0000
0000
0000
0000
0000
0000
0000
0000
0000
6318
6318
6318
7338
3b70
1fe0
0fc0
1fe0
3b70
7338
6318
6318
631c
631e
0006
0006
0006
0006
0000
ENDCHAR
STARTCHAR uni0498
ENCODING 1176
SWIDTH 666 0
DWIDTH 15 0
BBX 15 30 0 -7
BITMAP
0000
0000
0000
0000
0000
0ff0
1ff8
381c
300c
300c
000c
000c
000c
001c
07f8
07f8
001c
000c
000c
000c
300c
300c
381c
1ff8
0ff0
0180
0180
0180
0180
0000
ENDCHAR
STARTCHAR uni0499
ENCODING 1177
SWIDTH 666 0
DWIDTH 15 0
BBX 15 30 0 -7
BITMAP
0000
0000
0000
0000
0000
0000
0000
0000
0000
0000
0000
0ff0
1ff8
381c
300c
000c
001c
03f8
03f8
001c
000c
300c
381c
1ff8
0ff0
0180
0180
0180
0180
0000
ENDCHAR
STARTCHAR uni049A
ENCODING 1178
SWIDTH 666 0
DWIDTH 15 0
BBX 15 30 0 -7
BITMAP
0000
0000
0000
0000
0000
6018
6038
6070
60e0
61c0
6380
6700
6e00
7c00
7800
7800
7c00
6e00
6700
6380
61c0
60e0
6070
6038
601c
000c
000c
000c
000c
0000
ENDCHAR
STARTCHAR uni049B
ENCODING 1179
SWIDTH 666 0
DWIDTH 15 0
BBX 15 30 0 -7
BITMAP
0000
0000
0000
0000
0000
0000
0000
0000
0000
0000
0000
181c
1838
1870
18e0
19c0
1b80
1f00
1f00
1b80
19c0
18e0
1870
1838
181c
000c
000c
000c
000c
0000
ENDCHAR
STARTCHAR uni049C
ENCODING 1180
SWIDTH 666 0
DWIDTH 15 0
BBX 15 30 0 -7
BITMAP
0000
0000
0000
0000
0000
600c
600c
601c
6038
6c70
6ce0
6dc0
6f80
6f00
7e00
7e00
6f00
6f80
6dc0
6ce0
6c70
6038
601c
600c
600c
0000
0000
0000
0000
0000
ENDCHAR
STARTCHAR uni049D
ENCODING 1181
SWIDTH 666 0
DWIDTH 15 0
BBX 15 30 0 -7
BITMAP
0000
0000
0000
0000
0000
0000
0000
0000
0000
0000
0000
300c
301c
3638
3670
36e0
37c0
3f80
3f80
37c0
36e0
3670
3638
301c
300c
0000
0000
0000
0000
0000
ENDCHAR
STARTCHAR uni04A0
ENCODING 1184
SWIDTH 666 0
DWIDTH 15 0
BBX 15 30 0 -7
BITMAP
0000
0000
0000
0000
0000
e018
e038
6070
60e0
61c0
6380
6700
6e00
7c00
7800
7800
7c00
6e00
6700
6380
61c0
60e0
6070
6038
6018
0000
0000
0000
0000
0000
ENDCHAR
STARTCHAR uni04A1
ENCODING 1185
SWIDTH 666 0
DWIDTH 15 0
BBX 15 30 0 -7
BITMAP
0000
0000
0000
0000
0000
0000
0000
0000
0000
0000
0000
781c
7838
1870
18e0
19c0
1b80
1f00
1f00
1b80
19c0
18e0
1870
1838
181c
0000
0000
0000
0000
0000
ENDCHAR
STARTCHAR uni04A2
ENCODING 1186
SWIDTH 666 0
DWIDTH 15 0
BBX 15 30 0 -7
BITMAP
0000
0000
0000
0000
0000
6018
6018
6018
6018
6018
6018
6018
6018
6018
7ff8
7ff8
6018
6018
6018
6018
6018
6018
6018
601c
601e
0006
0006
0006
0006
0000
ENDCHAR
STARTCHAR uni04A3
ENCODING 1187
SWIDTH 666 0
DWIDTH 15 0
BBX 15 30 0 -7
BITMAP
0000
0000
0000
0000
0000
0000
0000
0000
0000
0000
0000
6018
6018
6018
6018
6018
6018
7ff8
7ff8
6018
6018
6018
6018
601c
601e
0006
0006
0006
0006
0000
ENDCHAR
STARTCHAR uni04A4
ENCODING 1188
SWIDTH 666 0
DWIDTH 15 0
BBX 15 30 0 -7
BITMAP
0000
0000
0000
0000
0000
60fe
60fe
60c0
60c0
60c0
60c0
60c0
60c0
60c0
7fc0
7fc0
60c0
60c0
60c0
60c0
60c0
60c0
60c0
60c0
60c0
0000
0000
0000
0000
0000
ENDCHAR
STARTCHAR uni04A5
ENCODING 1189
SWIDTH 666 0
DWIDTH 15 0
BBX 15 30 0 -7
BITMAP
0000
0000
0000
0000
0000
0000
0000
0000
0000
0000
0000
60fe
60fe
60c0
60c0
60c0
60c0
7fc0
7fc0
60c0
60c0
60c0
60c0
60c0
60c0
0000
0000
0000
0000
0000
ENDCHAR
STARTCHAR uni04AA
ENCODING 1194
SWIDTH 666 0
DWIDTH 15 0
BBX 15 30 0 -7
BITMAP
0000
0000
0000
0000
0000
0ff0
1ff8
381c
300c
300c
3000
3000
3000
3000
3000
3000
3000
3000
3000
3000
300c
300c
381c
1ff8
0ff0
0180
0180
0180
0180
0000
ENDCHAR
STARTCHAR uni04AB
ENCODING 1195
SWIDTH 666 0
DWIDTH 15 0
BBX 15 30 0 -7
BITMAP
0000
0000
0000
0000
0000
0000
0000
0000
0000
0000
0000
0ff0
1ff8
381c
300c
3000
3000
3000
3000
3000
3000
300c
381c
1ff8
0ff0
0180
0180
0180
0180
0000
ENDCHAR
STARTCHAR uni04AE
ENCODING 1198
SWIDTH 666 0
DWIDTH 15 0
BBX 15 30 0 -7
BITMAP
0000
0000
0000
0000
0000
300c
300c
300c
1818
1818
0c30
0c30
0660
0660
03c0
03c0
0180
0180
0180
0180
0180
0180
0180
0180
0180
0000
0000
0000
0000
0000
ENDCHAR
STARTCHAR uni04AF
ENCODING 1199
SWIDTH 666 0
DWIDTH 15 0
BBX 15 30 0 -7
BITMAP
0000
0000
0000
0000
0000
0000
0000
0000
0000
0000
0000
300c
300c
300c
1818
1818
1818
0c30
0c30
0660
0660
03c0
03c0
0180
0180
0180
0180
0180
0180
0000
ENDCHAR
STARTCHAR uni04B0
ENCODING 1200
SWIDTH 666 0
DWIDTH 15 0
BBX 15 30 0 -7
BITMAP
0000
0000
0000
0000
0000
300c
300c
300c
1818
1818
0c30
0c30
0660
0660
03c0
03c0
0180
1ff8
1ff8
0180
0180
0180
0180
0180
0180
0000
0000
0000
0000
0000
ENDCHAR
STARTCHAR uni04B1
ENCODING 1201
SWIDTH 666 0
DWIDTH 15 0
BBX 15 30 0 -7
BITMAP
0000
0000
0000
0000
0000
0000
0000
0000
0000
0000
0000
300c
300c
300c
1818
1818
1818
0c30
0c30
0660
0660
03c0
03c0
0180
1ff8
1ff8
0180
0180
0180
0000
ENDCHAR
STARTCHAR uni04B2
ENCODING 1202
SWIDTH 666 0
DWIDTH 15 0
BBX 15 30 0 -7
BITMAP
0000
0000
0000
0000
0000
6018
6018
3030
3030
1860
1860
0cc0
0cc0
0780
0780
0780
0780
0cc0
0cc0
1860
1860
3030
3030
601c
601e
0006
0006
0006
0006
0000
ENDCHAR
STARTCHAR uni04B3
ENCODING 1203
SWIDTH 666 0
DWIDTH 15 0
BBX 15 30 0 -7
BITMAP
0000
0000
0000
0000
0000
0000
0000
0000
0000
0000
0000
6018
6018
7038
3870
1ce0
0fc0
0780
0780
0fc0
1ce0
3870
7038
601c
601e
0006
0006
0006
0006
0000
ENDCHAR
STARTCHAR uni04B6
ENCODING 1206
SWIDTH 666 0
DWIDTH 15 0
BBX 15 30 0 -7
BITMAP
0000
0000
0000
0000
0000
6018
6018
6018
6018
6018
6018
6018
6018
6018
7018
3ff8
1ff8
0018
0018
0018
0018
0018
0018
001c
001e
0006
0006
0006
0006
0000
ENDCHAR
STARTCHAR uni04B7
ENCODING 1207
SWIDTH 666 0
DWIDTH 15 0
BBX 15 30 0 -7
BITMAP
0000
0000
0000
0000
0000
0000
0000
0000
0000
0000
0000
6018
6018
6018
6018
6018
7018
3ff8
1ff8
0018
0018
0018
0018
001c
001e
0006
0006
0006
0006
0000
ENDCHAR
STARTCHAR uni04B8
ENCODING 1208
SWIDTH 666 0
DWIDTH 15 0
BBX 15 30 0 -7
BITMAP
0000
0000
0000
0000
0000
300c
300c
300c
300c
300c
300c
318c
318c
318c
398c
1ffc
0ffc
018c
018c
018c
018c
000c
000c
000c
000c
0000
0000
0000
0000
0000
ENDCHAR
STARTCHAR uni04B9
ENCODING 1209
SWIDTH 666 0
DWIDTH 15 0
BBX 15 30 0 -7
BITMAP
0000
0000
0000
0000
0000
0000
0000
0000
0000
0000
0000
300c
300c
300c
318c
318c
398c
1ffc
0ffc
018c
018c
018c
000c
000c
000c
0000
0000
0000
0000
0000
ENDCHAR
STARTCHAR uni04BA
ENCODING 1210
SWIDTH 666 0
DWIDTH 15 0
BBX 15 30 0 -7
BITMAP
0000
0000
0000
0000
0000
3000
3000
3000
3000
3000
3000
3000
3000
3ff0
3ff8
301c
300c
300c
300c
300c
300c
300c
300c
300c
300c
0000
0000
0000
0000
0000
ENDCHAR
STARTCHAR uni04BB
ENCODING 1211
SWIDTH 666 0
DWIDTH 15 0
BBX 15 30 0 -7
BITMAP
0000
0000
0000
0000
0000
0000
0000
0000
0000
0000
0000
3000
3000
3000
3000
3000
3ff0
3ff8
301c
300c
300c
300c
300c
300c
300c
0000
0000
0000
0000
0000
ENDCHAR
STARTCHAR uni04C0
ENCODING 1216
SWIDTH 666 0
DWIDTH 15 0
BBX 15 30 0 -7
BITMAP
0000
0000
0000
0000
0000
07e0
07e0
0180
0180
0180
0180
0180
0180
0180
0180
0180
0180
0180
0180
0180
0180
0180
0180
07e0
07e0
0000
0000
0000
0000
0000
ENDCHAR
STARTCHAR uni04C1
ENCODING 1217
SWIDTH 666 0
DWIDTH 15 0
BBX 15 30 0 -7
BITMAP
0000
0c30
0c30
07e0
03c0
0000
318c
318c
318c
318c
318c
318c
399c
1db8
0ff0
07e0
0ff0
1db8
399c
318c
318c
318c
318c
318c
318c
318c
0000
0000
0000
0000
ENDCHAR
STARTCHAR uni04C2
ENCODING 1218
SWIDTH 666 0
DWIDTH 15 0
BBX 15 30 0 -7
BITMAP
0000
0000
0000
0000
0000
0c30
0c30
07e0
03c0
0000
0000
318c
318c
318c
399c
1db8
0ff0
07e0
0ff0
1db8
399c
318c
318c
318c
318c
0000
0000
0000
0000
0000
ENDCHAR
STARTCHAR uni04CF
ENCODING 1231
SWIDTH 666 0
DWIDTH 15 0
BBX 15 30 0 -7
BITMAP
0000
0000
0000
0000
0000
0780
0780
0180
0180
0180
0180
0180
0180
0180
0180
0180
0180
0180
0180
0180
0180
0180
0180
07e0
07e0
0000
0000
0000
0000
0000
ENDCHAR
STARTCHAR uni04D0
ENCODING 1232
SWIDTH 666 0
DWIDTH 15 0
BBX 15 30 0 -7
BITMAP
0000
0c30
0c30
07e0
03c0
0000
0ff0
1ff8
381c
300c
300c
300c
300c
300c
300c
300c
3ffc
3ffc
300c
300c
300c
300c
300c
300c
300c
300c
0000
0000
0000
0000
ENDCHAR
STARTCHAR uni04D1
ENCODING 1233
SWIDTH 666 0
DWIDTH 15 0
BBX 15 30 0 -7
BITMAP
0000
0000
0000
0000
0000
0c30
0c30
07e0
03c0
0000
0000
1ff0
1ff8
001c
000c
000c
0ffc
1ffc
380c
300c
300c
300c
380c
1ffc
0ffc
0000
0000
0000
0000
0000
ENDCHAR
STARTCHAR uni04D2
ENCODING 1234
SWIDTH 666 0
DWIDTH 15 0
BBX 15 30 0 -7
BITMAP
0000
0c30
0c30
0c30
0c30
0000
0ff0
1ff8
381c
300c
300c
300c
300c
300c
300c
300c
3ffc
3ffc
300c
300c
300c
300c
300c
300c
300c
300c
0000
0000
0000
0000
ENDCHAR
STARTCHAR uni04D3
ENCODING 1235
SWIDTH 666 0
DWIDTH 15 0
BBX 15 30 0 -7
BITMAP
0000
0000
0000
0000
0000
0c30
0c30
0c30
0c30
0000
0000
1ff0
1ff8
001c
000c
000c
0ffc
1ffc
380c
300c
300c
300c
380c
1ffc
0ffc
0000
0000
0000
0000
0000
ENDCHAR
STARTCHAR uni04D4
ENCODING 1236
SWIDTH 666 0
DWIDTH 15 0
BBX 15 30 0 -7
BITMAP
0000
0000
0000
0000
0000
1ffe
3ffe
7180
6180
6180
6180
6180
6180
6180
7ffc
7ffc
6180
6180
6180
6180
6180
6180
6180
61fe
61fe
0000
0000
0000
0000
0000
ENDCHAR
STARTCHAR uni04D5
ENCODING 1237
SWIDTH 666 0
DWIDTH 15 0
BBX 15 30 0 -7
BITMAP
0000
0000
0000
0000
0000
0000
0000
0000
0000
0000
0000
3ef8
3ffc
018e
0186
0186
1f86
3ffe
71fe
6180
6180
6180
71c6
3ffe
1f7c
0000
0000
0000
0000
0000
ENDCHAR
STARTCHAR uni04D6
ENCODING 1238
SWIDTH 666 0
DWIDTH 15 0
BBX 15 30 0 -7
BITMAP
0000
0c30
0c30
07e0
03c0
0000
3ffc
3ffc
3000
3000
3000
3000
3000
3000
3000
3fe0
3fe0
3000
3000
3000
3000
3000
3000
3000
3ffc
3ffc
0000
0000
0000
0000
ENDCHAR
STARTCHAR uni04D7
ENCODING 1239
SWIDTH 666 0
DWIDTH 15 0
BBX 15 30 0 -7
BITMAP
0000
0000
0000
0000
0000
0c30
0c30
07e0
03c0
0000
0000
0ff0
1ff8
381c
300c
300c
300c
3ffc
3ffc
3000
3000
3000
380c
1ffc
0ff8
0000
0000
0000
0000
0000
ENDCHAR
STARTCHAR uni04D8
ENCODING 1240
SWIDTH 666 0
DWIDTH 15 0
BBX 15 30 0 -7
BITMAP
0000
0000
0000
0000
0000
0ff0
1ff8
381c
300c
300c
000c
000c
000c
000c
3ffc
3ffc
300c
300c
300c
300c
300c
300c
381c
1ff8
0ff0
0000
0000
0000
0000
0000
ENDCHAR
STARTCHAR afii10846
ENCODING 1241
SWIDTH 666 0
DWIDTH 15 0
BBX 15 30 0 -7
BITMAP
0000
0000
0000
0000
0000
0000
0000
0000
0000
0000
0000
1ff0
3ff8
301c
000c
000c
000c
3ffc
3ffc
300c
300c
300c
381c
1ff8
0ff0
0000
0000
0000
0000
0000
ENDCHAR
STARTCHAR uni04DA
ENCODING 1242
SWIDTH 666 0
DWIDTH 15 0
BBX 15 30 0 -7
BITMAP
0000
0c30
0c30
0c30
0c30
0000
0ff0
1ff8
381c
300c
300c
000c
000c
000c
000c
3ffc
3ffc
300c
300c
300c
300c
300c
300c
381c
1ff8
0ff0
0000
0000
0000
0000
ENDCHAR
STARTCHAR uni04DB
ENCODING 1243
SWIDTH 666 0
DWIDTH 15 0
BBX 15 30 0 -7
BITMAP
0000
0000
0000
0000
0000
0c30
0c30
0c30
0c30
0000
0000
1ff0
3ff8
301c
000c
000c
000c
3ffc
3ffc
300c
300c
300c
381c
1ff8
0ff0
0000
0000
0000
0000
0000
ENDCHAR
STARTCHAR uni04DC
ENCODING 1244
SWIDTH 666 0
DWIDTH 15 0
BBX 15 30 0 -7
BITMAP
0000
0c30
0c30
0c30
0c30
0000
318c
318c
318c
318c
318c
318c
399c
1db8
0ff0
07e0
0ff0
1db8
399c
318c
318c
318c
318c
318c
318c
318c
0000
0000
0000
0000
ENDCHAR
STARTCHAR uni04DD
ENCODING 1245
SWIDTH 666 0
DWIDTH 15 0
BBX 15 30 0 -7
BITMAP
0000
0000
0000
0000
0000
0c30
0c30
0c30
0c30
0000
0000
318c
318c
318c
399c
1db8
0ff0
07e0
0ff0
1db8
399c
318c
318c
318c
318c
0000
0000
0000
0000
0000
ENDCHAR
STARTCHAR uni04DE
ENCODING 1246
SWIDTH 666 0
DWIDTH 15 0
BBX 15 30 0 -7
BITMAP
0000
0c30
0c30
0c30
0c30
0000
0ff0
1ff8
381c
300c
300c
000c
000c
000c
001c
07f8
07f8
001c
000c
000c
000c
300c
300c
381c
1ff8
0ff0
0000
0000
0000
0000
ENDCHAR
STARTCHAR uni04DF
ENCODING 1247
SWIDTH 666 0
DWIDTH 15 0
BBX 15 30 0 -7
BITMAP
0000
0000
0000
0000
0000
0c30
0c30
0c30
0c30
0000
0000
0ff0
1ff8
381c
300c
000c
001c
03f8
03f8
001c
000c
300c
381c
1ff8
0ff0
0000
0000
0000
0000
0000
ENDCHAR
STARTCHAR uni04E2
ENCODING 1250
SWIDTH 666 0
DWIDTH 15 0
BBX 15 30 0 -7
BITMAP
0000
0ff0
0ff0
0000
0000
300c
300c
300c
300c
300c
301c
303c
307c
30ec
31cc
338c
370c
3e0c
3c0c
380c
300c
300c
300c
300c
300c
0000
0000
0000
0000
0000
ENDCHAR
STARTCHAR uni04E3
ENCODING 1251
SWIDTH 666 0
DWIDTH 15 0
BBX 15 30 0 -7
BITMAP
0000
0000
0000
0000
0000
0000
0000
0ff0
0ff0
0000
0000
300c
300c
300c
300c
300c
300c
300c
300c
300c
300c
300c
380c
1ffc
0ffc
0000
0000
0000
0000
0000
ENDCHAR
STARTCHAR uni04E4
ENCODING 1252
SWIDTH 666 0
DWIDTH 15 0
BBX 15 30 0 -7
BITMAP
0000
0c30
0c30
0c30
0c30
0000
300c
300c
300c
300c
300c
301c
303c
307c
30ec
31cc
338c
370c
3e0c
3c0c
380c
300c
300c
300c
300c
300c
0000
0000
0000
0000
ENDCHAR
STARTCHAR uni04E5
ENCODING 1253
SWIDTH 666 0
DWIDTH 15 0
BBX 15 30 0 -7
BITMAP
0000
0000
0000
0000
0000
0c30
0c30
0c30
0c30
0000
0000
300c
300c
300c
300c
300c
300c
300c
300c
300c
300c
300c
380c
1ffc
0ffc
0000
0000
0000
0000
0000
ENDCHAR
STARTCHAR uni04E6
ENCODING 1254
SWIDTH 666 0
DWIDTH 15 0
BBX 15 30 0 -7
BITMAP
0000
0c30
0c30
0c30
0c30
0000
0ff0
1ff8
381c
300c
300c
300c
300c
300c
300c
300c
300c
300c
300c
300c
300c
300c
300c
381c
1ff8
0ff0
0000
0000
0000
0000
ENDCHAR
STARTCHAR uni04E7
ENCODING 1255
SWIDTH 666 0
DWIDTH 15 0
BBX 15 30 0 -7
BITMAP
0000
0000
0000
0000
0000
0c30
0c30
0c30
0c30
0000
0000
0ff0
1ff8
381c
300c
300c
300c
300c
300c
300c
300c
300c
381c
1ff8
0ff0
0000
0000
0000
0000
0000
ENDCHAR
STARTCHAR uni04E8
ENCODING 1256
SWIDTH 666 0
DWIDTH 15 0
BBX 15 30 0 -7
BITMAP
0000
0000
0000
0000
0000
0ff0
1ff8
381c
300c
300c
300c
300c
300c
300c
3ffc
3ffc
300c
300c
300c
300c
300c
300c
381c
1ff8
0ff0
0000
0000
0000
0000
0000
ENDCHAR
STARTCHAR uni04E9
ENCODING 1257
SWIDTH 666 0
DWIDTH 15 0
BBX 15 30 0 -7
BITMAP
0000
0000
0000
0000
0000
0000
0000
0000
0000
0000
0000
0ff0
1ff8
381c
300c
300c
300c
3ffc
3ffc
300c
300c
300c
381c
1ff8
0ff0
0000
0000
0000
0000
0000
ENDCHAR
STARTCHAR uni04EA
ENCODING 1258
SWIDTH 666 0
DWIDTH 15 0
BBX 15 30 0 -7
BITMAP
0000
0c30
0c30
0c30
0c30
0000
0ff0
1ff8
381c
300c
300c
300c
300c
300c
300c
3ffc
3ffc
300c
300c
300c
300c
300c
300c
381c
1ff8
0ff0
0000
0000
0000
0000
ENDCHAR
STARTCHAR uni04EB
ENCODING 1259
SWIDTH 666 0
DWIDTH 15 0
BBX 15 30 0 -7
BITMAP
0000
0000
0000
0000
0000
0c30
0c30
0c30
0c30
0000
0000
0ff0
1ff8
381c
300c
300c
300c
3ffc
3ffc
300c
300c
300c
381c
1ff8
0ff0
0000
0000
0000
0000
0000
ENDCHAR
STARTCHAR uni04EC
ENCODING 1260
SWIDTH 666 0
DWIDTH 15 0
BBX 15 30 0 -7
BITMAP
0000
0c30
0c30
0c30
0c30
0000
0ff0
1ff8
381c
300c
300c
000c
000c
000c
000c
07fc
07fc
000c
000c
000c
000c
300c
300c
381c
1ff8
0ff0
0000
0000
0000
0000
ENDCHAR
STARTCHAR uni04ED
ENCODING 1261
SWIDTH 666 0
DWIDTH 15 0
BBX 15 30 0 -7
BITMAP
0000
0000
0000
0000
0000
0c30
0c30
0c30
0c30
0000
0000
0ff0
1ff8
381c
300c
000c
000c
03fc
03fc
000c
000c
300c
381c
1ff8
0ff0
0000
0000
0000
0000
0000
ENDCHAR
STARTCHAR uni04EE
ENCODING 1262
SWIDTH 666 0
DWIDTH 15 0
BBX 15 30 0 -7
BITMAP
0000
0ff0
0ff0
0000
0000
300c
300c
300c
300c
300c
300c
300c
300c
300c
380c
1ffc
0ffc
000c
000c
000c
000c
000c
001c
1ff8
1ff0
0000
0000
0000
0000
0000
ENDCHAR
STARTCHAR uni04EF
ENCODING 1263
SWIDTH 666 0
DWIDTH 15 0
BBX 15 30 0 -7
BITMAP
0000
0000
0000
0000
0000
0000
0000
0ff0
0ff0
0000
0000
300c
300c
300c
300c
300c
300c
300c
300c
300c
300c
300c
380c
1ffc
0ffc
000c
001c
1ff8
1ff0
0000
ENDCHAR
STARTCHAR uni04F0
ENCODING 1264
SWIDTH 666 0
DWIDTH 15 0
BBX 15 30 0 -7
BITMAP
0000
0c30
0c30
0c30
0c30
0000
300c
300c
300c
300c
300c
300c
300c
300c
300c
380c
1ffc
0ffc
000c
000c
000c
000c
000c
001c
1ff8
1ff0
0000
0000
0000
0000
ENDCHAR
STARTCHAR uni04F1
ENCODING 1265
SWIDTH 666 0
DWIDTH 15 0
BBX 15 30 0 -7
BITMAP
0000
0000
0000
0000
0000
0c30
0c30
0c30
0c30
0000
0000
300c
300c
300c
300c
300c
300c
300c
300c
300c
300c
300c
380c
1ffc
0ffc
000c
001c
1ff8
1ff0
0000
ENDCHAR
STARTCHAR uni04F2
ENCODING 1266
SWIDTH 666 0
DWIDTH 15 0
BBX 15 30 0 -7
BITMAP
0000
039c
0738
0e70
1ce0
0000
6018
6018
6018
6018
6018
6018
6018
6018
6018
7018
3ff8
1ff8
0018
0018
0018
0018
0018
0038
3ff0
3fe0
0000
0000
0000
0000
ENDCHAR
STARTCHAR uni04F3
ENCODING 1267
SWIDTH 666 0
DWIDTH 15 0
BBX 15 30 0 -7
BITMAP
0000
0000
0000
0000
0000
039c
0738
0e70
1ce0
0000
0000
6018
6018
6018
6018
6018
6018
6018
6018
6018
6018
6018
7018
3ff8
1ff8
0018
0038
3ff0
3fe0
0000
ENDCHAR
STARTCHAR uni04F4
ENCODING 1268
SWIDTH 666 0
DWIDTH 15 0
BBX 15 30 0 -7
BITMAP
0000
0c30
0c30
0c30
0c30
0000
300c
300c
300c
300c
300c
300c
300c
300c
300c
380c
1ffc
0ffc
000c
000c
000c
000c
000c
000c
000c
000c
0000
0000
0000
0000
ENDCHAR
STARTCHAR uni04F5
ENCODING 1269
SWIDTH 666 0
DWIDTH 15 0
BBX 15 30 0 -7
BITMAP
0000
0000
0000
0000
0000
0c30
0c30
0c30
0c30
0000
0000
300c
300c
300c
300c
300c
380c
1ffc
0ffc
000c
000c
000c
000c
000c
000c
0000
0000
0000
0000
0000
ENDCHAR
STARTCHAR uni04F8
ENCODING 1272
SWIDTH 666 0
DWIDTH 15 0
BBX 15 30 0 -7
BITMAP
0000
0c30
0c30
0c30
0c30
0000
600c
600c
600c
600c
600c
600c
7f0c
7f8c
61cc
60cc
60cc
60cc
60cc
60cc
60cc
60cc
60cc
61cc
7f8c
7f0c
0000
0000
0000
0000
ENDCHAR
STARTCHAR uni04F9
ENCODING 1273
SWIDTH 666 0
DWIDTH 15 0
BBX 15 30 0 -7
BITMAP
0000
0000
0000
0000
0000
0c30
0c30
0c30
0c30
0000
0000
600c
600c
600c
600c
7f0c
7f8c
61cc
60cc
60cc
60cc
60cc
61cc
7f8c
7f0c
0000
0000
0000
0000
0000
ENDCHAR
STARTCHAR afii57664
ENCODING 1488
SWIDTH 666 0
DWIDTH 15 0
BBX 15 30 0 -7
BITMAP
0000
0000
0000
0000
0000
300c
300c
180c
180c
0c0c
0c0c
060c
061c
0338
07f0
0fe0
1cc0
3860
3060
3030
3030
3018
3018
300c
300c
0000
0000
0000
0000
0000
ENDCHAR
STARTCHAR afii57665
ENCODING 1489
SWIDTH 666 0
DWIDTH 15 0
BBX 15 30 0 -7
BITMAP
0000
0000
0000
0000
0000
7fc0
7fe0
0070
0030
0030
0030
0030
0030
0030
0030
0030
0030
0030
0030
0030
0030
0030
0030
7ffc
7ffc
0000
0000
0000
0000
0000
ENDCHAR
STARTCHAR afii57666
ENCODING 1490
SWIDTH 666 0
DWIDTH 15 0
BBX 15 30 0 -7
BITMAP
0000
0000
0000
0000
0000
1f80
1fc0
00e0
0060
0060
0060
0060
0060
0060
0060
0060
0060
00f0
01f0
0398
0718
0e0c
1c0c
3806
7006
0000
0000
0000
0000
0000
ENDCHAR
STARTCHAR afii57667
ENCODING 1491
SWIDTH 666 0
DWIDTH 15 0
BBX 15 30 0 -7
BITMAP
0000
0000
0000
0000
0000
7ffc
7ffc
0030
0030
0030
0030
0030
0030
0030
0030
0030
0030
0030
0030
0030
0030
0030
0030
0030
0030
0000
0000
0000
0000
0000
ENDCHAR
STARTCHAR afii57668
ENCODING 1492
SWIDTH 666 0
DWIDTH 15 0
BBX 15 30 0 -7
BITMAP
0000
0000
0000
0000
0000
3ff0
3ff8
001c
000c
000c
000c
300c
300c
300c
300c
300c
300c
300c
300c
300c
300c
300c
300c
300c
300c
0000
0000
0000
0000
0000
ENDCHAR
STARTCHAR afii57669
ENCODING 1493
SWIDTH 666 0
DWIDTH 15 0
BBX 15 30 0 -7
BITMAP
0000
0000
0000
0000
0000
1e00
1f00
0380
0180
0180
0180
0180
0180
0180
0180
0180
0180
0180
0180
0180
0180
0180
0180
0180
0180
0000
0000
0000
0000
0000
ENDCHAR
STARTCHAR afii57670
ENCODING 1494
SWIDTH 666 0
DWIDTH 15 0
BBX 15 30 0 -7
BITMAP
0000
0000
0000
0000
0000
1ff8
1ff8
0070
00e0
01c0
0180
0180
0180
0180
0180
0180
0180
0180
0180
0180
0180
0180
0180
0180
0180
0000
0000
0000
0000
0000
ENDCHAR
STARTCHAR afii57671
ENCODING 1495
SWIDTH 666 0
DWIDTH 15 0
BBX 15 30 0 -7
BITMAP
0000
0000
0000
0000
0000
3ff0
3ff8
301c
300c
300c
300c
300c
300c
300c
300c
300c
300c
300c
300c
300c
300c
300c
300c
300c
300c
0000
0000
0000
0000
0000
ENDCHAR
STARTCHAR afii57672
ENCODING 1496
SWIDTH 666 0
DWIDTH 15 0
BBX 15 30 0 -7
BITMAP
0000
0000
0000
0000
0000
30f0
30f8
301c
300c
300c
300c
300c
300c
300c
300c
300c
300c
300c
300c
300c
300c
300c
381c
1ff8
0ff0
0000
0000
0000
0000
0000
ENDCHAR
STARTCHAR afii57673
ENCODING 1497
SWIDTH 666 0
DWIDTH 15 0
BBX 15 30 0 -7
BITMAP
0000
0000
0000
0000
0000
1e00
1f00
0380
0180
0180
0180
0180
0180
0180
0180
0000
0000
0000
0000
0000
0000
0000
0000
0000
0000
0000
0000
0000
0000
0000
ENDCHAR
STARTCHAR afii57674
ENCODING 1498
SWIDTH 666 0
DWIDTH 15 0
BBX 15 30 0 -7
BITMAP
0000
0000
0000
0000
0000
3ff0
3ff8
001c
000c
000c
000c
000c
000c
000c
000c
000c
000c
000c
000c
000c
000c
000c
000c
000c
000c
000c
000c
000c
000c
0000
ENDCHAR
STARTCHAR afii57675
ENCODING 1499
SWIDTH 666 0
DWIDTH 15 0
BBX 15 30 0 -7
BITMAP
0000
0000
0000
0000
0000
3ff0
3ff8
001c
000c
000c
000c
000c
000c
000c
000c
000c
000c
000c
000c
000c
000c
000c
001c
3ff8
3ff0
0000
0000
0000
0000
0000
ENDCHAR
STARTCHAR afii57676
ENCODING 1500
SWIDTH 666 0
DWIDTH 15 0
BBX 15 30 0 -7
BITMAP
0000
3000
3000
3000
3000
3ffc
3ffc
000c
000c
000c
000c
000c
000c
001c
0038
0070
00e0
01c0
0380
0300
0300
0300
0300
0300
0300
0000
0000
0000
0000
0000
ENDCHAR
STARTCHAR afii57677
ENCODING 1501
SWIDTH 666 0
DWIDTH 15 0
BBX 15 30 0 -7
BITMAP
0000
0000
0000
0000
0000
3ff0
3ff8
301c
300c
300c
300c
300c
300c
300c
300c
300c
300c
300c
300c
300c
300c
300c
300c
3ffc
3ffc
0000
0000
0000
0000
0000
ENDCHAR
STARTCHAR afii57678
ENCODING 1502
SWIDTH 666 0
DWIDTH 15 0
BBX 15 30 0 -7
BITMAP
0000
0000
0000
0000
0000
e780
ffe0
7870
3030
3018
3018
3018
3018
3018
3018
3018
3018
3018
3018
3018
3018
3018
3018
31f8
31f8
0000
0000
0000
0000
0000
ENDCHAR
STARTCHAR afii57679
ENCODING 1503
SWIDTH 666 0
DWIDTH 15 0
BBX 15 30 0 -7
BITMAP
0000
0000
0000
0000
0000
1f80
1fc0
00e0
0060
0060
0060
0060
0060
0060
0060
0060
0060
0060
0060
0060
0060
0060
0060
0060
0060
0060
0060
0060
0060
0000
ENDCHAR
STARTCHAR afii57680
ENCODING 1504
SWIDTH 666 0
DWIDTH 15 0
BBX 15 30 0 -7
BITMAP
0000
0000
0000
0000
0000
0fc0
0fe0
0070
0030
0030
0030
0030
0030
0030
0030
0030
0030
0030
0030
0030
0030
0030
0030
0ff0
0ff0
0000
0000
0000
0000
0000
ENDCHAR
STARTCHAR afii57681
ENCODING 1505
SWIDTH 666 0
DWIDTH 15 0
BBX 15 30 0 -7
BITMAP
0000
0000
0000
0000
0000
ffe0
fff0
6038
6018
6018
6018
6018
6018
6018
6018
6018
6018
6018
6018
6018
6018
6018
7038
3ff0
1fe0
0000
0000
0000
0000
0000
ENDCHAR
STARTCHAR afii57682
ENCODING 1506
SWIDTH 666 0
DWIDTH 15 0
BBX 15 30 0 -7
BITMAP
0000
0000
0000
0000
0000
300c
300c
300c
180c
180c
180c
0c0c
0c0c
0c0c
0618
0618
0618
0330
0330
0330
01e0
01c0
0380
3f00
3c00
0000
0000
0000
0000
0000
ENDCHAR
STARTCHAR afii57683
ENCODING 1507
SWIDTH 666 0
DWIDTH 15 0
BBX 15 30 0 -7
BITMAP
0000
0000
0000
0000
0000
3ff0
3ff8
301c
300c
300c
300c
300c
300c
380c
1f0c
0f0c
000c
000c
000c
000c
000c
000c
000c
000c
000c
000c
000c
000c
000c
0000
ENDCHAR
STARTCHAR afii57684
ENCODING 1508
SWIDTH 666 0
DWIDTH 15 0
BBX 15 30 0 -7
BITMAP
0000
0000
0000
0000
0000
3ff0
3ff8
301c
300c
300c
300c
300c
300c
380c
1f0c
0f0c
000c
000c
000c
000c
000c
000c
001c
3ff8
3ff0
0000
0000
0000
0000
0000
ENDCHAR
STARTCHAR afii57685
ENCODING 1509
SWIDTH 666 0
DWIDTH 15 0
BBX 15 30 0 -7
BITMAP
0000
0000
0000
0000
0000
300c
300c
180c
180c
0c0c
0c1c
0638
0670
03e0
03c0
0180
0180
0180
0180
0180
0180
0180
0180
0180
0180
0180
0180
0180
0180
0000
ENDCHAR
STARTCHAR afii57686
ENCODING 1510
SWIDTH 666 0
DWIDTH 15 0
BBX 15 30 0 -7
BITMAP
0000
0000
0000
0000
0000
300c
300c
180c
180c
0c0c
0c1c
0638
0670
03e0
03c0
0180
0180
00c0
00c0
0060
0060
0030
0030
3ff8
3ff8
0000
0000
0000
0000
0000
ENDCHAR
STARTCHAR afii57687
ENCODING 1511
SWIDTH 666 0
DWIDTH 15 0
BBX 15 30 0 -7
BITMAP
0000
0000
0000
0000
0000
3ffc
3ffc
000c
000c
000c
000c
300c
300c
301c
3038
3070
30e0
31c0
3380
3300
3300
3300
3300
3300
3300
3000
3000
3000
3000
0000
ENDCHAR
STARTCHAR afii57688
ENCODING 1512
SWIDTH 666 0
DWIDTH 15 0
BBX 15 30 0 -7
BITMAP
0000
0000
0000
0000
0000
3ff0
3ff8
001c
000c
000c
000c
000c
000c
000c
000c
000c
000c
000c
000c
000c
000c
000c
000c
000c
000c
0000
0000
0000
0000
0000
ENDCHAR
STARTCHAR afii57689
ENCODING 1513
SWIDTH 666 0
DWIDTH 15 0
BBX 15 30 0 -7
BITMAP
0000
0000
0000
0000
0000
318c
318c
318c
318c
318c
318c
318c
318c
318c
338c
3f0c
3e0c
300c
300c
300c
300c
300c
301c
3ff8
3ff0
0000
0000
0000
0000
0000
ENDCHAR
STARTCHAR afii57690
ENCODING 1514
SWIDTH 666 0
DWIDTH 15 0
BBX 15 30 0 -7
BITMAP
0000
0000
0000
0000
0000
ffe0
fff0
6038
6018
6018
6018
6018
6018
6018
6018
6018
6018
6018
6018
6018
6018
6018
6018
e018
c018
0000
0000
0000
0000
0000
ENDCHAR
STARTCHAR uni1E0C
ENCODING 7692
SWIDTH 666 0
DWIDTH 15 0
BBX 15 30 0 -7
BITMAP
0000
0000
0000
0000
0000
3fc0
3ff0
3038
3018
300c
300c
300c
300c
300c
300c
300c
300c
300c
300c
300c
300c
3018
3038
3ff0
3fc0
0000
0300
0300
0300
0000
ENDCHAR
STARTCHAR uni1E0D
ENCODING 7693
SWIDTH 666 0
DWIDTH 15 0
BBX 15 30 0 -7
BITMAP
0000
0000
0000
0000
0000
000c
000c
000c
000c
000c
000c
0ffc
1ffc
380c
300c
300c
300c
300c
300c
300c
300c
300c
380c
1ffc
0ffc
0000
00c0
00c0
00c0
0000
ENDCHAR
STARTCHAR Klinebelow
ENCODING 7732
SWIDTH 666 0
DWIDTH 15 0
BBX 15 30 0 -7
BITMAP
0000
0000
0000
0000
0000
300c
301c
3038
3070
30e0
31c0
3380
3700
3e00
3c00
3c00
3e00
3700
3380
31c0
30e0
3070
3038
301c
300c
0000
0000
0ff0
0ff0
0000
ENDCHAR
STARTCHAR klinebelow
ENCODING 7733
SWIDTH 666 0
DWIDTH 15 0
BBX 15 30 0 -7
BITMAP
0000
0000
0000
0000
0000
1800
1800
1800
1800
1800
1800
181c
1838
1870
18e0
19c0
1b80
1f00
1f00
1b80
19c0
18e0
1870
1838
181c
0000
0000
07f0
07f0
0000
ENDCHAR
STARTCHAR uni1E36
ENCODING 7734
SWIDTH 666 0
DWIDTH 15 0
BBX 15 30 0 -7
BITMAP
0000
0000
0000
0000
0000
3000
3000
3000
3000
3000
3000
3000
3000
3000
3000
3000
3000
3000
3000
3000
3000
3000
3000
3ffc
3ffc
0000
0180
0180
0180
0000
ENDCHAR
STARTCHAR uni1E37
ENCODING 7735
SWIDTH 666 0
DWIDTH 15 0
BBX 15 30 0 -7
BITMAP
0000
0000
0000
0000
0000
0780
0780
0180
0180
0180
0180
0180
0180
0180
0180
0180
0180
0180
0180
0180
0180
0180
0180
07e0
07e0
0000
0180
0180
0180
0000
ENDCHAR
STARTCHAR uni1E40
ENCODING 7744
SWIDTH 666 0
DWIDTH 15 0
BBX 15 30 0 -7
BITMAP
0000
0180
0180
0180
0180
0000
600c
600c
701c
783c
6c6c
6c6c
67cc
638c
638c
610c
600c
600c
600c
600c
600c
600c
600c
600c
600c
600c
0000
0000
0000
0000
ENDCHAR
STARTCHAR uni1E41
ENCODING 7745
SWIDTH 666 0
DWIDTH 15 0
BBX 15 30 0 -7
BITMAP
0000
0000
0000
0000
0000
0180
0180
0180
0180
0000
0000
3ff0
3ff8
319c
318c
318c
318c
318c
318c
318c
318c
318c
318c
318c
318c
0000
0000
0000
0000
0000
ENDCHAR
STARTCHAR uni1E42
ENCODING 7746
SWIDTH 666 0
DWIDTH 15 0
BBX 15 30 0 -7
BITMAP
0000
0000
0000
0000
0000
600c
600c
701c
783c
6c6c
6c6c
67cc
638c
638c
610c
600c
600c
600c
600c
600c
600c
600c
600c
600c
600c
0000
0180
0180
0180
0000
ENDCHAR
STARTCHAR uni1E43
ENCODING 7747
SWIDTH 666 0
DWIDTH 15 0
BBX 15 30 0 -7
BITMAP
0000
0000
0000
0000
0000
0000
0000
0000
0000
0000
0000
3ff0
3ff8
319c
318c
318c
318c
318c
318c
318c
318c
318c
318c
318c
318c
0000
0180
0180
0180
0000
ENDCHAR
STARTCHAR uni1E44
ENCODING 7748
SWIDTH 666 0
DWIDTH 15 0
BBX 15 30 0 -7
BITMAP
0000
0180
0180
0180
0180
0000
300c
300c
300c
300c
300c
380c
3c0c
3e0c
370c
338c
31cc
30ec
307c
303c
301c
300c
300c
300c
300c
300c
0000
0000
0000
0000
ENDCHAR
STARTCHAR uni1E45
ENCODING 7749
SWIDTH 666 0
DWIDTH 15 0
BBX 15 30 0 -7
BITMAP
0000
0000
0000
0000
0000
0180
0180
0180
0180
0000
0000
3ff0
3ff8
301c
300c
300c
300c
300c
300c
300c
300c
300c
300c
300c
300c
0000
0000
0000
0000
0000
ENDCHAR
STARTCHAR uni1E46
ENCODING 7750
SWIDTH 666 0
DWIDTH 15 0
BBX 15 30 0 -7
BITMAP
0000
0000
0000
0000
0000
300c
300c
300c
300c
300c
380c
3c0c
3e0c
370c
338c
31cc
30ec
307c
303c
301c
300c
300c
300c
300c
300c
0000
0180
0180
0180
0000
ENDCHAR
STARTCHAR uni1E47
ENCODING 7751
SWIDTH 666 0
DWIDTH 15 0
BBX 15 30 0 -7
BITMAP
0000
0000
0000
0000
0000
0000
0000
0000
0000
0000
0000
3ff0
3ff8
301c
300c
300c
300c
300c
300c
300c
300c
300c
300c
300c
300c
0000
0180
0180
0180
0000
ENDCHAR
STARTCHAR uni1E6C
ENCODING 7788
SWIDTH 666 0
DWIDTH 15 0
BBX 15 30 0 -7
BITMAP
0000
0000
0000
0000
0000
3ffc
3ffc
0180
0180
0180
0180
0180
0180
0180
0180
0180
0180
0180
0180
0180
0180
0180
0180
0180
0180
0000
0180
0180
0180
0000
ENDCHAR
STARTCHAR uni1E6D
ENCODING 7789
SWIDTH 666 0
DWIDTH 15 0
BBX 15 30 0 -7
BITMAP
0000
0000
0000
0000
0000
0300
0300
0300
0300
0300
0300
3ff0
3ff0
0300
0300
0300
0300
0300
0300
0300
0300
0300
0380
01fc
00fc
0000
0030
0030
0030
0000
ENDCHAR
STARTCHAR Edotbelow
ENCODING 7864
SWIDTH 666 0
DWIDTH 15 0
BBX 15 30 0 -7
BITMAP
0000
0000
0000
0000
0000
3ffc
3ffc
3000
3000
3000
3000
3000
3000
3000
3fe0
3fe0
3000
3000
3000
3000
3000
3000
3000
3ffc
3ffc
0000
0180
0180
0180
0000
ENDCHAR
STARTCHAR edotbelow
ENCODING 7865
SWIDTH 666 0
DWIDTH 15 0
BBX 15 30 0 -7
BITMAP
0000
0000
0000
0000
0000
0000
0000
0000
0000
0000
0000
0ff0
1ff8
381c
300c
300c
300c
3ffc
3ffc
3000
3000
3000
380c
1ffc
0ff8
0000
0180
0180
0180
0000
ENDCHAR
STARTCHAR Etilde
ENCODING 7868
SWIDTH 666 0
DWIDTH 15 0
BBX 15 30 0 -7
BITMAP
0000
0f18
1b98
19d8
18f0
0000
3ffc
3ffc
3000
3000
3000
3000
3000
3000
3000
3fe0
3fe0
3000
3000
3000
3000
3000
3000
3000
3ffc
3ffc
0000
0000
0000
0000
ENDCHAR
STARTCHAR etilde
ENCODING 7869
SWIDTH 666 0
DWIDTH 15 0
BBX 15 30 0 -7
BITMAP
0000
0000
0000
0000
0000
0f18
1b98
19d8
18f0
0000
0000
0ff0
1ff8
381c
300c
300c
300c
3ffc
3ffc
3000
3000
3000
380c
1ffc
0ff8
0000
0000
0000
0000
0000
ENDCHAR
STARTCHAR uni1ECA
ENCODING 7882
SWIDTH 666 0
DWIDTH 15 0
BBX 15 30 0 -7
BITMAP
0000
0000
0000
0000
0000
07e0
07e0
0180
0180
0180
0180
0180
0180
0180
0180
0180
0180
0180
0180
0180
0180
0180
0180
07e0
07e0
0000
0180
0180
0180
0000
ENDCHAR
STARTCHAR uni1ECB
ENCODING 7883
SWIDTH 666 0
DWIDTH 15 0
BBX 15 30 0 -7
BITMAP
0000
0000
0000
0000
0000
0180
0180
0180
0180
0000
0000
0780
0780
0180
0180
0180
0180
0180
0180
0180
0180
0180
0180
07e0
07e0
0000
0180
0180
0180
0000
ENDCHAR
STARTCHAR Odotbelow
ENCODING 7884
SWIDTH 666 0
DWIDTH 15 0
BBX 15 30 0 -7
BITMAP
0000
0000
0000
0000
0000
0ff0
1ff8
381c
300c
300c
300c
300c
300c
300c
300c
300c
300c
300c
300c
300c
300c
300c
381c
1ff8
0ff0
0000
0180
0180
0180
0000
ENDCHAR
STARTCHAR odotbelow
ENCODING 7885
SWIDTH 666 0
DWIDTH 15 0
BBX 15 30 0 -7
BITMAP
0000
0000
0000
0000
0000
0000
0000
0000
0000
0000
0000
0ff0
1ff8
381c
300c
300c
300c
300c
300c
300c
300c
300c
381c
1ff8
0ff0
0000
0180
0180
0180
0000
ENDCHAR
STARTCHAR uni1EE4
ENCODING 7908
SWIDTH 666 0
DWIDTH 15 0
BBX 15 30 0 -7
BITMAP
0000
0000
0000
0000
0000
300c
300c
300c
300c
300c
300c
300c
300c
300c
300c
300c
300c
300c
300c
300c
300c
300c
381c
1ff8
0ff0
0000
0180
0180
0180
0000
ENDCHAR
STARTCHAR uni1EE5
ENCODING 7909
SWIDTH 666 0
DWIDTH 15 0
BBX 15 30 0 -7
BITMAP
0000
0000
0000
0000
0000
0000
0000
0000
0000
0000
0000
300c
300c
300c
300c
300c
300c
300c
300c
300c
300c
300c
380c
1ffc
0ffc
0000
00c0
00c0
00c0
0000
ENDCHAR
STARTCHAR Ytilde
ENCODING 7928
SWIDTH 666 0
DWIDTH 15 0
BBX 15 30 0 -7
BITMAP
0000
0f18
1b98
19d8
18f0
0000
300c
300c
300c
1818
1818
0c30
0c30
0660
0660
03c0
03c0
0180
0180
0180
0180
0180
0180
0180
0180
0180
0000
0000
0000
0000
ENDCHAR
STARTCHAR ytilde
ENCODING 7929
SWIDTH 666 0
DWIDTH 15 0
BBX 15 30 0 -7
BITMAP
0000
0000
0000
0000
0000
0f18
1b98
19d8
18f0
0000
0000
300c
300c
300c
300c
300c
300c
300c
300c
300c
300c
300c
380c
1ffc
0ffc
000c
001c
1ff8
1ff0
0000
ENDCHAR
STARTCHAR uni2000
ENCODING 8192
SWIDTH 666 0
DWIDTH 15 0
BBX 15 30 0 -7
BITMAP
0000
0000
0000
0000
0000
0000
0000
0000
0000
0000
0000
0000
0000
0000
0000
0000
0000
0000
0000
0000
0000
0000
0000
0000
0000
0000
0000
0000
0000
0000
ENDCHAR
STARTCHAR uni2001
ENCODING 8193
SWIDTH 666 0
DWIDTH 15 0
BBX 15 30 0 -7
BITMAP
0000
0000
0000
0000
0000
0000
0000
0000
0000
0000
0000
0000
0000
0000
0000
0000
0000
0000
0000
0000
0000
0000
0000
0000
0000
0000
0000
0000
0000
0000
ENDCHAR
STARTCHAR enspace
ENCODING 8194
SWIDTH 666 0
DWIDTH 15 0
BBX 15 30 0 -7
BITMAP
0000
0000
0000
0000
0000
0000
0000
0000
0000
0000
0000
0000
0000
0000
0000
0000
0000
0000
0000
0000
0000
0000
0000
0000
0000
0000
0000
0000
0000
0000
ENDCHAR
STARTCHAR uni2003
ENCODING 8195
SWIDTH 666 0
DWIDTH 15 0
BBX 15 30 0 -7
BITMAP
0000
0000
0000
0000
0000
0000
0000
0000
0000
0000
0000
0000
0000
0000
0000
0000
0000
0000
0000
0000
0000
0000
0000
0000
0000
0000
0000
0000
0000
0000
ENDCHAR
STARTCHAR uni2004
ENCODING 8196
SWIDTH 666 0
DWIDTH 15 0
BBX 15 30 0 -7
BITMAP
0000
0000
0000
0000
0000
0000
0000
0000
0000
0000
0000
0000
0000
0000
0000
0000
0000
0000
0000
0000
0000
0000
0000
0000
0000
0000
0000
0000
0000
0000
ENDCHAR
STARTCHAR uni2005
ENCODING 8197
SWIDTH 666 0
DWIDTH 15 0
BBX 15 30 0 -7
BITMAP
0000
0000
0000
0000
0000
0000
0000
0000
0000
0000
0000
0000
0000
0000
0000
0000
0000
0000
0000
0000
0000
0000
0000
0000
0000
0000
0000
0000
0000
0000
ENDCHAR
STARTCHAR uni2006
ENCODING 8198
SWIDTH 666 0
DWIDTH 15 0
BBX 15 30 0 -7
BITMAP
0000
0000
0000
0000
0000
0000
0000
0000
0000
0000
0000
0000
0000
0000
0000
0000
0000
0000
0000
0000
0000
0000
0000
0000
0000
0000
0000
0000
0000
0000
ENDCHAR
STARTCHAR uni2007
ENCODING 8199
SWIDTH 666 0
DWIDTH 15 0
BBX 15 30 0 -7
BITMAP
0000
0000
0000
0000
0000
0000
0000
0000
0000
0000
0000
0000
0000
0000
0000
0000
0000
0000
0000
0000
0000
0000
0000
0000
0000
0000
0000
0000
0000
0000
ENDCHAR
STARTCHAR uni2008
ENCODING 8200
SWIDTH 666 0
DWIDTH 15 0
BBX 15 30 0 -7
BITMAP
0000
0000
0000
0000
0000
0000
0000
0000
0000
0000
0000
0000
0000
0000
0000
0000
0000
0000
0000
0000
0000
0000
0000
0000
0000
0000
0000
0000
0000
0000
ENDCHAR
STARTCHAR uni2009
ENCODING 8201
SWIDTH 666 0
DWIDTH 15 0
BBX 15 30 0 -7
BITMAP
0000
0000
0000
0000
0000
0000
0000
0000
0000
0000
0000
0000
0000
0000
0000
0000
0000
0000
0000
0000
0000
0000
0000
0000
0000
0000
0000
0000
0000
0000
ENDCHAR
STARTCHAR uni200A
ENCODING 8202
SWIDTH 666 0
DWIDTH 15 0
BBX 15 30 0 -7
BITMAP
0000
0000
0000
0000
0000
0000
0000
0000
0000
0000
0000
0000
0000
0000
0000
0000
0000
0000
0000
0000
0000
0000
0000
0000
0000
0000
0000
0000
0000
0000
ENDCHAR
STARTCHAR uni200B
ENCODING 8203
SWIDTH 666 0
DWIDTH 15 0
BBX 15 30 0 -7
BITMAP
0000
0000
0000
0000
0000
0000
0000
0000
0000
0000
0000
0000
0000
0000
0000
0000
0000
0000
0000
0000
0000
0000
0000
0000
0000
0000
0000
0000
0000
0000
ENDCHAR
STARTCHAR afii61664
ENCODING 8204
SWIDTH 666 0
DWIDTH 15 0
BBX 15 30 0 -7
BITMAP
0000
0000
0000
0000
0000
0000
0000
0000
0000
0000
0000
0000
0000
0000
0000
0000
0000
0000
0000
0000
0000
0000
0000
0000
0000
0000
0000
0000
0000
0000
ENDCHAR
STARTCHAR afii301
ENCODING 8205
SWIDTH 666 0
DWIDTH 15 0
BBX 15 30 0 -7
BITMAP
0000
0000
0000
0000
0000
0000
0000
0000
0000
0000
0000
0000
0000
0000
0000
0000
0000
0000
0000
0000
0000
0000
0000
0000
0000
0000
0000
0000
0000
0000
ENDCHAR
STARTCHAR afii299
ENCODING 8206
SWIDTH 666 0
DWIDTH 15 0
BBX 15 30 0 -7
BITMAP
0000
0000
0000
0000
0000
0000
0000
0000
0000
0000
0000
0000
0000
0000
0000
0000
0000
0000
0000
0000
0000
0000
0000
0000
0000
0000
0000
0000
0000
0000
ENDCHAR
STARTCHAR afii300
ENCODING 8207
SWIDTH 666 0
DWIDTH 15 0
BBX 15 30 0 -7
BITMAP
0000
0000
0000
0000
0000
0000
0000
0000
0000
0000
0000
0000
0000
0000
0000
0000
0000
0000
0000
0000
0000
0000
0000
0000
0000
0000
0000
0000
0000
0000
ENDCHAR
STARTCHAR hyphentwo
ENCODING 8208
SWIDTH 666 0
DWIDTH 15 0
BBX 15 30 0 -7
BITMAP
0000
0000
0000
0000
0000
0000
0000
0000
0000
0000
0000
0000
0000
0000
1ff8
1ff8
0000
0000
0000
0000
0000
0000
0000
0000
0000
0000
0000
0000
0000
0000
ENDCHAR
STARTCHAR uni2011
ENCODING 8209
SWIDTH 666 0
DWIDTH 15 0
BBX 15 30 0 -7
BITMAP
0000
0000
0000
0000
0000
0000
0000
0000
0000
0000
0000
0000
0000
0000
1ff8
1ff8
0000
0000
0000
0000
0000
0000
0000
0000
0000
0000
0000
0000
0000
0000
ENDCHAR
STARTCHAR figuredash
ENCODING 8210
SWIDTH 666 0
DWIDTH 15 0
BBX 15 30 0 -7
BITMAP
0000
0000
0000
0000
0000
0000
0000
0000
0000
0000
0000
0000
0000
0000
3ffc
3ffc
0000
0000
0000
0000
0000
0000
0000
0000
0000
0000
0000
0000
0000
0000
ENDCHAR
STARTCHAR endash
ENCODING 8211
SWIDTH 666 0
DWIDTH 15 0
BBX 15 30 0 -7
BITMAP
0000
0000
0000
0000
0000
0000
0000
0000
0000
0000
0000
0000
0000
0000
3ffc
3ffc
0000
0000
0000
0000
0000
0000
0000
0000
0000
0000
0000
0000
0000
0000
ENDCHAR
STARTCHAR emdash
ENCODING 8212
SWIDTH 666 0
DWIDTH 15 0
BBX 15 30 0 -7
BITMAP
0000
0000
0000
0000
0000
0000
0000
0000
0000
0000
0000
0000
0000
0000
7ffc
7ffc
0000
0000
0000
0000
0000
0000
0000
0000
0000
0000
0000
0000
0000
0000
ENDCHAR
STARTCHAR afii00208
ENCODING 8213
SWIDTH 666 0
DWIDTH 15 0
BBX 15 30 0 -7
BITMAP
0000
0000
0000
0000
0000
0000
0000
0000
0000
0000
0000
0000
0000
0000
7ffc
7ffc
0000
0000
0000
0000
0000
0000
0000
0000
0000
0000
0000
0000
0000
0000
ENDCHAR
STARTCHAR dblverticalbar
ENCODING 8214
SWIDTH 666 0
DWIDTH 15 0
BBX 15 30 0 -7
BITMAP
0000
0000
0000
0000
0000
0660
0660
0660
0660
0660
0660
0660
0660
0660
0660
0660
0660
0660
0660
0660
0660
0660
0660
0660
0660
0000
0000
0000
0000
0000
ENDCHAR
STARTCHAR underscoredbl
ENCODING 8215
SWIDTH 666 0
DWIDTH 15 0
BBX 15 30 0 -7
BITMAP
0000
0000
0000
0000
0000
0000
0000
0000
0000
0000
0000
0000
0000
0000
0000
0000
0000
0000
0000
0000
0000
0000
0000
0000
0000
3ffc
3ffc
0000
0000
3ffc
ENDCHAR
STARTCHAR quoteleft
ENCODING 8216
SWIDTH 666 0
DWIDTH 15 0
BBX 15 30 0 -7
BITMAP
0000
0000
0000
00c0
00c0
0180
0180
0180
0180
0000
0000
0000
0000
0000
0000
0000
0000
0000
0000
0000
0000
0000
0000
0000
0000
0000
0000
0000
0000
0000
ENDCHAR
STARTCHAR quoteright
ENCODING 8217
SWIDTH 666 0
DWIDTH 15 0
BBX 15 30 0 -7
BITMAP
0000
0000
0000
0180
0180
0180
0180
0300
0300
0000
0000
0000
0000
0000
0000
0000
0000
0000
0000
0000
0000
0000
0000
0000
0000
0000
0000
0000
0000
0000
ENDCHAR
STARTCHAR quotesinglbase
ENCODING 8218
SWIDTH 666 0
DWIDTH 15 0
BBX 15 30 0 -7
BITMAP
0000
0000
0000
0000
0000
0000
0000
0000
0000
0000
0000
0000
0000
0000
0000
0000
0000
0000
0000
0000
0000
0180
0180
0180
0180
0300
0300
0000
0000
0000
ENDCHAR
STARTCHAR quotereversed
ENCODING 8219
SWIDTH 666 0
DWIDTH 15 0
BBX 15 30 0 -7
BITMAP
0000
0000
0000
0180
0180
0180
0180
00c0
00c0
0000
0000
0000
0000
0000
0000
0000
0000
0000
0000
0000
0000
0000
0000
0000
0000
0000
0000
0000
0000
0000
ENDCHAR
STARTCHAR quotedblleft
ENCODING 8220
SWIDTH 666 0
DWIDTH 15 0
BBX 15 30 0 -7
BITMAP
0000
0000
0000
0618
0618
0c30
0c30
0c30
0c30
0000
0000
0000
0000
0000
0000
0000
0000
0000
0000
0000
0000
0000
0000
0000
0000
0000
0000
0000
0000
0000
ENDCHAR
STARTCHAR quotedblright
ENCODING 8221
SWIDTH 666 0
DWIDTH 15 0
BBX 15 30 0 -7
BITMAP
0000
0000
0000
0618
0618
0618
0618
0c30
0c30
0000
0000
0000
0000
0000
0000
0000
0000
0000
0000
0000
0000
0000
0000
0000
0000
0000
0000
0000
0000
0000
ENDCHAR
STARTCHAR quotedblbase
ENCODING 8222
SWIDTH 666 0
DWIDTH 15 0
BBX 15 30 0 -7
BITMAP
0000
0000
0000
0000
0000
0000
0000
0000
0000
0000
0000
0000
0000
0000
0000
0000
0000
0000
0000
0000
0000
0c30
0c30
0c30
0c30
1860
1860
0000
0000
0000
ENDCHAR
STARTCHAR uni201F
ENCODING 8223
SWIDTH 666 0
DWIDTH 15 0
BBX 15 30 0 -7
BITMAP
0000
0000
0000
1860
1860
1860
1860
0c30
0c30
0000
0000
0000
0000
0000
0000
0000
0000
0000
0000
0000
0000
0000
0000
0000
0000
0000
0000
0000
0000
0000
ENDCHAR
STARTCHAR dagger
ENCODING 8224
SWIDTH 666 0
DWIDTH 15 0
BBX 15 30 0 -7
BITMAP
0000
0000
0000
0000
0000
0180
0180
0180
0180
1ff8
1ff8
0180
0180
0180
0180
0180
0180
0180
0180
0180
0180
0180
0180
0180
0180
0000
0000
0000
0000
0000
ENDCHAR
STARTCHAR daggerdbl
ENCODING 8225
SWIDTH 666 0
DWIDTH 15 0
BBX 15 30 0 -7
BITMAP
0000
0000
0000
0000
0000
0180
0180
0180
0180
1ff8
1ff8
0180
0180
0180
0180
0180
0180
0180
0180
1ff8
1ff8
0180
0180
0180
0180
0000
0000
0000
0000
0000
ENDCHAR
STARTCHAR bullet
ENCODING 8226
SWIDTH 666 0
DWIDTH 15 0
BBX 15 30 0 -7
BITMAP
0000
0000
0000
0000
0000
0000
0000
0000
0000
0000
0000
0000
03c0
07e0
07e0
07e0
07e0
03c0
0000
0000
0000
0000
0000
0000
0000
0000
0000
0000
0000
0000
ENDCHAR
STARTCHAR ellipsis
ENCODING 8230
SWIDTH 666 0
DWIDTH 15 0
BBX 15 30 0 -7
BITMAP
0000
0000
0000
0000
0000
0000
0000
0000
0000
0000
0000
0000
0000
0000
0000
0000
0000
0000
0000
0000
0000
318c
318c
318c
318c
0000
0000
0000
0000
0000
ENDCHAR
STARTCHAR perthousand
ENCODING 8240
SWIDTH 666 0
DWIDTH 15 0
BBX 15 30 0 -7
BITMAP
0000
0000
0000
0000
0000
1c30
3e30
3660
3660
3ec0
1cc0
0180
0180
0300
0300
0600
0600
0c00
0c00
19dc
1bfe
3376
3376
63fe
61dc
0000
0000
0000
0000
0000
ENDCHAR
STARTCHAR minute
ENCODING 8242
SWIDTH 666 0
DWIDTH 15 0
BBX 15 30 0 -7
BITMAP
0000
0000
0000
01c0
01c0
01c0
0180
0180
0180
0180
0180
0000
0000
0000
0000
0000
0000
0000
0000
0000
0000
0000
0000
0000
0000
0000
0000
0000
0000
0000
ENDCHAR
STARTCHAR second
ENCODING 8243
SWIDTH 666 0
DWIDTH 15 0
BBX 15 30 0 -7
BITMAP
0000
0000
0000
1c70
1c70
1c70
1860
1860
1860
1860
1860
0000
0000
0000
0000
0000
0000
0000
0000
0000
0000
0000
0000
0000
0000
0000
0000
0000
0000
0000
ENDCHAR
STARTCHAR guilsinglleft
ENCODING 8249
SWIDTH 666 0
DWIDTH 15 0
BBX 15 30 0 -7
BITMAP
0000
0000
0000
0000
0000
0000
0000
0000
0000
0000
0000
0070
00e0
01c0
0380
0700
0e00
1c00
1c00
0e00
0700
0380
01c0
00e0
0070
0000
0000
0000
0000
0000
ENDCHAR
STARTCHAR guilsinglright
ENCODING 8250
SWIDTH 666 0
DWIDTH 15 0
BBX 15 30 0 -7
BITMAP
0000
0000
0000
0000
0000
0000
0000
0000
0000
0000
0000
1c00
0e00
0700
0380
01c0
00e0
0070
0070
00e0
01c0
0380
0700
0e00
1c00
0000
0000
0000
0000
0000
ENDCHAR
STARTCHAR exclamdbl
ENCODING 8252
SWIDTH 666 0
DWIDTH 15 0
BBX 15 30 0 -7
BITMAP
0000
0000
0000
0000
0000
0c30
0c30
0c30
0c30
0c30
0c30
0c30
0c30
0c30
0c30
0c30
0c30
0c30
0000
0000
0000
0c30
0c30
0c30
0c30
0000
0000
0000
0000
0000
ENDCHAR
STARTCHAR overline
ENCODING 8254
SWIDTH 666 0
DWIDTH 15 0
BBX 15 30 0 -7
BITMAP
0000
3ffc
3ffc
0000
0000
0000
0000
0000
0000
0000
0000
0000
0000
0000
0000
0000
0000
0000
0000
0000
0000
0000
0000
0000
0000
0000
0000
0000
0000
0000
ENDCHAR
STARTCHAR uni2070
ENCODING 8304
SWIDTH 666 0
DWIDTH 15 0
BBX 15 30 0 -7
BITMAP
0000
0000
03c0
07e0
0c30
0c30
0c30
0c30
0c30
0c30
0c30
07e0
03c0
0000
0000
0000
0000
0000
0000
0000
0000
0000
0000
0000
0000
0000
0000
0000
0000
0000
ENDCHAR
STARTCHAR uni2071
ENCODING 8305
SWIDTH 666 0
DWIDTH 15 0
BBX 15 30 0 -7
BITMAP
0180
0180
0000
0780
0780
0180
0180
0180
0180
0180
0180
07e0
07e0
0000
0000
0000
0000
0000
0000
0000
0000
0000
0000
0000
0000
0000
0000
0000
0000
0000
ENDCHAR
STARTCHAR uni2074
ENCODING 8308
SWIDTH 666 0
DWIDTH 15 0
BBX 15 30 0 -7
BITMAP
0000
0000
0030
0070
00f0
01f0
03b0
0730
0e30
0ff0
0ff0
0030
0030
0000
0000
0000
0000
0000
0000
0000
0000
0000
0000
0000
0000
0000
0000
0000
0000
0000
ENDCHAR
STARTCHAR uni2075
ENCODING 8309
SWIDTH 666 0
DWIDTH 15 0
BBX 15 30 0 -7
BITMAP
0000
0000
0fe0
0fe0
0c00
0c00
0fe0
0ff0
0030
0030
0c30
0ff0
07e0
0000
0000
0000
0000
0000
0000
0000
0000
0000
0000
0000
0000
0000
0000
0000
0000
0000
ENDCHAR
STARTCHAR uni2076
ENCODING 8310
SWIDTH 666 0
DWIDTH 15 0
BBX 15 30 0 -7
BITMAP
0000
0000
03e0
07e0
0c00
0c00
0fe0
0ff0
0c30
0c30
0c30
0ff0
07e0
0000
0000
0000
0000
0000
0000
0000
0000
0000
0000
0000
0000
0000
0000
0000
0000
0000
ENDCHAR
STARTCHAR uni2077
ENCODING 8311
SWIDTH 666 0
DWIDTH 15 0
BBX 15 30 0 -7
BITMAP
0000
0000
0ff0
0ff0
0c30
0030
0060
0060
00c0
00c0
0180
0180
0180
0000
0000
0000
0000
0000
0000
0000
0000
0000
0000
0000
0000
0000
0000
0000
0000
0000
ENDCHAR
STARTCHAR uni2078
ENCODING 8312
SWIDTH 666 0
DWIDTH 15 0
BBX 15 30 0 -7
BITMAP
0000
0000
07e0
0ff0
0c30
0c30
0ff0
07e0
0c30
0c30
0c30
0ff0
07e0
0000
0000
0000
0000
0000
0000
0000
0000
0000
0000
0000
0000
0000
0000
0000
0000
0000
ENDCHAR
STARTCHAR uni2079
ENCODING 8313
SWIDTH 666 0
DWIDTH 15 0
BBX 15 30 0 -7
BITMAP
0000
0000
07e0
0ff0
0c30
0c30
0c30
0ff0
07f0
0030
0030
07e0
07c0
0000
0000
0000
0000
0000
0000
0000
0000
0000
0000
0000
0000
0000
0000
0000
0000
0000
ENDCHAR
STARTCHAR uni207A
ENCODING 8314
SWIDTH 666 0
DWIDTH 15 0
BBX 15 30 0 -7
BITMAP
0000
0000
0000
0000
0180
0180
0180
0ff0
0ff0
0180
0180
0180
0000
0000
0000
0000
0000
0000
0000
0000
0000
0000
0000
0000
0000
0000
0000
0000
0000
0000
ENDCHAR
STARTCHAR uni207B
ENCODING 8315
SWIDTH 666 0
DWIDTH 15 0
BBX 15 30 0 -7
BITMAP
0000
0000
0000
0000
0000
0000
0000
1ff0
1ff0
0000
0000
0000
0000
0000
0000
0000
0000
0000
0000
0000
0000
0000
0000
0000
0000
0000
0000
0000
0000
0000
ENDCHAR
STARTCHAR uni207C
ENCODING 8316
SWIDTH 666 0
DWIDTH 15 0
BBX 15 30 0 -7
BITMAP
0000
0000
0000
0000
1ff0
1ff0
0000
0000
0000
1ff0
1ff0
0000
0000
0000
0000
0000
0000
0000
0000
0000
0000
0000
0000
0000
0000
0000
0000
0000
0000
0000
ENDCHAR
STARTCHAR uni207D
ENCODING 8317
SWIDTH 666 0
DWIDTH 15 0
BBX 15 30 0 -7
BITMAP
0000
0000
00c0
0180
0300
0300
0300
0300
0300
0300
0300
0180
00c0
0000
0000
0000
0000
0000
0000
0000
0000
0000
0000
0000
0000
0000
0000
0000
0000
0000
ENDCHAR
STARTCHAR uni207E
ENCODING 8318
SWIDTH 666 0
DWIDTH 15 0
BBX 15 30 0 -7
BITMAP
0000
0000
0300
0180
00c0
00c0
00c0
00c0
00c0
00c0
00c0
0180
0300
0000
0000
0000
0000
0000
0000
0000
0000
0000
0000
0000
0000
0000
0000
0000
0000
0000
ENDCHAR
STARTCHAR nsuperior
ENCODING 8319
SWIDTH 666 0
DWIDTH 15 0
BBX 15 30 0 -7
BITMAP
0000
0000
0000
1fc0
1fe0
1830
1830
1830
1830
1830
1830
1830
1830
0000
0000
0000
0000
0000
0000
0000
0000
0000
0000
0000
0000
0000
0000
0000
0000
0000
ENDCHAR
STARTCHAR uni2080
ENCODING 8320
SWIDTH 666 0
DWIDTH 15 0
BBX 15 30 0 -7
BITMAP
0000
0000
0000
0000
0000
0000
0000
0000
0000
0000
0000
0000
0000
0000
0000
0000
0000
03c0
07e0
0c30
0c30
0c30
0c30
0c30
0c30
0c30
07e0
03c0
0000
0000
ENDCHAR
STARTCHAR uni2081
ENCODING 8321
SWIDTH 666 0
DWIDTH 15 0
BBX 15 30 0 -7
BITMAP
0000
0000
0000
0000
0000
0000
0000
0000
0000
0000
0000
0000
0000
0000
0000
0000
0000
0180
0380
0780
0780
0180
0180
0180
0180
0180
07e0
07e0
0000
0000
ENDCHAR
STARTCHAR uni2082
ENCODING 8322
SWIDTH 666 0
DWIDTH 15 0
BBX 15 30 0 -7
BITMAP
0000
0000
0000
0000
0000
0000
0000
0000
0000
0000
0000
0000
0000
0000
0000
0000
0000
07e0
0ff0
0c30
0c30
0070
00e0
01c0
0380
0700
0ff0
0ff0
0000
0000
ENDCHAR
STARTCHAR uni2083
ENCODING 8323
SWIDTH 666 0
DWIDTH 15 0
BBX 15 30 0 -7
BITMAP
0000
0000
0000
0000
0000
0000
0000
0000
0000
0000
0000
0000
0000
0000
0000
0000
0000
07e0
0ff0
0c30
0030
01e0
01e0
0030
0030
0c30
0ff0
07e0
0000
0000
ENDCHAR
STARTCHAR uni2084
ENCODING 8324
SWIDTH 666 0
DWIDTH 15 0
BBX 15 30 0 -7
BITMAP
0000
0000
0000
0000
0000
0000
0000
0000
0000
0000
0000
0000
0000
0000
0000
0000
0000
0030
0070
00f0
01f0
03b0
0730
0e30
0ff0
0ff0
0030
0030
0000
0000
ENDCHAR
STARTCHAR uni2085
ENCODING 8325
SWIDTH 666 0
DWIDTH 15 0
BBX 15 30 0 -7
BITMAP
0000
0000
0000
0000
0000
0000
0000
0000
0000
0000
0000
0000
0000
0000
0000
0000
0000
0fe0
0fe0
0c00
0c00
0fe0
0ff0
0030
0030
0c30
0ff0
07e0
0000
0000
ENDCHAR
STARTCHAR uni2086
ENCODING 8326
SWIDTH 666 0
DWIDTH 15 0
BBX 15 30 0 -7
BITMAP
0000
0000
0000
0000
0000
0000
0000
0000
0000
0000
0000
0000
0000
0000
0000
0000
0000
03e0
07e0
0c00
0c00
0fe0
0ff0
0c30
0c30
0c30
0ff0
07e0
0000
0000
ENDCHAR
STARTCHAR uni2087
ENCODING 8327
SWIDTH 666 0
DWIDTH 15 0
BBX 15 30 0 -7
BITMAP
0000
0000
0000
0000
0000
0000
0000
0000
0000
0000
0000
0000
0000
0000
0000
0000
0000
0ff0
0ff0
0c30
0030
0060
0060
00c0
00c0
0180
0180
0180
0000
0000
ENDCHAR
STARTCHAR uni2088
ENCODING 8328
SWIDTH 666 0
DWIDTH 15 0
BBX 15 30 0 -7
BITMAP
0000
0000
0000
0000
0000
0000
0000
0000
0000
0000
0000
0000
0000
0000
0000
0000
0000
07e0
0ff0
0c30
0c30
0ff0
07e0
0c30
0c30
0c30
0ff0
07e0
0000
0000
ENDCHAR
STARTCHAR uni2089
ENCODING 8329
SWIDTH 666 0
DWIDTH 15 0
BBX 15 30 0 -7
BITMAP
0000
0000
0000
0000
0000
0000
0000
0000
0000
0000
0000
0000
0000
0000
0000
0000
0000
07e0
0ff0
0c30
0c30
0c30
0ff0
07f0
0030
0030
07e0
07c0
0000
0000
ENDCHAR
STARTCHAR uni208A
ENCODING 8330
SWIDTH 666 0
DWIDTH 15 0
BBX 15 30 0 -7
BITMAP
0000
0000
0000
0000
0000
0000
0000
0000
0000
0000
0000
0000
0000
0000
0000
0000
0000
0000
0000
0180
0180
0180
0ff0
0ff0
0180
0180
0180
0000
0000
0000
ENDCHAR
STARTCHAR uni208B
ENCODING 8331
SWIDTH 666 0
DWIDTH 15 0
BBX 15 30 0 -7
BITMAP
0000
0000
0000
0000
0000
0000
0000
0000
0000
0000
0000
0000
0000
0000
0000
0000
0000
0000
0000
0000
0000
0000
1ff0
1ff0
0000
0000
0000
0000
0000
0000
ENDCHAR
STARTCHAR uni208C
ENCODING 8332
SWIDTH 666 0
DWIDTH 15 0
BBX 15 30 0 -7
BITMAP
0000
0000
0000
0000
0000
0000
0000
0000
0000
0000
0000
0000
0000
0000
0000
0000
0000
0000
0000
1ff0
1ff0
0000
0000
0000
1ff0
1ff0
0000
0000
0000
0000
ENDCHAR
STARTCHAR uni208D
ENCODING 8333
SWIDTH 666 0
DWIDTH 15 0
BBX 15 30 0 -7
BITMAP
0000
0000
0000
0000
0000
0000
0000
0000
0000
0000
0000
0000
0000
0000
0000
0000
0000
00c0
0180
0300
0300
0300
0300
0300
0300
0300
0180
00c0
0000
0000
ENDCHAR
STARTCHAR uni208E
ENCODING 8334
SWIDTH 666 0
DWIDTH 15 0
BBX 15 30 0 -7
BITMAP
0000
0000
0000
0000
0000
0000
0000
0000
0000
0000
0000
0000
0000
0000
0000
0000
0000
0300
0180
00c0
00c0
00c0
00c0
00c0
00c0
00c0
0180
0300
0000
0000
ENDCHAR
STARTCHAR uni2090
ENCODING 8336
SWIDTH 666 0
DWIDTH 15 0
BBX 15 30 0 -7
BITMAP
0000
0000
0000
0000
0000
0000
0000
0000
0000
0000
0000
0000
0000
0000
0000
0000
0000
0000
0fc0
0fe0
0030
0030
0ff0
1ff0
1830
1830
1ff0
0ff0
0000
0000
ENDCHAR
STARTCHAR uni2091
ENCODING 8337
SWIDTH 666 0
DWIDTH 15 0
BBX 15 30 0 -7
BITMAP
0000
0000
0000
0000
0000
0000
0000
0000
0000
0000
0000
0000
0000
0000
0000
0000
0000
0000
07c0
0fe0
1830
1830
1ff0
1ff0
1800
1800
0ff0
07e0
0000
0000
ENDCHAR
STARTCHAR uni2092
ENCODING 8338
SWIDTH 666 0
DWIDTH 15 0
BBX 15 30 0 -7
BITMAP
0000
0000
0000
0000
0000
0000
0000
0000
0000
0000
0000
0000
0000
0000
0000
0000
0000
0000
07c0
0fe0
1830
1830
1830
1830
1830
1830
0fe0
07c0
0000
0000
ENDCHAR
STARTCHAR uni2093
ENCODING 8339
SWIDTH 666 0
DWIDTH 15 0
BBX 15 30 0 -7
BITMAP
0000
0000
0000
0000
0000
0000
0000
0000
0000
0000
0000
0000
0000
0000
0000
0000
0000
0000
1830
1c70
0ee0
07c0
0380
0380
07c0
0ee0
1c70
1830
0000
0000
ENDCHAR
STARTCHAR uni2094
ENCODING 8340
SWIDTH 666 0
DWIDTH 15 0
BBX 15 30 0 -7
BITMAP
0000
0000
0000
0000
0000
0000
0000
0000
0000
0000
0000
0000
0000
0000
0000
0000
0000
0000
0fc0
1fe0
0030
0030
1ff0
1ff0
1830
1830
0fe0
07c0
0000
0000
ENDCHAR
STARTCHAR uni2095
ENCODING 8341
SWIDTH 666 0
DWIDTH 15 0
BBX 15 30 0 -7
BITMAP
0000
0000
0000
0000
0000
0000
0000
0000
0000
0000
0000
0000
0000
0000
1800
1800
1800
1800
1fc0
1fe0
1830
1830
1830
1830
1830
1830
1830
1830
0000
0000
ENDCHAR
STARTCHAR uni2096
ENCODING 8342
SWIDTH 666 0
DWIDTH 15 0
BBX 15 30 0 -7
BITMAP
0000
0000
0000
0000
0000
0000
0000
0000
0000
0000
0000
0000
0000
0000
0c00
0c00
0c00
0c00
0c38
0c70
0ce0
0dc0
0f80
0f80
0dc0
0ce0
0c70
0c38
0000
0000
ENDCHAR
STARTCHAR uni2097
ENCODING 8343
SWIDTH 666 0
DWIDTH 15 0
BBX 15 30 0 -7
BITMAP
0000
0000
0000
0000
0000
0000
0000
0000
0000
0000
0000
0000
0000
0000
0780
0780
0180
0180
0180
0180
0180
0180
0180
0180
0180
0180
07e0
07e0
0000
0000
ENDCHAR
STARTCHAR uni2098
ENCODING 8344
SWIDTH 666 0
DWIDTH 15 0
BBX 15 30 0 -7
BITMAP
0000
0000
0000
0000
0000
0000
0000
0000
0000
0000
0000
0000
0000
0000
0000
0000
0000
0000
3ff0
3ff8
318c
318c
318c
318c
318c
318c
318c
318c
0000
0000
ENDCHAR
STARTCHAR uni209A
ENCODING 8346
SWIDTH 666 0
DWIDTH 15 0
BBX 15 30 0 -7
BITMAP
0000
0000
0000
0000
0000
0000
0000
0000
0000
0000
0000
0000
0000
0000
0000
0000
0000
0000
1fc0
1fe0
1830
1830
1830
1830
1830
1830
1fe0
1fc0
1800
1800
ENDCHAR
STARTCHAR peseta
ENCODING 8359
SWIDTH 666 0
DWIDTH 15 0
BBX 15 30 0 -7
BITMAP
0000
0000
0000
0000
0000
7f00
7f80
61c0
60c0
60c0
60c0
60c0
60c0
61c0
7fb0
7f30
6030
61fe
61fe
6030
6030
6030
6030
603e
601e
0000
0000
0000
0000
0000
ENDCHAR
STARTCHAR afii57636
ENCODING 8362
SWIDTH 666 0
DWIDTH 15 0
BBX 15 30 0 -7
BITMAP
0000
0000
0000
0000
0000
7f86
7fc6
60e6
6066
6066
6066
6666
6666
6666
6666
6666
6666
6666
6666
6606
6606
6606
660e
67fc
67f8
0000
0000
0000
0000
0000
ENDCHAR
STARTCHAR Euro
ENCODING 8364
SWIDTH 666 0
DWIDTH 15 0
BBX 15 30 0 -7
BITMAP
0000
0000
0000
0000
0000
07e0
0ff0
1c38
381c
7000
6000
6000
ff80
ff80
6000
6000
ff80
ff80
6000
6000
7000
381c
1c38
0ff0
07e0
0000
0000
0000
0000
0000
ENDCHAR
STARTCHAR uni20AE
ENCODING 8366
SWIDTH 666 0
DWIDTH 15 0
BBX 15 30 0 -7
BITMAP
0000
0000
0000
0000
0000
3ffc
3ffc
0180
0180
0180
0180
0180
01b8
01f0
03c0
0fb8
1df0
03c0
0f80
1d80
0180
0180
0180
0180
0180
0000
0000
0000
0000
0000
ENDCHAR
STARTCHAR uni2102
ENCODING 8450
SWIDTH 666 0
DWIDTH 15 0
BBX 15 30 0 -7
BITMAP
0000
0000
0000
0000
0000
0ff0
1ff8
3e1c
360c
360c
3600
3600
3600
3600
3600
3600
3600
3600
3600
3600
360c
360c
3e1c
1ff8
0ff0
0000
0000
0000
0000
0000
ENDCHAR
STARTCHAR uni210E
ENCODING 8462
SWIDTH 666 0
DWIDTH 15 0
BBX 15 30 0 -7
BITMAP
0000
0000
0000
0000
0000
3000
3000
3000
3000
3000
3000
3ff0
3ff8
301c
300c
300c
300c
300c
300c
300c
300c
300c
300c
300c
300c
0000
0000
0000
0000
0000
ENDCHAR
STARTCHAR uni210F
ENCODING 8463
SWIDTH 666 0
DWIDTH 15 0
BBX 15 30 0 -7
BITMAP
0000
0000
0000
0000
0000
6000
6000
ff00
ff00
6000
6000
7fe0
7ff0
6038
6018
6018
6018
6018
6018
6018
6018
6018
6018
6018
6018
0000
0000
0000
0000
0000
ENDCHAR
STARTCHAR uni2115
ENCODING 8469
SWIDTH 666 0
DWIDTH 15 0
BBX 15 30 0 -7
BITMAP
0000
0000
0000
0000
0000
300c
300c
300c
300c
380c
3c0c
360c
3b0c
3d8c
36cc
336c
31bc
30dc
306c
303c
301c
300c
300c
300c
300c
0000
0000
0000
0000
0000
ENDCHAR
STARTCHAR afii61352
ENCODING 8470
SWIDTH 666 0
DWIDTH 15 0
BBX 15 30 0 -7
BITMAP
0000
0000
0000
0000
0000
8300
8338
837c
c36c
c36c
e37c
e338
f300
b300
bb00
9b00
9f00
8f00
8f7c
877c
8700
837c
837c
8300
8300
0000
0000
0000
0000
0000
ENDCHAR
STARTCHAR uni211A
ENCODING 8474
SWIDTH 666 0
DWIDTH 15 0
BBX 15 30 0 -7
BITMAP
0000
0000
0000
0000
0000
1fe0
3ff0
7c38
6c18
6c18
6c18
6c18
6c18
6c18
6c18
6c18
6c18
6c18
6c18
6c18
6c18
6d98
7df8
3ff0
1ff0
0038
001c
0000
0000
0000
ENDCHAR
STARTCHAR uni211D
ENCODING 8477
SWIDTH 666 0
DWIDTH 15 0
BBX 15 30 0 -7
BITMAP
0000
0000
0000
0000
0000
7fe0
7ff0
6c38
6c18
6c18
6c18
6c18
6c18
6c18
6c38
6ff0
6fe0
6d80
6ec0
6f60
6db0
6cd8
6c6c
6c34
7c1c
0000
0000
0000
0000
0000
ENDCHAR
STARTCHAR trademark
ENCODING 8482
SWIDTH 666 0
DWIDTH 15 0
BBX 15 30 0 -7
BITMAP
0000
0000
0000
0000
0000
7e82
7ec6
18fe
18d6
18c6
18c6
18c6
18c6
0000
0000
0000
0000
0000
0000
0000
0000
0000
0000
0000
0000
0000
0000
0000
0000
0000
ENDCHAR
STARTCHAR uni2124
ENCODING 8484
SWIDTH 666 0
DWIDTH 15 0
BBX 15 30 0 -7
BITMAP
0000
0000
0000
0000
0000
3ffc
3ffc
000c
000c
001c
003c
006c
00d8
01b0
0360
06c0
0d80
1b00
3600
3c00
3800
3000
3000
3ffc
3ffc
0000
0000
0000
0000
0000
ENDCHAR
STARTCHAR Ohm
ENCODING 8486
SWIDTH 666 0
DWIDTH 15 0
BBX 15 30 0 -7
BITMAP
0000
0000
0000
0000
0000
0ff0
1ff8
381c
300c
300c
300c
300c
300c
300c
300c
300c
300c
300c
381c
1c38
0e70
0660
0660
3e7c
3e7c
0000
0000
0000
0000
0000
ENDCHAR
STARTCHAR aleph
ENCODING 8501
SWIDTH 666 0
DWIDTH 15 0
BBX 15 30 0 -7
BITMAP
0000
0000
0000
0000
0000
3030
3030
1818
1818
0c0c
0c0c
0606
0e0e
1f1c
3b38
71f0
61e0
60c0
60c0
6060
6060
6030
7030
3818
1c18
0000
0000
0000
0000
0000
ENDCHAR
STARTCHAR arrowleft
ENCODING 8592
SWIDTH 666 0
DWIDTH 15 0
BBX 15 30 0 -7
BITMAP
0000
0000
0000
0000
0000
0000
0000
0000
0000
0300
0700
0e00
1c00
3800
7ffe
7ffe
3800
1c00
0e00
0700
0300
0000
0000
0000
0000
0000
0000
0000
0000
0000
ENDCHAR
STARTCHAR arrowup
ENCODING 8593
SWIDTH 666 0
DWIDTH 15 0
BBX 15 30 0 -7
BITMAP
0000
0000
0000
0000
0000
0180
03c0
07e0
0ff0
1db8
399c
318c
0180
0180
0180
0180
0180
0180
0180
0180
0180
0180
0180
0180
0180
0000
0000
0000
0000
0000
ENDCHAR
STARTCHAR arrowright
ENCODING 8594
SWIDTH 666 0
DWIDTH 15 0
BBX 15 30 0 -7
BITMAP
0000
0000
0000
0000
0000
0000
0000
0000
0000
0180
01c0
00e0
0070
0038
7ffc
7ffc
0038
0070
00e0
01c0
0180
0000
0000
0000
0000
0000
0000
0000
0000
0000
ENDCHAR
STARTCHAR arrowdown
ENCODING 8595
SWIDTH 666 0
DWIDTH 15 0
BBX 15 30 0 -7
BITMAP
0000
0000
0000
0000
0000
0180
0180
0180
0180
0180
0180
0180
0180
0180
0180
0180
0180
0180
318c
399c
1db8
0ff0
07e0
03c0
0180
0000
0000
0000
0000
0000
ENDCHAR
STARTCHAR arrowboth
ENCODING 8596
SWIDTH 666 0
DWIDTH 15 0
BBX 15 30 0 -7
BITMAP
0000
0000
0000
0000
0000
0000
0000
0000
0000
0660
0e70
1c38
381c
700e
fffe
fffe
700e
381c
1c38
0e70
0660
0000
0000
0000
0000
0000
0000
0000
0000
0000
ENDCHAR
STARTCHAR arrowupdn
ENCODING 8597
SWIDTH 666 0
DWIDTH 15 0
BBX 15 30 0 -7
BITMAP
0000
0000
0000
0000
0000
0180
03c0
07e0
0ff0
1db8
399c
318c
0180
0180
0180
0180
0180
0180
318c
399c
1db8
0ff0
07e0
03c0
0180
0000
0000
0000
0000
0000
ENDCHAR
STARTCHAR uni21A4
ENCODING 8612
SWIDTH 666 0
DWIDTH 15 0
BBX 15 30 0 -7
BITMAP
0000
0000
0000
0000
0000
0000
0000
0000
0000
0306
0706
0e06
1c06
3806
7ffe
7ffe
3806
1c06
0e06
0706
0306
0000
0000
0000
0000
0000
0000
0000
0000
0000
ENDCHAR
STARTCHAR uni21A6
ENCODING 8614
SWIDTH 666 0
DWIDTH 15 0
BBX 15 30 0 -7
BITMAP
0000
0000
0000
0000
0000
0000
0000
0000
0000
6180
61c0
60e0
6070
6038
7ffc
7ffc
6038
6070
60e0
61c0
6180
0000
0000
0000
0000
0000
0000
0000
0000
0000
ENDCHAR
STARTCHAR arrowupdnbse
ENCODING 8616
SWIDTH 666 0
DWIDTH 15 0
BBX 15 30 0 -7
BITMAP
0000
0000
0000
0000
0000
0180
03c0
07e0
0ff0
1db8
399c
318c
0180
0180
0180
0180
318c
399c
1db8
0ff0
07e0
03c0
0180
3ffc
3ffc
0000
0000
0000
0000
0000
ENDCHAR
STARTCHAR uni21B2
ENCODING 8626
SWIDTH 666 0
DWIDTH 15 0
BBX 15 30 0 -7
BITMAP
0000
0000
0000
0000
0000
000c
000c
000c
000c
000c
000c
000c
000c
030c
070c
0e0c
1c0c
380c
7ffc
7ffc
3800
1c00
0e00
0700
0300
0000
0000
0000
0000
0000
ENDCHAR
STARTCHAR uni21B3
ENCODING 8627
SWIDTH 666 0
DWIDTH 15 0
BBX 15 30 0 -7
BITMAP
0000
0000
0000
0000
0000
6000
6000
6000
6000
6000
6000
6000
6000
6180
61c0
60e0
6070
6038
7ffc
7ffc
0038
0070
00e0
01c0
0180
0000
0000
0000
0000
0000
ENDCHAR
STARTCHAR carriagereturn
ENCODING 8629
SWIDTH 666 0
DWIDTH 15 0
BBX 15 30 0 -7
BITMAP
0000
0000
0000
0000
0000
0000
0000
0000
000c
000c
000c
000c
000c
030c
070c
0e0c
1c0c
380c
7ffc
7ffc
3800
1c00
0e00
0700
0300
0000
0000
0000
0000
0000
ENDCHAR
STARTCHAR uni21BB
ENCODING 8635
SWIDTH 666 0
DWIDTH 15 0
BBX 15 30 0 -7
BITMAP
0000
0000
0000
0000
0000
0000
0000
0000
7f00
7f00
1f00
3b18
3318
630c
600c
600c
600c
600c
3018
3838
1ff0
0fe0
0000
0000
0000
0000
0000
0000
0000
0000
ENDCHAR
STARTCHAR uni21CB
ENCODING 8651
SWIDTH 666 0
DWIDTH 15 0
BBX 15 30 0 -7
BITMAP
0000
0000
0000
0000
0000
0000
0000
0000
0800
1800
3800
7000
fffc
fffc
0000
0000
fffc
fffc
0038
0070
0060
0040
0000
0000
0000
0000
0000
0000
0000
0000
ENDCHAR
STARTCHAR uni21CC
ENCODING 8652
SWIDTH 666 0
DWIDTH 15 0
BBX 15 30 0 -7
BITMAP
0000
0000
0000
0000
0000
0000
0000
0000
0040
0060
0070
0038
fffc
fffc
0000
0000
fffc
fffc
7000
3800
1800
0800
0000
0000
0000
0000
0000
0000
0000
0000
ENDCHAR
STARTCHAR arrowdblleft
ENCODING 8656
SWIDTH 666 0
DWIDTH 15 0
BBX 15 30 0 -7
BITMAP
0000
0000
0000
0000
0000
0000
0000
0000
0000
0600
0e00
1c00
3ffc
7ffc
f000
f000
7ffc
3ffc
1c00
0e00
0600
0000
0000
0000
0000
0000
0000
0000
0000
0000
ENDCHAR
STARTCHAR arrowdblup
ENCODING 8657
SWIDTH 666 0
DWIDTH 15 0
BBX 15 30 0 -7
BITMAP
0000
0000
0000
0000
0000
0180
03c0
07e0
0ff0
1e78
3e7c
366c
0660
0660
0660
0660
0660
0660
0660
0660
0660
0660
0660
0660
0660
0000
0000
0000
0000
0000
ENDCHAR
STARTCHAR arrowdblright
ENCODING 8658
SWIDTH 666 0
DWIDTH 15 0
BBX 15 30 0 -7
BITMAP
0000
0000
0000
0000
0000
0000
0000
0000
0000
0180
01c0
00e0
fff0
fff8
003c
003c
fff8
fff0
00e0
01c0
0180
0000
0000
0000
0000
0000
0000
0000
0000
0000
ENDCHAR
STARTCHAR arrowdbldown
ENCODING 8659
SWIDTH 666 0
DWIDTH 15 0
BBX 15 30 0 -7
BITMAP
0000
0000
0000
0000
0000
0660
0660
0660
0660
0660
0660
0660
0660
0660
0660
0660
0660
0660
366c
3e7c
1e78
0ff0
07e0
03c0
0180
0000
0000
0000
0000
0000
ENDCHAR
STARTCHAR arrowdblboth
ENCODING 8660
SWIDTH 666 0
DWIDTH 15 0
BBX 15 30 0 -7
BITMAP
0000
0000
0000
0000
0000
0000
0000
0000
0000
0660
0e70
1c38
3ffc
7ffe
f00e
f00e
7ffe
3ffc
1c38
0e70
0660
0000
0000
0000
0000
0000
0000
0000
0000
0000
ENDCHAR
STARTCHAR uni21D5
ENCODING 8661
SWIDTH 666 0
DWIDTH 15 0
BBX 15 30 0 -7
BITMAP
0000
0000
0000
0000
0000
0180
03c0
07e0
0ff0
1e78
3e7c
366c
0660
0660
0660
0660
0660
0660
366c
3e7c
1e78
0ff0
07e0
03c0
0180
0000
0000
0000
0000
0000
ENDCHAR
STARTCHAR universal
ENCODING 8704
SWIDTH 666 0
DWIDTH 15 0
BBX 15 30 0 -7
BITMAP
0000
0000
0000
0000
0000
600c
600c
600c
600c
3018
3018
3ff8
3ff8
1830
1830
1830
0c60
0c60
0c60
06c0
06c0
06c0
0380
0380
0380
0000
0000
0000
0000
0000
ENDCHAR
STARTCHAR existential
ENCODING 8707
SWIDTH 666 0
DWIDTH 15 0
BBX 15 30 0 -7
BITMAP
0000
0000
0000
0000
0000
3ffc
3ffc
000c
000c
000c
000c
000c
000c
000c
3ffc
3ffc
000c
000c
000c
000c
000c
000c
000c
3ffc
3ffc
0000
0000
0000
0000
0000
ENDCHAR
STARTCHAR uni2204
ENCODING 8708
SWIDTH 666 0
DWIDTH 15 0
BBX 15 30 0 -7
BITMAP
0000
0000
000c
000c
001c
3ffc
3ffc
003c
006c
006c
00cc
00cc
018c
018c
3ffc
3ffc
030c
030c
060c
060c
0c0c
0c0c
180c
3ffc
3ffc
3000
6000
6000
0000
0000
ENDCHAR
STARTCHAR emptyset
ENCODING 8709
SWIDTH 666 0
DWIDTH 15 0
BBX 15 30 0 -7
BITMAP
0000
0000
0000
0000
0000
0018
0018
0030
0030
0fe0
1ff0
30d8
30d8
3198
3198
3318
3318
3618
3618
1ff0
0fe0
1800
1800
3000
3000
0000
0000
0000
0000
0000
ENDCHAR
STARTCHAR increment
ENCODING 8710
SWIDTH 666 0
DWIDTH 15 0
BBX 15 30 0 -7
BITMAP
0000
0000
0000
0000
0000
0180
0180
0180
03c0
03c0
03c0
0660
0660
0660
0c30
0c30
0c30
1818
1818
1818
300c
300c
300c
3ffc
3ffc
0000
0000
0000
0000
0000
ENDCHAR
STARTCHAR gradient
ENCODING 8711
SWIDTH 666 0
DWIDTH 15 0
BBX 15 30 0 -7
BITMAP
0000
0000
0000
0000
0000
3ffc
3ffc
300c
300c
300c
1818
1818
1818
0c30
0c30
0c30
0660
0660
0660
03c0
03c0
03c0
0180
0180
0180
0000
0000
0000
0000
0000
ENDCHAR
STARTCHAR element
ENCODING 8712
SWIDTH 666 0
DWIDTH 15 0
BBX 15 30 0 -7
BITMAP
0000
0000
0000
0000
0000
01fc
07fc
0e00
1800
1800
3000
3000
3000
3000
3ffc
3ffc
3000
3000
3000
3000
1800
1800
0e00
07fc
01fc
0000
0000
0000
0000
0000
ENDCHAR
STARTCHAR notelement
ENCODING 8713
SWIDTH 666 0
DWIDTH 15 0
BBX 15 30 0 -7
BITMAP
0000
0000
000c
000c
0018
03f8
0ff8
1c30
3060
3060
60c0
60c0
6180
6180
7ff8
7ff8
6300
6300
6600
6600
2c00
3c00
1c00
1ff8
33f8
3000
6000
6000
0000
0000
ENDCHAR
STARTCHAR uni220A
ENCODING 8714
SWIDTH 666 0
DWIDTH 15 0
BBX 15 30 0 -7
BITMAP
0000
0000
0000
0000
0000
0000
0000
0000
03fc
0ffc
1c00
1800
3000
3000
3ffc
3ffc
3000
3000
1800
1c00
0ffc
03fc
0000
0000
0000
0000
0000
0000
0000
0000
ENDCHAR
STARTCHAR suchthat
ENCODING 8715
SWIDTH 666 0
DWIDTH 15 0
BBX 15 30 0 -7
BITMAP
0000
0000
0000
0000
0000
3f80
3fe0
0070
0018
0018
000c
000c
000c
000c
3ffc
3ffc
000c
000c
000c
000c
0018
0018
0070
3fe0
3f80
0000
0000
0000
0000
0000
ENDCHAR
STARTCHAR uni220C
ENCODING 8716
SWIDTH 666 0
DWIDTH 15 0
BBX 15 30 0 -7
BITMAP
0000
0000
6000
6000
3000
3f80
3fe0
1870
0c18
0c18
060c
060c
030c
030c
3ffc
3ffc
018c
018c
00cc
00cc
0068
0078
0070
3ff0
3f98
0018
000c
000c
0000
0000
ENDCHAR
STARTCHAR uni220D
ENCODING 8717
SWIDTH 666 0
DWIDTH 15 0
BBX 15 30 0 -7
BITMAP
0000
0000
0000
0000
0000
0000
0000
0000
3fc0
3ff0
0038
0018
000c
000c
3ffc
3ffc
000c
000c
0018
0038
3ff0
3fc0
0000
0000
0000
0000
0000
0000
0000
0000
ENDCHAR
STARTCHAR minus
ENCODING 8722
SWIDTH 666 0
DWIDTH 15 0
BBX 15 30 0 -7
BITMAP
0000
0000
0000
0000
0000
0000
0000
0000
0000
0000
0000
0000
0000
0000
3ffc
3ffc
0000
0000
0000
0000
0000
0000
0000
0000
0000
0000
0000
0000
0000
0000
ENDCHAR
STARTCHAR uni2213
ENCODING 8723
SWIDTH 666 0
DWIDTH 15 0
BBX 15 30 0 -7
BITMAP
0000
0000
0000
0000
0000
0000
0000
0000
0000
3ffc
3ffc
0000
0000
0180
0180
0180
0180
0180
3ffc
3ffc
0180
0180
0180
0180
0180
0000
0000
0000
0000
0000
ENDCHAR
STARTCHAR uni2214
ENCODING 8724
SWIDTH 666 0
DWIDTH 15 0
BBX 15 30 0 -7
BITMAP
0000
0000
0000
0000
0000
0000
0000
0180
0180
0180
0180
0000
0000
0180
0180
0180
0180
0180
3ffc
3ffc
0180
0180
0180
0180
0180
0000
0000
0000
0000
0000
ENDCHAR
STARTCHAR uni2215
ENCODING 8725
SWIDTH 666 0
DWIDTH 15 0
BBX 15 30 0 -7
BITMAP
0000
0000
0000
0000
0000
0000
0000
0000
0000
000c
001c
0038
0070
00e0
01c0
0380
0700
0e00
1c00
3800
7000
6000
0000
0000
0000
0000
0000
0000
0000
0000
ENDCHAR
STARTCHAR uni2216
ENCODING 8726
SWIDTH 666 0
DWIDTH 15 0
BBX 15 30 0 -7
BITMAP
0000
0000
0000
0000
0000
0000
0000
0000
0000
6000
7000
3800
1c00
0e00
0700
0380
01c0
00e0
0070
0038
001c
000c
0000
0000
0000
0000
0000
0000
0000
0000
ENDCHAR
ENDFONT
